<svg xmlns="http://www.w3.org/2000/svg" xmlns:xlink="http://www.w3.org/1999/xlink" version="1.1" x="0px" y="0px" viewBox="0 0 95 118.75" enable-background="new 0 0 95 95" xml:space="preserve"><g><path fill="#AFBFD2" d="M26,47.5C26,59.356,35.645,69,47.5,69C59.354,69,69,59.356,69,47.5S59.354,26,47.5,26C35.645,26,26,35.645,26,47.5z    M28,47.5C28,36.749,36.747,28,47.5,28C58.252,28,67,36.749,67,47.5S58.252,67,47.5,67C36.747,67,28,58.252,28,47.5z"/><path fill="#0F2136" d="M47.458,31.755C47.458,31.755,47.458,31.755,47.458,31.755c4.304,0,8.349,1.676,11.392,4.719   c3.136,3.136,4.705,7.254,4.71,11.373c0,0.551-0.446,0.996-0.996,0.996s-0.996-0.445-0.996-0.996h-0.007   c-0.005-3.607-1.379-7.213-4.125-9.959c-2.665-2.665-6.208-4.133-9.977-4.133c-0.001,0-0.001,0-0.001,0v-0.008   c-0.55,0-0.996-0.445-0.996-0.996S46.908,31.755,47.458,31.755z"/></g></svg>