<svg xmlns="http://www.w3.org/2000/svg" xmlns:xlink="http://www.w3.org/1999/xlink" xml:space="preserve" version="1.0" style="shape-rendering:geometricPrecision;text-rendering:geometricPrecision;image-rendering:optimizeQuality;" viewBox="0 0 10000 12500" x="0px" y="0px" fill-rule="evenodd" clip-rule="evenodd"><defs><style type="text/css">
   
    .fil0 {fill:black;fill-rule:nonzero}
   
  </style></defs><g><path fill="#AFBFD2" d="M6771 5965l-894 1041 530 0 669 -779c72,-83 63,-209 -19,-282 -87,-72 -211,-67 -286,20z"/><path fill="#AFBFD2" d="M5808 6415l-272 317c23,96 -3,200 -69,274l276 0 708 -835c-407,220 -637,237 -643,244z"/><path fill="#AFBFD2" d="M2246 8485l1483 0c59,-341 96,-421 448,-489l2250 -374c64,-10 139,-27 187,-74l1082 -1080c77,-77 77,-206 0,-284 -77,-77 -204,-78 -282,-3l-913 913c-10,10 -24,16 -39,15 -598,-44 -1461,-2 -2093,-2 -28,0 -51,-22 -51,-51 0,-28 23,-50 51,-50l875 0c264,-4 258,-403 -3,-403l-1511 0c-325,0 -581,201 -515,542 4,22 -5,38 -22,52 -496,379 -749,694 -947,1288z"/><path fill="#AFBFD2" d="M7693 3958c0,-536 -183,-1068 -511,-1493 -464,-602 -1172,-950 -1931,-950 -739,0 -1398,324 -1872,878 -371,433 -570,996 -570,1565 0,1355 1100,2442 2442,2442 1334,0 2442,-1087 2442,-2442zm-2069 2339c91,-114 70,-129 50,-145 -86,-65 -51,-224 67,-162 33,17 84,43 148,-54 49,-77 93,-65 150,-50 226,61 202,-222 464,-44 50,33 95,63 148,-18 33,-50 79,-72 138,-62 -340,288 -728,458 -1165,535zm-1661 -347c0,-16 1,-32 6,-46 20,-58 76,-89 201,-46 11,4 21,14 23,26 38,180 72,191 136,210 59,17 165,73 241,133 -212,-63 -427,-148 -607,-277zm3609 -2471c-43,82 -118,88 -213,65 121,248 -122,276 -122,469 0,164 -170,434 -312,512 6,67 27,195 14,252 -12,50 -88,133 -121,180 -22,31 -160,247 -227,153 -55,-77 49,-240 39,-373 -9,-101 -42,-139 -64,-164 -30,-37 -46,-52 -23,-101 46,-96 30,-131 18,-155 -13,-30 -24,-52 4,-91 42,-58 62,-51 -51,-40 -260,25 -334,-135 -487,-28 -50,35 -91,64 -148,19 -51,-39 -101,-66 -146,-90 -232,-123 -298,-314 -173,-551l12 -24c-12,-5 -22,-12 -30,-21 -77,-76 35,-296 84,-321 230,-113 89,-265 388,-302 158,-20 195,-208 370,-133 146,62 205,21 244,-6 127,-89 171,99 369,72 47,-9 -62,-87 -115,-62 -147,69 -98,-144 -252,-102 -46,12 -94,25 -161,-15 -168,-102 -170,-100 -179,-88 -106,145 -286,39 -280,205 -2,39 -16,64 -76,61 -100,-4 -92,103 -151,113 -149,23 -76,-79 -15,-131 49,-43 115,-100 106,-126 -47,-137 6,-195 137,-198 -95,-18 -145,-149 -169,-231 -4,87 -203,74 -257,34 -40,-30 -61,-77 -35,-125 18,-33 60,-60 125,-64 28,-1 34,-20 33,-42 -5,-92 -64,-263 130,-129 234,162 233,236 233,279 -1,16 110,134 114,104 4,-35 10,-78 60,-99 172,-70 86,-131 48,-249 -13,-38 -15,-74 7,-107 332,174 610,401 825,680 211,273 362,597 447,970zm-3517 -1567c88,144 41,182 -63,336 -113,173 30,429 -265,522 -17,7 99,134 -64,261 -26,20 23,100 34,130 24,72 21,144 -117,197 -14,67 -13,75 -8,79 38,17 62,44 83,79 24,-10 67,-21 145,-19 129,4 101,65 328,83 203,16 250,117 307,240 5,88 135,206 207,263 50,32 14,91 -34,170 -45,72 -103,167 -107,251 -2,45 -33,67 -75,96 -69,47 -176,122 -166,392 2,39 -33,65 -74,95 -52,38 -118,82 -63,153 22,28 22,65 9,93 -23,49 -78,57 -117,20 -108,-100 -37,-259 -137,-341 -77,-63 -177,-146 -40,-512 52,-139 -7,-183 -79,-235 -109,-81 -240,-178 -169,-526 11,-57 -187,-169 -187,-308 -128,-27 -164,-81 -201,-212 -10,-34 -100,-69 -171,-92 94,-256 228,-484 402,-688 170,-198 378,-373 622,-527z"/></g></svg>