<svg xmlns="http://www.w3.org/2000/svg" xmlns:xlink="http://www.w3.org/1999/xlink" version="1.1" x="0px" y="0px" viewBox="0 0 100 125" enable-background="new 0 0 100 100" xml:space="preserve"><path fill="#AFBFD2" d="M48.075,24.534c-1.031,0.523-1.72,1.458-1.963,2.506c0.383-0.335,0.824-0.635,1.312-0.882  c2.287-1.159,4.846-0.791,5.993,0.781c-0.067-0.253-0.161-0.507-0.286-0.752C52.191,24.336,49.927,23.594,48.075,24.534z"/><s d="M45.795,23.688c-0.217-0.056-0.444-0.09-0.68-0.099c-1.766-0.065-3.254,1.314-3.32,3.081  c-0.038,0.986,0.374,1.884,1.054,2.498c-0.091-0.424-0.132-0.876-0.114-1.341C42.817,25.645,44.149,23.89,45.795,23.688z"/><path fill="#AFBFD2" d="M40.272,27.297c-0.136,0.119-0.263,0.253-0.377,0.405c-0.857,1.143-0.626,2.766,0.517,3.622  c0.637,0.478,1.424,0.619,2.143,0.449c-0.322-0.135-0.642-0.314-0.942-0.541C40.201,30.175,39.65,28.482,40.272,27.297z"/><path fill="#AFBFD2" d="M57.604,38.726c1.795-2.629,1.117-6.218-1.513-8.012c-1.467-1.001-3.23-1.232-4.816-0.787  c0.732,0.269,1.459,0.639,2.154,1.112c3.245,2.214,4.64,5.925,3.374,8.627C57.098,39.389,57.366,39.072,57.604,38.726z"/><path fill="#AFBFD2" d="M44.636,48.831c0.523,0.157,1.071,0.262,1.638,0.305c4.278,0.337,8.021-2.86,8.356-7.138  c0.188-2.386-0.723-4.606-2.308-6.16c0.179,1.036,0.234,2.134,0.145,3.264C52.052,44.381,48.646,48.5,44.636,48.831z"/><path fill="#AFBFD2" d="M43.501,47.904c2.559-1.587,4.132-4.164,4.53-6.928c-0.92,0.953-1.992,1.827-3.203,2.576c-5.667,3.51-12.379,3.121-15.7-0.7  c0.23,0.647,0.534,1.281,0.909,1.888C32.881,49.331,38.911,50.749,43.501,47.904z"/><path fill="#AFBFD2" d="M40.5,41.158c-1.595-0.072-3.237-0.35-4.881-0.847c-7.688-2.332-12.679-8.717-11.864-14.764  c-0.404,0.722-0.736,1.502-0.986,2.326c-1.89,6.227,1.627,12.812,7.856,14.703C34.097,43.627,37.681,43,40.5,41.158z"/><path fill="#AFBFD2" d="M34.275,35.691c-1.137-1.484-2.129-3.163-2.922-5.007c-3.709-8.64-1.762-17.922,4.265-21.752  c-0.952,0.185-1.897,0.472-2.824,0.87c-6.999,3.006-10.238,11.121-7.232,18.119C27.237,31.824,30.502,34.556,34.275,35.691z"/><path fill="#AFBFD2" d="M34.229,26.377c0.367-2.11,1.012-4.249,1.951-6.348c4.405-9.828,13.74-15.39,21.644-13.283  c-0.893-0.66-1.872-1.233-2.926-1.705c-7.965-3.566-17.314-0.001-20.88,7.963C32.028,17.445,32.257,22.316,34.229,26.377z"/><path fill="#AFBFD2" d="M76.108,21.823c-0.195-0.979-0.473-1.955-0.845-2.919C71.733,9.727,61.427,5.146,52.249,8.678  c-5.12,1.968-8.808,6.046-10.457,10.857c1.967-1.395,4.184-2.59,6.606-3.523c10.801-4.156,22.104-1.639,27.155,5.511  c0.521,1.372,3.908,11.079-0.327,20.778c-0.333,0.625-8.172,15.354-8.971,17.465c-0.013,0.035-1.305,3.547-1.542,6.251  c0,0.057-0.053,5.534-2.562,8.486H37.548v0.984H62.34c2.678-2.967,2.794-9.254,2.794-9.473c0.231-2.632,1.503-6.077,1.515-6.111  c0.79-2.086,8.868-17.258,8.956-17.425C79.583,33.365,76.948,24.254,76.108,21.823z"/><path fill="#AFBFD2" d="M62.331,77.78c0,0.748-0.71,1.353-1.588,1.353H39.134c-0.877,0-1.586-0.604-1.586-1.353v-0.252  c0-0.741,0.708-1.347,1.586-1.347h21.609c0.878,0,1.588,0.605,1.588,1.347V77.78z"/><path fill="#AFBFD2" d="M62.331,81.798c0,0.746-0.71,1.351-1.588,1.351H39.134c-0.877,0-1.586-0.604-1.586-1.351v-0.25  c0-0.745,0.708-1.348,1.586-1.348h21.609c0.878,0,1.588,0.603,1.588,1.348V81.798z"/><path fill="#AFBFD2" d="M62.1,85.814c0,0.732-0.698,1.324-1.558,1.324H39.336c-0.86,0-1.556-0.592-1.556-1.324v-0.243  c0-0.732,0.696-1.324,1.556-1.324h21.206c0.859,0,1.558,0.592,1.558,1.324V85.814z"/><path fill="#AFBFD2" d="M61.066,89.59c0,0.669-0.636,1.213-1.42,1.213H40.235c-0.787,0-1.426-0.544-1.426-1.213v-0.226  c0-0.673,0.639-1.214,1.426-1.214h19.412c0.784,0,1.42,0.541,1.42,1.214V89.59z"/><path fill="#AFBFD2" d="M58.932,93.113c0,0.54-0.516,0.978-1.151,0.978H42.096c-0.634,0-1.15-0.438-1.15-0.978v-0.182  c0-0.544,0.516-0.979,1.15-0.979H57.78c0.636,0,1.151,0.435,1.151,0.979V93.113z"/><path fill="#AFBFD2" d="M55.623,95.72c0,0.343-0.326,0.622-0.727,0.622h-9.915c-0.398,0-0.725-0.279-0.725-0.622v-0.111  c0-0.345,0.327-0.619,0.725-0.619h9.915c0.4,0,0.727,0.274,0.727,0.619V95.72z"/></svg>