<svg xmlns="http://www.w3.org/2000/svg" xmlns:xlink="http://www.w3.org/1999/xlink" version="1.1" x="0px" y="0px" viewBox="0 0 96 120" enable-background="new 0 0 96 96" xml:space="preserve"><g><path fill="#000000" d="M93,22.239h-9.456v-3.883c0-0.829-0.672-1.5-1.5-1.5s-1.5,0.671-1.5,1.5v3.883H68.695v-3.883   c0-0.829-0.672-1.5-1.5-1.5s-1.5,0.671-1.5,1.5v3.883h-6.648c-0.828,0-1.5,0.671-1.5,1.5v9.184l-11.75,0.038   c-0.826,0.002-1.495,0.673-1.495,1.5v9.193l-12.226,0.114c-0.823,0.008-1.486,0.677-1.486,1.5v9.192l-12.96,0.114   c-0.823,0.008-1.486,0.677-1.486,1.5v9.179H3c-0.828,0-1.5,0.672-1.5,1.5v10.893c0,0.828,0.672,1.5,1.5,1.5h64.195h14.849H93   c0.828,0,1.5-0.672,1.5-1.5V23.739C94.5,22.91,93.828,22.239,93,22.239z M80.544,25.239v6.866H68.695v-6.866H80.544z    M68.695,46.768h11.849v8.661H68.695V46.768z M80.544,43.768H68.695v-8.663h11.849V43.768z M68.695,58.428h11.849v8.662H68.695   V58.428z M4.5,68.252h13.144c0.828,0,1.5-0.672,1.5-1.5V57.56l12.96-0.114c0.823-0.008,1.486-0.677,1.486-1.5v-9.192l12.226-0.114   c0.823-0.008,1.486-0.677,1.486-1.5v-9.184l11.75-0.038c0.826-0.002,1.495-0.673,1.495-1.5v-9.179h5.148v50.906H4.5V68.252z    M68.695,76.145V70.09h11.849v6.055H68.695z M91.5,76.145h-7.956V25.239H91.5V76.145z"/></g><text x="0" y="111" fill="#000000" font-size="5px" font-weight="bold" font-family="'Helvetica Neue', Helvetica, Arial-Unicode, Arial, Sans-serif">Created by faisalovers</text><text x="0" y="116" fill="#000000" font-size="5px" font-weight="bold" font-family="'Helvetica Neue', Helvetica, Arial-Unicode, Arial, Sans-serif">from the Noun Project</text></svg>