<svg xmlns="http://www.w3.org/2000/svg" xmlns:xlink="http://www.w3.org/1999/xlink" version="1.1" x="0px" y="0px" viewBox="0 0 100 125" style="enable-background:new 0 0 100 100;" xml:space="preserve"><path fill="#AFBFD2" d="M67.2060547,43.6513672c0.5527344,0,1-0.4477539,1-1v-3.984375c0-0.5522461-0.4472656-1-1-1s-1,0.4477539-1,1v3.984375  C66.2060547,43.2036133,66.6533203,43.6513672,67.2060547,43.6513672z"/><path fill="#AFBFD2" d="M73.6855469,43.6513672c0.5527344,0,1-0.4477539,1-1v-3.984375c0-0.5522461-0.4472656-1-1-1s-1,0.4477539-1,1v3.984375  C72.6855469,43.2036133,73.1328125,43.6513672,73.6855469,43.6513672z"/><path fill="#AFBFD2" d="M80.1650391,43.6513672c0.5527344,0,1-0.4477539,1-1v-3.984375c0-0.5522461-0.4472656-1-1-1s-1,0.4477539-1,1v3.984375  C79.1650391,43.2036133,79.6123047,43.6513672,80.1650391,43.6513672z"/><path fill="#AFBFD2" d="M67.2060547,52.5209961c0.5527344,0,1-0.4477539,1-1v-3.9848633c0-0.5522461-0.4472656-1-1-1s-1,0.4477539-1,1v3.9848633  C66.2060547,52.0732422,66.6533203,52.5209961,67.2060547,52.5209961z"/><path fill="#AFBFD2" d="M73.6855469,52.5209961c0.5527344,0,1-0.4477539,1-1v-3.9848633c0-0.5522461-0.4472656-1-1-1s-1,0.4477539-1,1v3.9848633  C72.6855469,52.0732422,73.1328125,52.5209961,73.6855469,52.5209961z"/><path fill="#AFBFD2" d="M80.1650391,52.5209961c0.5527344,0,1-0.4477539,1-1v-3.9848633c0-0.5522461-0.4472656-1-1-1s-1,0.4477539-1,1v3.9848633  C79.1650391,52.0732422,79.6123047,52.5209961,80.1650391,52.5209961z"/><path fill="#AFBFD2" d="M89,88h-1.5371094V24.375c0-0.5522461-0.4472656-1-1-1c-19.0585938,0-27.6816406,14.4765625-27.7666016,14.6230469  C58.6083984,38.1503906,58.5615234,38.3237305,58.5615234,38.5v3.6875h-8.3447266V11c0-0.5522461-0.4472656-1-1-1H28.171875  c-0.5527344,0-1,0.4477539-1,1v77h-8.0009766v-6.1549683c2.9527588-0.4806519,5.2158203-3.041687,5.2158203-6.1282349  c0-3.4277344-2.7880859-6.2167969-6.2158203-6.2167969s-6.2167969,2.7890625-6.2167969,6.2167969  c0,3.0865479,2.263916,5.647583,5.2167969,6.1282349V88H11c-0.5527344,0-1,0.4477539-1,1s0.4472656,1,1,1h78  c0.5527344,0,1-0.4477539,1-1S89.5527344,88,89,88z M13.9541016,75.7167969c0-2.3251953,1.8916016-4.2167969,4.2167969-4.2167969  c2.3242188,0,4.2158203,1.8916016,4.2158203,4.2167969c0,2.324707-1.8916016,4.2163086-4.2158203,4.2163086  C15.8457031,79.9331055,13.9541016,78.0415039,13.9541016,75.7167969z M77.8183594,88h-9.6123047v-9.0478516h9.6123047V88z   M78.8183594,76.9521484H67.2060547c-0.5527344,0-1,0.4477539-1,1V88h-5.6445312V58.3989258h24.9013672V88h-5.6445312V77.9521484  C79.8183594,77.3999023,79.3710938,76.9521484,78.8183594,76.9521484z M85.4628906,25.3891602v31.0097656H60.5615234v-17.612793  C61.6660156,37.074707,69.5166016,25.8442383,85.4628906,25.3891602z M58.5615234,88H44.7011719V44.1875h13.8603516V88z   M29.171875,12h19.0449219v30.1875h-4.515625c-0.5527344,0-1,0.4477539-1,1V88H29.171875V12z"/><path fill="#AFBFD2" d="M49.2167969,53.6025391c0.5527344,0,1-0.4477539,1-1V50c0-0.5522461-0.4472656-1-1-1s-1,0.4477539-1,1v2.6025391  C48.2167969,53.1547852,48.6640625,53.6025391,49.2167969,53.6025391z"/><path fill="#AFBFD2" d="M54.0068359,53.6025391c0.5527344,0,1-0.4477539,1-1V50c0-0.5522461-0.4472656-1-1-1s-1,0.4477539-1,1v2.6025391  C53.0068359,53.1547852,53.4541016,53.6025391,54.0068359,53.6025391z"/><path fill="#AFBFD2" d="M49.2167969,61.0014648c0.5527344,0,1-0.4477539,1-1v-2.6025391c0-0.5522461-0.4472656-1-1-1s-1,0.4477539-1,1v2.6025391  C48.2167969,60.5537109,48.6640625,61.0014648,49.2167969,61.0014648z"/><path fill="#AFBFD2" d="M54.0068359,61.0014648c0.5527344,0,1-0.4477539,1-1v-2.6025391c0-0.5522461-0.4472656-1-1-1s-1,0.4477539-1,1v2.6025391  C53.0068359,60.5537109,53.4541016,61.0014648,54.0068359,61.0014648z"/><path fill="#AFBFD2" d="M49.2167969,68.4008789c0.5527344,0,1-0.4477539,1-1v-2.6030273c0-0.5522461-0.4472656-1-1-1s-1,0.4477539-1,1v2.6030273  C48.2167969,67.953125,48.6640625,68.4008789,49.2167969,68.4008789z"/><path fill="#AFBFD2" d="M54.0068359,68.4008789c0.5527344,0,1-0.4477539,1-1v-2.6030273c0-0.5522461-0.4472656-1-1-1s-1,0.4477539-1,1v2.6030273  C53.0068359,67.953125,53.4541016,68.4008789,54.0068359,68.4008789z"/><path fill="#AFBFD2" d="M49.2167969,75.7998047c0.5527344,0,1-0.4477539,1-1v-2.6030273c0-0.5522461-0.4472656-1-1-1s-1,0.4477539-1,1v2.6030273  C48.2167969,75.3520508,48.6640625,75.7998047,49.2167969,75.7998047z"/><path fill="#AFBFD2" d="M54.0068359,75.7998047c0.5527344,0,1-0.4477539,1-1v-2.6030273c0-0.5522461-0.4472656-1-1-1s-1,0.4477539-1,1v2.6030273  C53.0068359,75.3520508,53.4541016,75.7998047,54.0068359,75.7998047z"/><path fill="#AFBFD2" d="M49.2167969,83.1987305c0.5527344,0,1-0.4477539,1-1v-2.6025391c0-0.5522461-0.4472656-1-1-1s-1,0.4477539-1,1v2.6025391  C48.2167969,82.7509766,48.6640625,83.1987305,49.2167969,83.1987305z"/><path fill="#AFBFD2" d="M54.0068359,83.1987305c0.5527344,0,1-0.4477539,1-1v-2.6025391c0-0.5522461-0.4472656-1-1-1s-1,0.4477539-1,1v2.6025391  C53.0068359,82.7509766,53.4541016,83.1987305,54.0068359,83.1987305z"/><path fill="#AFBFD2" d="M33.6875,15.5c-0.5527344,0-1,0.4477539-1,1v4.3183594c0,0.5522461,0.4472656,1,1,1s1-0.4477539,1-1V16.5  C34.6875,15.9477539,34.2402344,15.5,33.6875,15.5z"/><path fill="#AFBFD2" d="M38.4775391,15.5c-0.5527344,0-1,0.4477539-1,1v4.3183594c0,0.5522461,0.4472656,1,1,1s1-0.4477539,1-1V16.5  C39.4775391,15.9477539,39.0302734,15.5,38.4775391,15.5z"/><path fill="#AFBFD2" d="M33.6875,27.7758789c-0.5527344,0-1,0.4477539-1,1v4.3183594c0,0.5522461,0.4472656,1,1,1s1-0.4477539,1-1v-4.3183594  C34.6875,28.2236328,34.2402344,27.7758789,33.6875,27.7758789z"/><path fill="#AFBFD2" d="M38.4775391,27.7758789c-0.5527344,0-1,0.4477539-1,1v4.3183594c0,0.5522461,0.4472656,1,1,1s1-0.4477539,1-1v-4.3183594  C39.4775391,28.2236328,39.0302734,27.7758789,38.4775391,27.7758789z"/><path fill="#AFBFD2" d="M43.7011719,21.8183594c0.5527344,0,1-0.4477539,1-1V16.5c0-0.5522461-0.4472656-1-1-1s-1,0.4477539-1,1v4.3183594  C42.7011719,21.3706055,43.1484375,21.8183594,43.7011719,21.8183594z"/><path fill="#AFBFD2" d="M43.7011719,34.0942383c0.5527344,0,1-0.4477539,1-1v-4.3183594c0-0.5522461-0.4472656-1-1-1s-1,0.4477539-1,1v4.3183594  C42.7011719,33.6464844,43.1484375,34.0942383,43.7011719,34.0942383z"/><path fill="#AFBFD2" d="M33.6875,52.328125c-0.5527344,0-1,0.4477539-1,1v4.3183594c0,0.5522461,0.4472656,1,1,1s1-0.4477539,1-1V53.328125  C34.6875,52.7758789,34.2402344,52.328125,33.6875,52.328125z"/><path fill="#AFBFD2" d="M38.4775391,52.328125c-0.5527344,0-1,0.4477539-1,1v4.3183594c0,0.5522461,0.4472656,1,1,1s1-0.4477539,1-1V53.328125  C39.4775391,52.7758789,39.0302734,52.328125,38.4775391,52.328125z"/><path fill="#AFBFD2" d="M33.6875,40.0522461c-0.5527344,0-1,0.4477539-1,1v4.3183594c0,0.5522461,0.4472656,1,1,1s1-0.4477539,1-1v-4.3183594  C34.6875,40.5,34.2402344,40.0522461,33.6875,40.0522461z"/><path fill="#AFBFD2" d="M38.4775391,40.0522461c-0.5527344,0-1,0.4477539-1,1v4.3183594c0,0.5522461,0.4472656,1,1,1s1-0.4477539,1-1v-4.3183594  C39.4775391,40.5,39.0302734,40.0522461,38.4775391,40.0522461z"/><path fill="#AFBFD2" d="M33.6875,64.6040039c-0.5527344,0-1,0.4477539-1,1v4.3183594c0,0.5522461,0.4472656,1,1,1s1-0.4477539,1-1v-4.3183594  C34.6875,65.0517578,34.2402344,64.6040039,33.6875,64.6040039z"/><path fill="#AFBFD2" d="M38.4775391,64.6040039c-0.5527344,0-1,0.4477539-1,1v4.3183594c0,0.5522461,0.4472656,1,1,1s1-0.4477539,1-1v-4.3183594  C39.4775391,65.0517578,39.0302734,64.6040039,38.4775391,64.6040039z"/><path fill="#AFBFD2" d="M33.6875,76.8798828c-0.5527344,0-1,0.4477539-1,1v4.3188477c0,0.5522461,0.4472656,1,1,1s1-0.4477539,1-1v-4.3188477  C34.6875,77.3276367,34.2402344,76.8798828,33.6875,76.8798828z"/><path fill="#AFBFD2" d="M38.4775391,76.8798828c-0.5527344,0-1,0.4477539-1,1v4.3188477c0,0.5522461,0.4472656,1,1,1s1-0.4477539,1-1v-4.3188477  C39.4775391,77.3276367,39.0302734,76.8798828,38.4775391,76.8798828z"/><path fill="#AFBFD2" d="M67.2060547,66.2260742h11.6123047c0.5527344,0,1-0.4477539,1-1s-0.4472656-1-1-1H67.2060547c-0.5527344,0-1,0.4477539-1,1  S66.6533203,66.2260742,67.2060547,66.2260742z"/><path fill="#AFBFD2" d="M78.8183594,70.2260742H67.2060547c-0.5527344,0-1,0.4477539-1,1s0.4472656,1,1,1h11.6123047c0.5527344,0,1-0.4477539,1-1  S79.3710938,70.2260742,78.8183594,70.2260742z"/></svg>