<svg xmlns:dc="http://purl.org/dc/elements/1.1/" xmlns:cc="http://creativecommons.org/ns#" xmlns:rdf="http://www.w3.org/1999/02/22-rdf-syntax-ns#" xmlns:svg="http://www.w3.org/2000/svg" xmlns="http://www.w3.org/2000/svg" xmlns:sodipodi="http://sodipodi.sourceforge.net/DTD/sodipodi-0.dtd" xmlns:inkscape="http://www.inkscape.org/namespaces/inkscape" viewBox="0 0 96 120.0000025" version="1.1" x="0px" y="0px"><g transform="translate(0,-956.3622)"><path d="m 48,956.3622 a 48,48 0 0 0 -48,48 48,48 0 0 0 48,48 48,48 0 0 0 48,-48 48,48 0 0 0 -48,-48 z m -8.501953,21 a 0.50005,0.50005 0 0 1 0.507812,0.5059 l 0,0.5 0.5,0 a 0.50005,0.50005 0 1 1 0,1 l -0.5,0 0,0.5 a 0.50005,0.50005 0 1 1 -1,0 l 0,-0.5 -0.5,0 a 0.50005,0.50005 0 1 1 0,-1 l 0.5,0 0,-0.5 a 0.50005,0.50005 0 0 1 0.492188,-0.5059 z m 14.013672,1.0137 c 0.822505,0 1.5,0.6775 1.5,1.5 0,0.8225 -0.677495,1.5 -1.5,1.5 -0.822505,0 -1.5,-0.6775 -1.5,-1.5 0,-0.8225 0.677495,-1.5 1.5,-1.5 z m 0,1 c -0.282065,0 -0.5,0.2179 -0.5,0.5 0,0.282 0.217935,0.5 0.5,0.5 0.282065,0 0.5,-0.218 0.5,-0.5 0,-0.2821 -0.217935,-0.5 -0.5,-0.5 z m -19.263672,3.0039 c 0.119752,0 0.247467,-0.001 0.382812,0.012 0.541441,0.051 1.170818,0.2412 1.832032,0.5273 1.322353,0.5721 2.844543,1.528 4.669921,2.9043 l -0.83789,0.291 c -1.728704,-1.3034 -3.127953,-2.1535 -4.050781,-2.5527 -0.461419,-0.1996 -0.787992,-0.2864 -1.023438,-0.3086 -0.235446,-0.022 -0.414665,0.01 -0.570312,0.1328 -0.311299,0.2451 -0.407696,0.8995 -0.08594,1.9629 0.321759,1.0635 1.028355,2.5202 2.152344,4.3418 0.116863,0.1894 0.251528,0.3886 0.375,0.582 2.742169,-3.5849 7.049652,-5.9082 11.90625,-5.9082 4.856598,0 9.164081,2.3233 11.90625,5.9082 0.123472,-0.1934 0.258137,-0.3926 0.375,-0.582 1.123989,-1.8216 1.830585,-3.2783 2.152344,-4.3418 0.321763,-1.0634 0.227312,-1.7178 -0.08398,-1.9629 -0.155647,-0.1225 -0.334866,-0.155 -0.570312,-0.1328 -0.235446,0.022 -0.562019,0.109 -1.023438,0.3086 -0.922828,0.3992 -2.32403,1.2493 -4.052734,2.5527 l -0.835938,-0.291 c 1.825387,-1.3763 3.345616,-2.3322 4.667969,-2.9043 0.661214,-0.2861 1.292535,-0.4763 1.833985,-0.5273 0.541374,-0.051 0.959601,0.047 1.222656,0.2539 0.526156,0.4141 0.540811,1.2148 0.193359,2.3633 -0.347528,1.1485 -1.087363,2.6602 -2.238281,4.5254 -0.317972,0.5153 -0.663719,1.0457 -1.025391,1.5859 1.563082,2.368 2.478515,5.201 2.478516,8.248 -0.0011,1.5808 -0.261348,3.1162 -0.734375,4.5723 1.170583,-0.3454 2.12291,-0.7296 2.839844,-1.1367 0.9459,-0.5372 1.465343,-1.1072 1.630859,-1.5879 0.165515,-0.4806 0.07103,-0.9182 -0.425781,-1.4902 -0.496808,-0.572 -1.420927,-1.2065 -2.78125,-1.8028 l 0.378906,-0.914 c 1.445209,0.6335 2.489153,1.3131 3.148438,2.0722 0.329643,0.3795 0.556704,0.7961 0.666015,1.2208 0.109305,0.4247 0.100285,0.8572 -0.04102,1.2675 -0.282594,0.8206 -1.001322,1.5067 -2.0625,2.1094 -0.957047,0.5435 -2.226901,1.0153 -3.777344,1.4199 -1.18562,2.8279 -3.233141,5.2597 -5.898438,6.9297 0.232611,0.1827 0.469856,0.3728 0.697266,0.5449 1.735033,1.313 3.143202,2.1739 4.078125,2.584 0.467526,0.2052 0.80171,0.2953 1.041015,0.3203 0.23936,0.025 0.418354,0 0.576172,-0.1211 0.315624,-0.2353 0.42154,-0.8758 0.109375,-1.9296 -0.312174,-1.0538 -1.009878,-2.5056 -2.125,-4.3204 l 1.267579,0.1622 c 1.142076,1.8586 1.87331,3.3621 2.210937,4.5019 0.337692,1.1399 0.314193,1.9328 -0.226563,2.3359 -0.270373,0.2014 -0.701572,0.2905 -1.248046,0.2325 -0.546474,-0.058 -1.174602,-0.254 -1.837891,-0.545 -1.326523,-0.582 -2.855184,-1.5484 -4.685547,-2.9336 -0.174768,-0.1323 -0.356134,-0.2823 -0.533203,-0.4199 l 0,4.9239 1.232422,0 a 0.50005,0.50005 0 0 1 0.5,0.5 l 0,1.6015 c 0.576714,0.2156 1,0.7549 1,1.3985 0,0.6435 -0.423286,1.1808 -1,1.3964 l 0,1.2051 c 0.576714,0.2156 1,0.7549 1,1.3985 0,0.6435 -0.423286,1.1808 -1,1.3964 l 0,1.6036 a 0.50005,0.50005 0 0 1 -0.5,0.5 l -2.5,0 0,1.5 a 0.50005,0.50005 0 0 1 -0.5,0.5 l -2.5,0 0,1 -1,0 0,-1 -4,0 0,1 -1,0 0,-1 -2.5,0 a 0.50005,0.50005 0 0 1 -0.5,-0.5 l 0,-1.5 -2.5,0 a 0.50005,0.50005 0 0 1 -0.5,-0.5 l 0,-1.6036 c -0.576714,-0.2156 -1,-0.7529 -1,-1.3964 0,-0.6436 0.423286,-1.1829 1,-1.3985 l 0,-1.2051 c -0.576714,-0.2156 -1,-0.7529 -1,-1.3964 0,-0.6436 0.423286,-1.1829 1,-1.3985 l 0,-1.6015 a 0.50005,0.50005 0 0 1 0.5,-0.5 l 1.232422,0 0,-4.9239 c -0.177068,0.1376 -0.358436,0.2876 -0.533203,0.4199 -1.830363,1.3852 -3.35909,2.3517 -4.685547,2.9336 -0.663289,0.291 -1.291417,0.487 -1.837891,0.545 -0.546474,0.058 -0.977674,-0.031 -1.248047,-0.2325 -0.540745,-0.4031 -0.564254,-1.196 -0.226562,-2.3359 0.337627,-1.1398 1.068861,-2.6433 2.210937,-4.5019 l 1.267578,-0.1622 c -1.115122,1.8148 -1.812826,3.2666 -2.125,4.3204 -0.312174,1.0538 -0.206248,1.6943 0.109375,1.9296 0.157818,0.1211 0.336813,0.1461 0.576172,0.1211 0.239305,-0.025 0.57349,-0.1151 1.041016,-0.3203 0.934923,-0.4101 2.343092,-1.271 4.078125,-2.584 0.227408,-0.1721 0.464657,-0.3622 0.697266,-0.5449 -3.052381,-1.9125 -5.287857,-4.8249 -6.353516,-8.1855 -2.370939,-0.8936 -3.901367,-1.9411 -4.486328,-3.2071 -0.377991,-0.8179 -0.250376,-1.7357 0.328125,-2.4804 0.578502,-0.7446 1.552483,-1.3773 2.927734,-1.9415 l 0.404299,0.9258 c -1.284141,0.5268 -2.121819,1.1127 -2.535156,1.6446 -0.413337,0.532 -0.458423,0.9488 -0.222656,1.459 0.325762,0.705 1.428281,1.5665 3.248046,2.3671 -0.236272,-1.0519 -0.366395,-2.136 -0.367187,-3.2422 10e-7,-3.047 0.915433,-5.88 2.478515,-8.248 -0.361671,-0.5402 -0.707418,-1.0706 -1.02539,-1.5859 -1.150918,-1.8652 -1.890753,-3.3769 -2.238281,-4.5254 -0.347452,-1.1485 -0.332797,-1.9492 0.193359,-2.3633 0.197291,-0.1554 0.482541,-0.2498 0.841797,-0.2656 z m -3.761719,1.9863 a 0.50005,0.50005 0 0 1 0.359375,0.8613 l -0.353515,0.3536 0.353515,0.3535 a 0.50005,0.50005 0 1 1 -0.707031,0.705 l -0.353516,-0.3515 -0.353515,0.3515 a 0.50005,0.50005 0 1 1 -0.707032,-0.705 l 0.353516,-0.3535 -0.353516,-0.3536 a 0.50005,0.50005 0 0 1 0.34961,-0.8593 0.50005,0.50005 0 0 1 0.357422,0.1523 l 0.353515,0.3535 0.353516,-0.3535 a 0.50005,0.50005 0 0 1 0.34375,-0.1523 0.50005,0.50005 0 0 1 0.0039,0 z m 18.511719,0.998 c -4.66858,0 -8.789081,2.288 -11.332031,5.7969 0.191474,0.2863 0.397895,0.582 0.601562,0.875 2.34299,-3.4212 6.275468,-5.6679 10.730469,-5.6679 l 0,1 c -4.252241,0 -7.976259,2.2104 -10.107422,5.541 2.41556,3.3575 5.517585,7.0288 8.765625,10.459 l 2.683594,0 c 3.820457,-4.0348 7.458261,-8.421 9.990234,-12.2071 -2.54295,-3.5089 -6.663451,-5.7969 -11.332031,-5.7969 z m 20.5,4.9962 a 0.50005,0.50005 0 0 1 0.507812,0.5078 l 0,0.5 0.5,0 a 0.50005,0.50005 0 1 1 0,1 l -0.5,0 0,0.5 a 0.50005,0.50005 0 1 1 -1,0 l 0,-0.5 -0.5,0 a 0.50005,0.50005 0 1 1 0,-1 l 0.5,0 0,-0.5 a 0.50005,0.50005 0 0 1 0.492188,-0.5078 z m -32.404297,1.6582 c -1.320723,2.1373 -2.095702,4.6498 -2.095703,7.3496 8.96e-4,1.2674 0.175744,2.5069 0.501953,3.6953 0.535212,0.1955 1.100825,0.3863 1.730469,0.5644 2.571409,0.7272 5.611971,1.2197 8.767578,1.4864 l 0,-0.7461 -2,0 0,-1 2.484375,0 c -2.974534,-3.1442 -5.781998,-6.4587 -8.101563,-9.5899 -0.879852,1.6695 -1.382814,3.5696 -1.382812,5.5899 l -1,0 c -2e-6,-2.3536 0.636357,-4.5576 1.732422,-6.4629 -0.213507,-0.2969 -0.433768,-0.5949 -0.636719,-0.8867 z m 23.808594,0 c -2.509259,3.6077 -5.852254,7.6115 -9.388672,11.3496 l 2.484375,0 0,1 -2,0 0,0.9589 c 3.664893,-0.037 7.207788,-0.3752 10.080078,-1.0664 0.01099,0 0.02029,-0.01 0.03125,-0.01 0.57454,-1.5389 0.887472,-3.1871 0.888672,-4.8847 -10e-7,-2.6992 -0.775521,-5.2106 -2.095703,-7.3477 z m 12.583984,10.3457 a 0.50005,0.50005 0 0 1 0.359375,0.8613 l -0.353515,0.3535 0.353515,0.3535 a 0.50005,0.50005 0 1 1 -0.707031,0.7051 l -0.353516,-0.3535 -0.353515,0.3535 a 0.50005,0.50005 0 1 1 -0.707032,-0.7051 l 0.353516,-0.3535 -0.353516,-0.3535 a 0.50005,0.50005 0 0 1 0.34961,-0.8594 0.50005,0.50005 0 0 1 0.357422,0.1523 l 0.353515,0.3536 0.353516,-0.3536 a 0.50005,0.50005 0 0 1 0.34375,-0.1523 0.50005,0.50005 0 0 1 0.0039,0 z m -37.597656,1.8906 c 1.103181,2.9519 3.186163,5.4863 5.966797,7.1367 1.329767,-1.0854 2.723757,-2.3233 4.142578,-3.6621 l 0,-1.6035 c -3.224835,-0.2729 -6.342583,-0.7823 -9.011719,-1.5371 -0.383623,-0.1085 -0.743911,-0.2205 -1.097656,-0.334 z m 14.677734,0.1054 c -0.310731,0.3208 -0.617289,0.6401 -0.929687,0.9551 0.456485,0.02 0.906326,0.01 1.361328,0.01 l 0,-0.959 -0.431641,0 0,-0.01 z m -3.568359,0.01 0,0.8203 c 0.428184,0.029 0.858695,0.043 1.289062,0.064 -0.288638,-0.2915 -0.570234,-0.5883 -0.857421,-0.8848 l -0.431641,0 z m 1.605469,0 c 0.132446,0.1366 0.261855,0.2805 0.394531,0.416 0.132676,-0.1355 0.262085,-0.2794 0.394531,-0.416 l -0.789062,0 z m 13.019531,1.0215 c -2.839978,0.6129 -6.178754,0.9162 -9.625,0.9512 l 0,1.3906 c 1.418823,1.3388 2.812802,2.5767 4.142578,3.6621 2.417561,-1.4349 4.304781,-3.5387 5.482422,-6.0039 z m -14.625,0.8125 0,0.5488 c 0.178291,-0.173 0.356626,-0.3477 0.535156,-0.5234 -0.178248,-0.01 -0.357323,-0.013 -0.535156,-0.025 z m 1.654297,0.082 c -0.552042,0.5426 -1.103452,1.0996 -1.654297,1.6172 l 0,9.4609 4,0 0,-9.4609 c -0.538018,-0.5056 -1.076025,-1.0506 -1.615235,-1.5801 -0.244115,-0.01 -0.486464,-0.025 -0.730468,-0.035 l 0,0 z m 1.925781,0.059 c 0.14029,0.1376 0.279792,0.2762 0.419922,0.4121 l 0,-0.4121 c -0.140396,-8e-4 -0.279339,0 -0.419922,0 z m 16.919922,2.0254 c 0.822505,0 1.5,0.6775 1.5,1.5 0,0.8225 -0.677495,1.5 -1.5,1.5 -0.822505,0 -1.5,-0.6775 -1.5,-1.5 0,-0.8225 0.677495,-1.5 1.5,-1.5 z m -21.5,0.4336 c -1.165521,1.0632 -2.322892,2.0905 -3.4375,2.9902 l 0.169922,0.09 0,5.4824 3.267578,0 0,-8.5606 0,0 z m 6,0 0,8.5605 3.267578,0 0,-5.4804 0.169922,-0.09 c -1.114614,-0.8997 -2.271977,-1.927 -3.4375,-2.9902 z m -28.5,0.5566 a 0.50005,0.50005 0 0 1 0.507812,0.5078 l 0,0.5 0.5,0 a 0.50005,0.50005 0 1 1 0,1 l -0.5,0 0,0.5 a 0.50005,0.50005 0 1 1 -1,0 l 0,-0.5 -0.5,0 a 0.50005,0.50005 0 1 1 0,-1 l 0.5,0 0,-0.5 a 0.50005,0.50005 0 0 1 0.492188,-0.5078 z m 44,0.012 c -0.282065,0 -0.5,0.2179 -0.5,0.5 0,0.2821 0.217935,0.5 0.5,0.5 0.282065,0 0.5,-0.2179 0.5,-0.5 0,-0.2821 -0.217935,-0.5 -0.5,-0.5 z m -26.5,8.996 0,1 16,0 0,-1 -5,0 -1,0 -4,0 -1,0 -5,0 z m 24.5,0.9922 a 0.50005,0.50005 0 0 1 0.507812,0.5118 l 0,0.5 0.5,0 a 0.50005,0.50005 0 1 1 0,1 l -0.5,0 0,0.5 a 0.50005,0.50005 0 1 1 -1,0 l 0,-0.5 -0.5,0 a 0.50005,0.50005 0 1 1 0,-1 l 0.5,0 0,-0.5 a 0.50005,0.50005 0 0 1 0.492188,-0.5059 l 0,-0.01 z m -24.945313,1.0078 c -0.330551,0 -0.554687,0.2292 -0.554687,0.5 0,0.2707 0.224136,0.5 0.554687,0.5 l 16.890625,0 c 0.330551,0 0.554688,-0.2293 0.554688,-0.5 0,-0.2708 -0.224137,-0.5 -0.554688,-0.5 l -16.890625,0 z m -11.041015,0.012 c 0.822505,0 1.5,0.6775 1.5,1.5 0,0.8225 -0.677495,1.5 -1.5,1.5 -0.822505,0 -1.5,-0.6775 -1.5,-1.5 0,-0.8225 0.677495,-1.5 1.5,-1.5 z m 0,1 c -0.282065,0 -0.5,0.2179 -0.5,0.5 0,0.2821 0.217935,0.5 0.5,0.5 0.282065,0 0.5,-0.2179 0.5,-0.5 0,-0.2821 -0.217935,-0.5 -0.5,-0.5 z m 11.486328,0.9843 0,1 16,0 0,-1 -16,0 z m -0.445313,2 c -0.330551,0 -0.554687,0.2292 -0.554687,0.5 0,0.2707 0.224137,0.5 0.554687,0.5 l 16.890625,0 c 0.330551,0 0.554688,-0.2293 0.554688,-0.5 0,-0.2708 -0.224137,-0.5 -0.554688,-0.5 l -16.890625,0 z m 0.445313,2 0,1 2.449219,0 a 0.50005,0.50005 0 0 1 0.05078,0 l 11,0 a 0.50005,0.50005 0 0 1 0.05078,0 l 2.449219,0 0,-1 -16,0 z m 3,2 0,1 10,0 0,-1 -10,0 z" fill="#AFBFD2" fill-opacity="1" fill-rule="evenodd" stroke="none"/></g></svg>