<svg xmlns="http://www.w3.org/2000/svg" xmlns:xlink="http://www.w3.org/1999/xlink" version="1.1" x="0px" y="0px" viewBox="0 0 512 640" style="enable-background:new 0 0 512 512;" xml:space="preserve"><g><path fill="#0F2136" d="M360.2,210.6c1.2,2.3,3.6,3.7,6.2,3.7h35.8c-5.7,34.7-24.2,66.1-52.4,89.1c-27.3,22.3-61.6,35-94.1,35   c-43.9,0-90.5-23.6-118.7-60.2c-2.4-3.1-6.8-3.6-9.8-1.3c-3.1,2.4-3.6,6.8-1.3,9.8c15.5,20.1,36.1,36.9,59.4,48.5   c22.7,11.2,47,17.2,70.3,17.2c35.7,0,73.2-13.9,103-38.2c31.5-25.7,51.9-61,57.7-100H456c2.6,0,5-1.4,6.2-3.7   c1.2-2.3,1-5.1-0.4-7.2L417,138.5c-1.3-1.9-3.5-3-5.8-3s-4.5,1.1-5.8,3l-44.8,64.9C359.1,205.5,359,208.3,360.2,210.6z    M411.2,154.8l31.5,45.6h-62.9L411.2,154.8z"/><path fill="#0F2136" d="M95,233.8c1.3,1.9,3.5,3,5.8,3s4.5-1.1,5.8-3l44.8-64.9c1.5-2.1,1.6-4.9,0.4-7.2c-1.2-2.3-3.6-3.7-6.2-3.7h-35.8   c5.7-34.7,24.2-66.1,52.4-89.1c27.3-22.3,61.6-35,94.1-35c43.9,0,90.5,23.6,118.7,60.2c2.4,3.1,6.8,3.6,9.8,1.3   c3.1-2.4,3.6-6.8,1.3-9.8c-15.5-20.1-36.1-36.9-59.4-48.5c-22.7-11.2-47-17.2-70.3-17.2c-35.7,0-73.2,13.9-103,38.2   c-31.5,25.7-51.9,61-57.7,100H56c-2.6,0-5,1.4-6.2,3.7c-1.2,2.3-1,5.1,0.4,7.2L95,233.8z M132.3,171.9l-31.5,45.6l-31.5-45.6H132.3   z"/><path fill="#0F2136" d="M193.8,187.6c-0.3,16.5,5.7,31.9,16.8,43.6c6.9,7.2,10.8,16.8,11,26.7c-3.5,0.4-6.2,3.4-6.2,7c0,3.9,3.1,7,7,7h5.8   c0,0,0,0,0,0c0,0,0,0,0,0h61.2c3.9,0,7-3.1,7-7c0-3.8-3.1-6.9-6.9-7c0.2-9.7,4-18.8,11.3-26.4c11-11.8,17-27,17-42.7   c0-16.8-6.6-32.6-18.6-44.4c-11.9-11.8-27.7-18.1-44.4-17.8c-15.9,0.3-31.1,6.8-42.7,18.4C200.6,156.6,194,171.7,193.8,187.6z    M255.2,140.5c12.9-0.2,25.2,4.7,34.4,13.8c9.3,9.1,14.4,21.4,14.4,34.4c0,12.2-4.7,24-13.2,33.1c-9.7,10.2-14.9,22.8-15.1,36h-40   c-0.3-13.4-5.5-26.5-14.9-36.3c-8.6-9-13.2-21-13-33.7C208.2,162.6,229.9,140.9,255.2,140.5z"/><path fill="#AFBFD2" d="M235.5,281.2c-3.9,0-7,3.1-7,7s3.1,7,7,7h41c3.9,0,7-3.1,7-7s-3.1-7-7-7H235.5z"/><path fill="#0F2136" d="M261.6,106.9V84.1c0-3.9-3.1-7-7-7s-7,3.1-7,7v22.8c0,3.9,3.1,7,7,7S261.6,110.8,261.6,106.9z"/><path fill="#0F2136" d="M315.6,136.5l16.8-15.8c2.8-2.7,2.9-7.1,0.3-9.9c-2.7-2.8-7.1-2.9-9.9-0.3l-16.8,15.8c-2.8,2.7-2.9,7.1-0.3,9.9   c1.4,1.5,3.2,2.2,5.1,2.2C312.5,138.4,314.2,137.7,315.6,136.5z"/><path fill="#0F2136" d="M189.5,108.1c-2.7-2.8-7.1-2.8-9.9-0.1c-2.8,2.7-2.8,7.1-0.1,9.9l16.1,16.3c1.4,1.4,3.2,2.1,5,2.1c1.8,0,3.6-0.7,4.9-2   c2.8-2.7,2.8-7.1,0.1-9.9L189.5,108.1z"/><path d="M267.7,412.8c-2.7-2.7-7.2-2.7-9.9,0l-7.5,7.5l-7.5-7.5c-2.7-2.7-7.2-2.7-9.9,0c-2.7,2.7-2.7,7.2,0,9.9l7.5,7.5l-7.5,7.5   c-2.7,2.7-2.7,7.2,0,9.9c1.4,1.4,3.2,2,4.9,2s3.6-0.7,4.9-2l7.5-7.5l7.5,7.5c1.4,1.4,3.2,2,5,2c1.8,0,3.6-0.7,4.9-2   c2.7-2.7,2.7-7.2,0-9.9l-7.5-7.5l7.5-7.5C270.4,420,270.4,415.6,267.7,412.8z"/><path d="M86.9,412.7l-21.9,20l-9.5-10.3c-2.6-2.8-7.1-3-9.9-0.4c-2.8,2.6-3,7-0.4,9.9l14.3,15.5c1.4,1.5,3.3,2.3,5.1,2.3   c1.7,0,3.4-0.6,4.7-1.8l27-24.7c2.9-2.6,3-7,0.4-9.9C94.2,410.3,89.8,410.1,86.9,412.7z"/><path fill="#AFBFD2" d="M441,368.2c-30.1,0-55.2,21.5-60.8,50l-68.9,0.2c-5.5-28.6-30.7-50.3-60.9-50.3c-30.1,0-55.2,21.5-60.8,50h-57.6   c-5.6-28.5-30.8-50-60.8-50c-34.2,0-62,27.8-62,62s27.8,62,62,62c33.5,0,60.9-26.8,62-60.1h55.3c1,33.3,28.4,60.1,62,60.1   c33.5,0,60.8-26.6,62-59.8l66.7-0.2c1.1,33.3,28.4,60,62,60c34.2,0,62-27.8,62-62S475.2,368.2,441,368.2z M71,478.3   c-26.5,0-48-21.5-48-48s21.5-48,48-48s48,21.5,48,48S97.5,478.3,71,478.3z M250.3,478.3c-26.5,0-48-21.5-48-48s21.5-48,48-48   c26.5,0,48,21.5,48,48S276.8,478.3,250.3,478.3z M441,478.3c-26.5,0-48-21.5-48-48s21.5-48,48-48s48,21.5,48,48   S467.5,478.3,441,478.3z"/><path d="M456.9,412.7l-21.9,20l-9.5-10.3c-2.6-2.8-7-3-9.9-0.4c-2.8,2.6-3,7-0.4,9.9l14.3,15.5c1.4,1.5,3.3,2.3,5.1,2.3   c1.7,0,3.4-0.6,4.7-1.8l27-24.7c2.9-2.6,3-7,0.4-9.9C464.2,410.3,459.7,410.1,456.9,412.7z"/></g></svg>