<svg xmlns="http://www.w3.org/2000/svg" xmlns:xlink="http://www.w3.org/1999/xlink" version="1.1" x="0px" y="0px" viewBox="0 0 1000 1250" style="enable-background:new 0 0 1000 1000;" xml:space="preserve"><g><path d="M415.3,485.2v-60.2c18.3-6.3,31.1-24.6,29-45.4c-2-20.1-18.1-36.5-38.2-38.7c-26.1-2.9-48.3,17.6-48.3,43.1   c0,19,12.2,35.1,29.2,41v60.2c0,5.6-4.6,10.2-10.2,10.2H244.6c-5.6,0-10.2,4.6-10.2,10.2v0c0,5.6,4.6,10.2,10.2,10.2h30.1   c5.6,0,10.2,4.6,10.2,10.2v56.3c-19.7,5.9-33.5,25.4-30.5,47.6c2.6,19.5,18.5,34.9,38,37.1c26.1,2.9,48.3-17.6,48.3-43.1   c0-18.3-11.4-34-27.5-40.4V526c0-5.6,4.6-10.2,10.2-10.2h116.8v298c0,24.3-26.3,39.4-47.3,27.3L124.7,686.3   c-9.8-5.6-15.8-16-15.8-27.3V278.4c0-11.3,6-21.7,15.8-27.3l186.7-107.8c12.9,9.7,29.1,15.2,46.7,14.3   c35.6-1.8,64.8-30.3,67.5-65.8c3.2-41.9-30-77-71.2-77c-39.4,0-71.5,32.1-71.5,71.5c0,1.6,0.1,3.1,0.2,4.7L65.2,216.8   c-9.8,5.6-15.8,16-15.8,27.3v449.3c0,11.3,6,21.7,15.8,27.3l387.3,223.6c21,12.1,47.3-3,47.3-27.3V495.4h-74.3   C419.9,495.4,415.3,490.8,415.3,485.2z M325.4,623.8c0,16.5-14.4,29.8-31.3,27.9c-12.8-1.4-23.2-11.8-24.7-24.6   c-1.4-12.4,5.3-23.4,15.4-28.4c3.8-1.9,8-2.9,12.5-2.9c5.9,0,11.4,1.8,15.9,4.9C320.6,605.8,325.4,614.2,325.4,623.8z M387,408.2   c-8.8-5.1-14.5-14.9-13.9-25.9c0.8-14.2,12.5-25.7,26.7-26.4c16.1-0.8,29.4,12.1,29.4,28c0,10.3-5.6,19.3-13.9,24.2   c-4.2,2.4-9,3.8-14.2,3.8C396,412,391.1,410.6,387,408.2z M354.3,42c25.1,0,45.4,21.1,44.2,46.5c-1,21.1-17.3,38.9-38.3,41.6   c-7.6,1-15,0-21.5-2.5c-16.7-6.3-28.6-22.5-28.6-41.4c0-4.1,0.6-8.1,1.6-11.9C316.9,55.7,334,42,354.3,42z"/><path d="M934.8,279.3L547.5,55.7c-21-12.1-47.3,3-47.3,27.3l-0.1,422.6h59.2h40.3c5.6,0,10.2,4.6,10.2,10.2l0,56.3   c0,0,0,0,0,0c-19.7,5.9-33.5,25.4-30.5,47.6c2.6,19.5,18.5,34.9,38,37.1c26.1,2.9,48.3-17.6,48.3-43.1c0-18.3-11.4-34-27.5-40.4   c0,0,0,0,0,0v-57.5c0-5.6,4.6-10.2,10.2-10.2H755c5.6,0,10.2-4.6,10.2-10.2v0c0-5.6-4.6-10.2-10.2-10.2h-4.5   c-5.6,0-10.2-4.6-10.2-10.2v-60.2c0,0,0,0,0,0c18.3-6.3,31.1-24.6,29-45.4c-2-20.1-18.1-36.5-38.2-38.7   c-26.1-2.9-48.3,17.6-48.3,43.1c0,19,12.2,35.1,29.2,41c0,0,0,0,0,0l0,60.2c0,5.6-4.6,10.2-10.2,10.2H559.8v-299   c0-24.3,26.3-39.4,47.3-27.3l268.2,154.9c9.8,5.6,15.8,16,15.8,27.3v380.6c0,11.3-6,21.7-15.8,27.3L688.6,856.7   c-13.6-10.2-30.9-15.7-49.5-14.1c-34.5,3.1-62.1,31.2-64.7,65.8c-3.1,41.8,30.1,76.8,71.3,76.8c39.4,0,71.5-32.1,71.5-71.5   c0-1.6-0.1-3.1-0.2-4.7l217.9-125.8c9.8-5.6,15.8-16,15.8-27.3V306.6C950.6,295.4,944.6,285,934.8,279.3z M698,373.8   c0-15.9,13.3-28.8,29.4-28c14.2,0.7,25.8,12.2,26.7,26.4c0.6,11-5.1,20.7-13.9,25.9c-4.2,2.4-9,3.8-14.2,3.8   c-5.2,0-10-1.4-14.2-3.8C703.6,393.1,698,384.1,698,373.8z M650.4,613.6c0,16.5-14.4,29.8-31.3,27.9c-12.8-1.4-23.2-11.8-24.7-24.6   c-1.4-12.4,5.3-23.4,15.4-28.4c3.8-1.9,8-2.9,12.5-2.9c5.9,0,11.4,1.8,15.9,4.9C645.5,595.6,650.4,604,650.4,613.6z M688.3,925.6   c-5.7,20.4-25.7,34.9-48.5,32c-20-2.6-35.9-18.8-38.1-38.8c-3-26.7,17.9-49.3,43.9-49.3c5.5,0,10.8,1,15.7,2.9   c16.7,6.3,28.6,22.5,28.6,41.4C689.9,917.9,689.3,921.8,688.3,925.6z"/></g><text x="0" y="1015" fill="#000000" font-size="5px" font-weight="bold" font-family="'Helvetica Neue', Helvetica, Arial-Unicode, Arial, Sans-serif">Created by leo-graph.com</text><text x="0" y="1020" fill="#000000" font-size="5px" font-weight="bold" font-family="'Helvetica Neue', Helvetica, Arial-Unicode, Arial, Sans-serif">from the Noun Project</text></svg>