<svg xmlns="http://www.w3.org/2000/svg" xmlns:xlink="http://www.w3.org/1999/xlink" version="1.1" x="0px" y="0px" viewBox="0 0 64 80" style="enable-background:new 0 0 64 64;" xml:space="preserve"><g><path fill="#AFBFD2" d="M50.4628906,45.8486328c0.2304688,0.0537109,0.4638672,0.0810547,0.6953125,0.0810547   c0.5498047,0,1.0908203-0.1523438,1.5703125-0.4482422c0.6826172-0.421875,1.1591797-1.0830078,1.34375-1.8632813   c0.3798828-1.609375-0.6201172-3.2285156-2.2304688-3.609375c-0.7793083-0.1806641-1.5849609-0.0527344-2.2666016,0.3681641   c-0.6816406,0.421875-1.1582031,1.0830078-1.3427734,1.8632813c-0.1835938,0.7792969-0.0537109,1.5839844,0.3681641,2.265625   C49.0214844,45.1884766,49.6835938,45.6650391,50.4628906,45.8486328z M50.1796875,42.7001953c0-0.0009766,0-0.0009766,0-0.0009766   c0.0615234-0.2597656,0.2197266-0.4804688,0.4472656-0.6210938c0.1601563-0.0986328,0.3408203-0.1494141,0.5234375-0.1494141   c0.0771484,0,0.1552734,0.0087891,0.2314453,0.0273438c0.5371094,0.1259766,0.8701172,0.6660156,0.7431641,1.203125   c-0.0605469,0.2597656-0.2197266,0.4804688-0.4472656,0.6201172c-0.2265625,0.1396484-0.4941406,0.1855469-0.7558594,0.1220703   c-0.2597656-0.0605469-0.4794922-0.2197266-0.6201172-0.4462891   C50.1611328,43.2275391,50.1181641,42.9589844,50.1796875,42.7001953z"/><path fill="#AFBFD2" d="M60.5062866,59.8881226l1.4605103-6.1859741c0.0605469-0.2578125,0.0166016-0.5292969-0.1230469-0.7548828   l-5.1298828-8.3002319c0.9847412-3.725769,0.5396729-7.644043-1.2685547-11.0493774l-0.9726563-1.8427734   c-0.1347656-0.2558594-0.3740234-0.4404297-0.6552734-0.5068359c-0.2822266-0.0654297-0.5771484-0.0078125-0.8115234,0.1611328   l-1.6923828,1.2119141c-3.0267334,2.1536255-5.1863403,6.217041-6.0739136,9.4614258l-8.130188,5.0249023   c-0.2255859,0.1396484-0.3867188,0.3623047-0.4482422,0.6210938l-1.4942627,6.3291626   C34.4598389,54.0335693,33.7370605,54.0179443,33,54.0101929V30.034729l0.1357422-2.065979   C33.1481323,27.7783813,33.0890503,27.6002808,33,27.4362183v-8.7706909l23.3847656-9.7426758   c0.4042969-0.1679688,0.6523438-0.5810547,0.6103516-1.0166016c-0.0410156-0.4365234-0.3613281-0.7949219-0.7900391-0.8847656   L33,2.1677246V2h-2v25.0523071l-10.4460449,1.4542847c0.2598267-0.6326294,0.3762207-1.3328247,0.2751465-2.057373   c-0.1474609-1.0585938-0.6982422-1.9960938-1.5498047-2.640625c-0.8535156-0.6435547-1.9033203-0.9189453-2.9628906-0.7695313   c-1.0585938,0.1474609-1.9960938,0.6982422-2.640625,1.5498047c-0.6435547,0.8525391-0.9169922,1.9052734-0.7695313,2.9628906   c0.0706787,0.5074463,0.2355347,0.9783936,0.472168,1.4003296L3.3613281,25.0673828   c-0.3085938-0.1181641-0.6542969-0.078125-0.9267578,0.1074219C2.1630859,25.3613281,2,25.6699219,2,26l0.0009766,2.9306641   c0,0.3574219,0.1914063,0.6884766,0.5009766,0.8662109l9.4560547,5.4482422l0.7508545,5.3938599l0.2185669,15.6229248   c-7.7107544,2.0459595-11.3070679,4.7664185-11.541687,4.9490356l1.2285156,1.578125C2.7011719,62.7216797,11.5791016,56,32,56   c20.3359375,0,29.2998047,6.7226563,29.3857422,6.7890625l1.2285156-1.578125   C62.5163574,61.1347656,61.8284302,60.6148071,60.5062866,59.8881226z M33.0878906,4.2294922l19.5488281,4.0888672   l-19.6269531,8.1767578L33.0878906,4.2294922z M59.1689453,56.8457031l-1.3896484-3.7265625   c-0.0712891-0.1914063-0.1992188-0.3554688-0.3662109-0.4716797l-2.8964844-2.010376   c0.5189819-0.9676514,1.0297241-2.3152466,1.4174805-3.4487915l3.9907227,6.4581909L59.1689453,56.8457031z M52.4755859,34.2480469   l0.7626953-0.5458984l0.4394531,0.8310547c1.5927734,3,1.9746094,6.4560547,1.0751953,9.7324219   C54.75,44.2744141,54.7226563,44.375,54.7207031,44.3837891c-0.0172119,0.0581055-0.0324097,0.1130371-0.0403442,0.1467896   c-0.0003662,0.0012817-0.0012817,0.0023193-0.0016479,0.0036011c-0.4023438,1.3984375-1.1621094,3.6591797-1.8232422,4.9619141   l-0.1621094-0.0390625c-0.0390625-0.0090942-0.0778198-0.0020142-0.1170654-0.0062866l-0.9483643-0.2241821   c-0.3144531-0.0722656-0.6425781,0.0078125-0.8847656,0.2177734C50.5,49.6552734,50.3740234,49.9697266,50.4023438,50.2900391   l0.1591797,1.7675781l-3.1386719-0.7412109l0.9326172-1.5097656c0.1689453-0.2734375,0.1962891-0.6113281,0.0732422-0.9082031   s-0.3808594-0.5166016-0.6933594-0.5908203l-1.2236328-0.2890625c-0.0009766-0.0712891,0-0.1445313,0.0019531-0.21875   c0.0097656-1.4589844,0.2832031-3.4248047,0.5273438-4.7314453l0.0240479-0.1016846   C47.7850952,40.0304565,49.7369385,36.1978149,52.4755859,34.2480469z M38.5126953,48.5908203l6.2431641-3.8583984   c-0.0068359,0.0519409-0.0122681,0.1049194-0.0189209,0.1571045c-0.0197144,0.1550293-0.0383301,0.3095703-0.0560913,0.4657593   c-0.0114136,0.1000977-0.0222168,0.1988525-0.0327148,0.2988892c-0.0152588,0.145813-0.0289307,0.289917-0.0419922,0.4345703   c-0.0092773,0.102478-0.0186157,0.2041016-0.0266724,0.305481c-0.0119019,0.1501465-0.0210571,0.2963867-0.0299072,0.4428101   c-0.0053711,0.0886841-0.0119019,0.1785278-0.0160522,0.2654419c-0.0109253,0.2290649-0.0183716,0.4525146-0.0198364,0.6651001   c-0.0048828,0.1943359-0.0029297,0.3857422,0.0048828,0.5771484l-3.3125,0.4755859   c-0.2011719,0.0292969-0.3896484,0.1191406-0.5390625,0.2587891l-2.9091797,2.7109375L38.5126953,48.5908203z    M41.8007813,50.7558594l3.9691772-0.5696411l-0.777771,1.2590942c-0.1689453,0.2734375-0.1962891,0.6113281-0.0732422,0.9082031   s0.3808594,0.5166016,0.6943359,0.5908203l5.8388672,1.3789063c0.0761719,0.0175781,0.1533203,0.0263672,0.2294922,0.0263672   c0.2382813,0,0.4716797-0.0849609,0.6552734-0.2441406c0.2421875-0.2109375,0.3691406-0.5253906,0.3408203-0.8457031   l-0.140625-1.5614014l3.4785156,2.4129639l1.6378784,4.3922729c-3.9383545-1.6958008-10.3309937-3.6689453-19.5548096-4.2976685   L41.8007813,50.7558594z M28.6487427,54.0633545l-4.0552368-15.0793457l-0.704834-5.0679932L31,31.411499v22.5986938   C30.1992188,54.0186157,29.4140625,54.0356445,28.6487427,54.0633545z M22.8759766,40.2988281l3.6640625,13.625   l-0.2470703,0.0341797l-5.9814453-8.7050781c-0.2148438-0.3125-0.5898438-0.4814453-0.9619141-0.4238281   c-0.375,0.0517578-0.6884766,0.3115234-0.8095703,0.6708984l-3.3759766,10.0078125l-0.2460938,0.0341797l-0.1972656-14.1074219   L22.8759766,40.2988281z M18.9814453,35.4462891l-0.7919922,1.0478516l-1.0478516-0.7910156l0.1259766-4.7197266   l0.3027344-0.0419922L18.9814453,35.4462891z M15.2714844,25.7949219c0.3222656-0.4257813,0.7910061-0.7011719,1.3203125-0.7753906   C16.6855469,25.0068359,16.7792969,25,16.8720703,25c0.4316406,0,0.8505859,0.1396484,1.2011719,0.4042969   c0.4257813,0.3222656,0.7011719,0.7910156,0.7753906,1.3203125c0.1523438,1.0916748-0.6132202,2.104187-1.7047729,2.2567749   l-0.0006104,0.000061c-1.0926514,0.1522217-2.1032104-0.6124268-2.2565308-1.7050781   C14.8134766,26.7470703,14.9501953,26.2207031,15.2714844,25.7949219z M4.0009766,28.3525391L4,27.4609375l9.9482422,3.8574219   c0.1582031,0.0625,0.3300781,0.0830078,0.4990234,0.0576172l0.8121338-0.1130371l-0.1314697,4.901123   c-0.0078125,0.3222656,0.1396484,0.6298828,0.3974609,0.8242188l2.2558594,1.7041016   c0.1806641,0.1367188,0.3916016,0.2021484,0.6015625,0.2021484c0.3027344,0,0.6015625-0.1367188,0.7988281-0.3964844   l1.7060547-2.2558594c0.1943359-0.2578125,0.2529297-0.59375,0.15625-0.9023438l-1.4654541-4.6781616L31,29.0717773v0.2197876   l-8.546875,3.0092163c-0.4482422,0.1582031-0.7236328,0.6103516-0.6582031,1.0810547l0.6894531,4.9521484l-3.9619141,0.5517578   l-3.9619141,0.5515747l-0.6894531-4.9519653c-0.0419922-0.3056641-0.2236328-0.5751953-0.4912109-0.7285156L4.0009766,28.3525391z    M19.7958984,48.0341797l4.3361206,6.3115845c-2.475647,0.2230225-4.7322998,0.5418701-6.7770386,0.9233398L19.7958984,48.0341797z   "/></g></svg>