<svg xmlns="http://www.w3.org/2000/svg" xmlns:xlink="http://www.w3.org/1999/xlink" xml:space="preserve" version="1.0" style="shape-rendering:geometricPrecision;text-rendering:geometricPrecision;image-rendering:optimizeQuality;" viewBox="0 0 10000 12500" x="0px" y="0px" fill-rule="evenodd" clip-rule="evenodd"><defs><style type="text/css">
   
    .fil0 {fill:black;fill-rule:nonzero}
   
  </style></defs><g><path fill="#AFBFD2" d="M2600 4397c-562,0 -1017,455 -1017,1017 0,562 455,1016 1017,1016 121,0 238,-21 352,-62 26,-10 55,4 64,29 100,299 417,501 727,501 265,0 511,-134 655,-357 19,-32 65,-30 84,0 143,224 389,357 654,357 17,0 31,8 40,19 193,237 481,373 787,373 342,0 658,-170 848,-455 15,-23 46,-29 69,-14 668,399 1537,-82 1537,-874 0,-711 -724,-1215 -1398,-943 -25,10 -54,-2 -65,-27 -69,-253 -188,-448 -405,-601 -22,-16 -27,-47 -12,-69 460,-664 -8,-1597 -835,-1597 -615,0 -1057,516 -1012,1117 4,40 -39,68 -73,49 -149,-80 -314,-121 -482,-121 -453,0 -853,299 -978,735 -7,27 -35,42 -61,34 -183,-81 -289,-127 -496,-127zm0 -100c166,0 330,37 480,108 155,-448 579,-750 1055,-750 155,0 309,32 451,95 -10,-627 488,-1140 1116,-1140 884,0 1408,981 944,1713 186,145 322,343 388,569 729,-254 1483,297 1483,1055 0,849 -915,1382 -1650,981 -210,291 -545,462 -904,462 -327,0 -637,-143 -849,-392 -266,-7 -513,-133 -674,-344 -167,217 -424,344 -697,344 -347,0 -661,-204 -802,-521 -110,35 -225,53 -341,53 -617,0 -1117,-500 -1117,-1116 0,-617 500,-1117 1117,-1117z"/></g></svg>