<svg xmlns="http://www.w3.org/2000/svg" xmlns:xlink="http://www.w3.org/1999/xlink" version="1.1" x="0px" y="0px" viewBox="0 0 96 120" enable-background="new 0 0 96 96" xml:space="preserve"><polygon points="51.858,28.934 51.866,28.95 51.86,28.933 "/><path d="M51.461,36.512c-0.759,0.579-1.155,0.813-1.372,0.914c-0.195,0.149-0.564,0.412-1.017,0.669l0.445,0.48  c0.988,0.081,1.72,0.323,2.281,0.634c0.312-0.122,0.625-0.246,0.934-0.364c-0.002-0.009-0.006-0.014-0.008-0.023  c-0.09-0.39-0.261-1.102-1.104-2.449C51.568,36.419,51.521,36.466,51.461,36.512z"/><path d="M51.302,27.551c0.864-0.443,1.206-1.507,0.762-2.372c-0.303-0.59-0.905-0.958-1.569-0.958c-0.28,0-0.55,0.066-0.803,0.195  c-0.418,0.215-0.729,0.58-0.873,1.028c-0.144,0.448-0.105,0.925,0.11,1.344C49.36,27.628,50.452,27.988,51.302,27.551z"/><polygon points="42.965,32.46 42.974,32.479 42.968,32.459 "/><path d="M43.046,32.708l-0.005-0.015l-0.089,0.255c-0.001,0.003-0.016,0.05-0.038,0.127c-0.165,0.592-0.753,3.21,0.879,5.701  c1.084,1.655,1.348,2.592,1.475,3.125c0.053-0.004,0.127-0.016,0.195-0.026c0.362-0.053,0.905-0.182,1.445-0.312  c1.836-0.441,3.104-0.691,3.854-0.33c0.171,0.083,0.325,0.187,0.441,0.34c0.2,0.263,0.7,0.977,1.301,1.838  c0.626,0.896,1.444,2.066,2.104,2.977c-0.561-0.86-2.326-3.625-2.624-4.762c-0.076-0.291-0.225-0.524-0.411-0.718  c-0.503-0.527-1.314-0.737-1.985-0.816c-0.162-0.019-0.317-0.033-0.455-0.04l-0.307-0.014l-1.232-1.33  c-0.247,0.062-0.495,0.106-0.738,0.106c-0.204,0-0.404-0.025-0.595-0.083c-1.277-0.382-2.93-1.364-3-1.406l0.384-0.644l0.384-0.644  c0.016,0.009,1.563,0.928,2.662,1.257c0.136,0.041,0.321,0.025,0.532-0.028c0.624-0.16,1.481-0.661,2.022-1.088l0.247-0.132  c0.088-0.045,0.382-0.212,1.056-0.727c0.169-0.129,0.272-0.263,0.263-0.341c-0.014-0.114-0.201-0.345-0.573-0.51  c-0.082,0.107-0.185,0.331-0.239,0.448c-0.147,0.321-0.287,0.624-0.609,0.789c-0.319,0.164-1.781,0.573-2.624,0.801l-0.254,0.069  l-0.115,0.031l-1.914-1.547l-0.121-0.098l0.216-0.267l0.256-0.316l0.146-0.18l-0.318-0.383c-0.481-0.588-1.303-0.967-1.311-0.971  L43.046,32.708z"/><path d="M29.148,52.049c3.54-3.127,7.575-5.731,11.721-7.918c-4.28-0.107-12.722,0.073-20.038,2.587  C23.732,47.506,28.196,49.167,29.148,52.049z"/><path d="M42.408,31.079c0.864-0.443,1.207-1.508,0.763-2.373c-0.303-0.59-0.904-0.957-1.569-0.957c-0.28,0-0.55,0.065-0.802,0.195  c-0.419,0.215-0.729,0.58-0.873,1.028c-0.144,0.448-0.105,0.925,0.11,1.344C40.468,31.156,41.56,31.516,42.408,31.079z"/><path d="M51.938,29.181l-0.004-0.014l-0.089,0.255c-0.001,0.003-0.016,0.05-0.038,0.127c-0.165,0.592-0.753,3.211,0.879,5.702  c1.047,1.597,1.327,2.522,1.459,3.064c0.004,0.02,0.011,0.042,0.015,0.061c0.335-0.023,0.999-0.183,1.642-0.338  c2.034-0.489,3.378-0.749,4.083-0.191c0.076,0.06,0.151,0.122,0.212,0.202c0.2,0.262,0.699,0.976,1.3,1.836  c0.628,0.898,1.449,2.073,2.11,2.984c-0.556-0.853-2.33-3.628-2.627-4.768c-0.052-0.198-0.142-0.363-0.248-0.515  c-0.397-0.569-1.116-0.843-1.784-0.966c-0.295-0.054-0.58-0.082-0.819-0.093l-0.306-0.014l-1.232-1.329  c-0.247,0.061-0.496,0.105-0.739,0.105c-0.204,0-0.404-0.025-0.595-0.083c-1.277-0.382-2.929-1.364-2.999-1.405l0.384-0.644  l0.384-0.644c0.015,0.009,1.563,0.928,2.661,1.257c0.136,0.039,0.32,0.023,0.53-0.03c0.624-0.16,1.482-0.658,2.023-1.085  l0.249-0.134c0.088-0.045,0.383-0.213,1.056-0.726c0.168-0.129,0.272-0.264,0.262-0.342c-0.014-0.114-0.201-0.344-0.573-0.51  c-0.081,0.107-0.185,0.331-0.239,0.449c-0.147,0.32-0.287,0.623-0.608,0.788c-0.321,0.165-1.782,0.573-2.624,0.801l-0.255,0.069  l-0.115,0.031l-1.915-1.547l-0.121-0.097l0.216-0.267l0.256-0.316l0.146-0.18l-0.318-0.383c-0.481-0.588-1.303-0.967-1.311-0.971  L51.938,29.181z"/><polygon points="23.112,56.894 27.766,65.958 30.153,62.752 27.108,56.823 "/><path d="M57.966,34.568l0.445,0.48c1.178,0.097,1.997,0.418,2.585,0.821c0.255-0.089,0.509-0.178,0.756-0.264  c-0.099-0.425-0.292-1.202-1.285-2.718c-0.038,0.032-0.07,0.065-0.112,0.097c-0.76,0.58-1.157,0.814-1.374,0.914  C58.786,34.047,58.417,34.31,57.966,34.568z"/><polygon points="60.901,25.765 60.896,25.747 60.893,25.749 "/><path d="M60.335,24.366c0.419-0.215,0.729-0.58,0.873-1.028s0.105-0.925-0.11-1.344c-0.303-0.591-0.905-0.958-1.569-0.958  c-0.281,0-0.551,0.066-0.803,0.195c-0.418,0.214-0.729,0.58-0.873,1.027c-0.144,0.448-0.105,0.926,0.11,1.345  C58.396,24.444,59.488,24.803,60.335,24.366z"/><path d="M69.475,34.16c-0.483-0.481-1.229-0.684-1.869-0.768c-0.194-0.025-0.381-0.044-0.543-0.052l-0.306-0.014l-1.232-1.329  c-0.248,0.062-0.496,0.106-0.74,0.106c-0.204,0-0.403-0.025-0.595-0.083c-1.277-0.383-2.93-1.364-3-1.406l0.384-0.644l0.384-0.644  c0.015,0.009,1.563,0.928,2.662,1.257c0.137,0.04,0.321,0.024,0.531-0.03c0.625-0.16,1.48-0.66,2.022-1.087l0.248-0.133  c0.088-0.045,0.382-0.212,1.056-0.727c0.169-0.129,0.272-0.263,0.262-0.341c-0.014-0.114-0.201-0.344-0.573-0.51  c-0.081,0.107-0.184,0.331-0.238,0.448c-0.148,0.32-0.288,0.623-0.609,0.789c-0.32,0.165-1.781,0.573-2.624,0.802l-0.254,0.069  l-0.116,0.031l-1.914-1.548l-0.121-0.098l0.216-0.267l0.256-0.316l0.146-0.18l-0.318-0.383c-0.481-0.588-1.303-0.968-1.312-0.972  l-0.307-0.138l-0.004-0.013l-0.089,0.254c-0.001,0.003-0.016,0.05-0.038,0.127c-0.165,0.591-0.754,3.209,0.878,5.701  c1.032,1.576,1.319,2.497,1.454,3.042c0.006,0.027,0.015,0.059,0.021,0.084c0.334-0.023,0.998-0.183,1.642-0.338  c1.846-0.444,3.12-0.695,3.868-0.323c0.165,0.082,0.313,0.184,0.426,0.333c0.2,0.263,0.7,0.977,1.301,1.837  c0.627,0.896,1.445,2.068,2.105,2.979c-0.56-0.858-2.327-3.625-2.624-4.763C69.833,34.606,69.677,34.36,69.475,34.16z"/><path d="M67.997,35.849c-0.463-0.104-1.979,0.261-2.809,0.461c-0.813,0.196-1.515,0.362-1.992,0.378  c-0.362,0.127-0.733,0.258-1.116,0.392c0.116,0.228,0.2,0.449,0.25,0.641c0.176,0.674,1.299,2.562,2.173,3.928  c0.666-0.362,1.208-0.477,1.679-0.359c0.356,0.089,0.643,0.313,0.806,0.629c0.252,0.49,0.391,0.76-2.542,3.329l-0.557,0.487  l-0.495-0.55c-0.549-0.61-2.035-2.735-3.228-4.442c-0.532-0.762-0.982-1.406-1.205-1.708c-0.462-0.105-1.979,0.261-2.809,0.461  c-0.747,0.18-1.394,0.331-1.865,0.367c-0.417,0.157-0.833,0.313-1.257,0.476c0.206,0.324,0.336,0.643,0.406,0.909  c0.176,0.674,1.3,2.561,2.174,3.928c0.666-0.363,1.209-0.477,1.679-0.359c0.357,0.089,0.644,0.313,0.807,0.63  c0.251,0.491,0.389,0.76-2.543,3.328l-0.557,0.487l-0.495-0.549c-0.549-0.609-2.034-2.734-3.227-4.44  c-0.533-0.763-0.983-1.407-1.206-1.709c-0.465-0.106-1.979,0.261-2.81,0.461c-0.496,0.119-0.943,0.224-1.331,0.295  C39.506,46.267,33,50.077,27.967,55.21l3.996,7.784c13.139-2.03,25.56-10.775,33.816-16.588c2.76-1.943,4.972-3.497,6.647-4.412  c-0.551-0.614-2.032-2.733-3.223-4.437C68.67,36.795,68.22,36.151,67.997,35.849z M48.896,52.761  c-0.347,1.081-1.095,1.961-2.104,2.479c-0.607,0.312-1.259,0.47-1.936,0.47c-1.603,0-3.053-0.885-3.784-2.31  c-1.07-2.084-0.245-4.65,1.839-5.72c0.608-0.312,1.259-0.47,1.937-0.47c1.603,0,3.053,0.885,3.784,2.31  C49.149,50.53,49.244,51.681,48.896,52.761z"/><path d="M71.365,34.535c0.176,0.674,1.3,2.562,2.173,3.928c0.667-0.362,1.211-0.476,1.68-0.359c0.356,0.089,0.643,0.313,0.806,0.629  c0.163,0.319,0.272,0.548-0.466,1.367c4.541-3.13,10.041-8.31,12.744-10.945c-3.984,0.708-12.216,2.322-17.402,4.383  C71.142,33.892,71.29,34.245,71.365,34.535z"/><path d="M34.704,73.743c6.307-4.479,11.374-11.233,13.782-14.774c-4.194,2.094-8.662,3.855-13.266,4.909  C37.007,66.331,35.755,70.925,34.704,73.743z"/><polygon points="25.887,67.423 25.822,67.296 25.3,66.282 24.714,65.14 24.714,65.14 24.292,64.319 23.608,62.984 23.014,61.828   23.014,61.828 22.552,60.928 21.999,59.85 21.445,58.771 20.82,57.554 20.207,56.359 18.556,57.206 19.109,58.285 16.885,59.426   17.439,60.504 13.936,62.303 14.489,63.381 10.783,65.284 11.336,66.362 7.664,68.247 8.257,69.403 5.158,70.994 5.843,72.328   8.942,70.737 9.536,71.893 13.208,70.008 13.761,71.086 17.468,69.183 18.021,70.262 21.524,68.463 22.079,69.542 24.302,68.4   24.855,69.479 26.506,68.631 25.953,67.552 "/><text x="0" y="111" fill="#000000" font-size="5px" font-weight="bold" font-family="'Helvetica Neue', Helvetica, Arial-Unicode, Arial, Sans-serif">Created by glyph.faisalovers</text><text x="0" y="116" fill="#000000" font-size="5px" font-weight="bold" font-family="'Helvetica Neue', Helvetica, Arial-Unicode, Arial, Sans-serif">from the Noun Project</text></svg>