<svg xmlns="http://www.w3.org/2000/svg" xmlns:xlink="http://www.w3.org/1999/xlink" version="1.1" x="0px" y="0px" viewBox="0 0 512 640" style="enable-background:new 0 0 512 512;" xml:space="preserve"><g><g><g><g><path d="M501.673,360.917c0-2.481-0.619-4.337-1.855-5.58c-1.17-1.237-3.033-1.855-5.446-1.855      c-1.855,0-3.711,0.618-4.948,1.855c-1.17,1.243-2.413,3.099-2.413,5.58c0,1.855,1.243,3.644,2.413,4.888      c1.237,1.237,3.093,2.474,4.948,2.474c2.413,0,4.276-1.236,5.446-2.474C501.054,364.561,501.673,362.772,501.673,360.917z       M507.186,347.975c3.025,3.644,4.814,7.98,4.814,12.942c0,4.888-1.789,9.224-4.814,12.323h-0.626      c-3.099,3.645-7.361,5.507-12.188,5.507c-4.948,0-9.224-2.406-12.25-5.507c-3.644-3.1-5.506-7.436-5.506-12.323      c0-4.962,2.48-9.917,5.506-12.942c3.026-3.099,7.302-4.961,12.25-4.961C499.198,343.014,503.461,344.876,507.186,347.975z"/><path d="M458.92,486.008c3.1,0,4.887,1.855,4.887,4.955s-1.787,5.507-4.887,5.507h-26.847c-3.031,0-5.512-2.407-5.512-5.507      s2.48-4.955,5.512-4.955H458.92z"/><path d="M441.23,499.569c2.476,0,4.882,2.48,4.882,5.579c0,2.475-2.406,4.888-4.882,4.888h-57.967      c-2.413,0-4.894-2.413-4.894-4.888c0-3.099,2.48-5.579,4.894-5.579H441.23z"/><rect x="71.39" y="148.875" width="358.896" height="1.17"/><rect x="71.39" y="159.336" width="358.896" height="1.237"/><path d="M412.523,344.257c3.093,0,5.499,1.855,5.499,4.955c0,3.031-2.406,4.888-5.499,4.888h-14.603      c-3.093,0-5.5-1.856-5.5-4.888c0-3.1,2.407-4.955,5.5-4.955H412.523z"/><path d="M418.022,369.522c0,3.1-2.406,5.573-5.499,5.573h-14.603c-3.093,0-5.5-2.474-5.5-5.573s2.407-4.962,5.5-4.962h14.603      C415.616,364.561,418.022,366.423,418.022,369.522z"/><path d="M412.523,384.945c3.093,0,5.499,1.855,5.499,4.955c0,3.025-2.406,5.506-5.499,5.506h-14.603      c-3.093,0-5.5-2.48-5.5-5.506c0-3.1,2.407-4.955,5.5-4.955H412.523z"/><path d="M412.523,399.677l-20.103-0.068L412.523,399.677z"/><path d="M425.393,48.357c2.406,1.237,3.031,4.888,1.787,7.369c-0.618,0.618-1.17,1.237-1.787,1.855l-18.934,11.087      c-2.475,1.237-5.507,0-7.368-2.407c-1.17-2.481-0.619-5.58,1.861-6.817l11.571-6.75l-11.571-6.192      c-2.48-1.244-3.031-4.962-1.861-7.369c1.861-2.481,4.894-3.099,7.368-1.855L425.393,48.357z"/><path d="M378.988,349.212c0,3.031-2.475,4.888-4.881,4.888h-14.67c-3.025,0-5.507-1.856-5.507-4.888      c0-3.1,2.481-4.955,5.507-4.955h14.67C376.514,344.257,378.988,346.112,378.988,349.212z"/><path d="M378.988,369.522c0,3.1-2.475,5.573-4.881,5.573h-14.67c-3.025,0-5.507-2.474-5.507-5.573s2.481-4.962,5.507-4.962      h14.67C376.514,364.561,378.988,366.423,378.988,369.522z"/><path d="M374.107,384.945c2.406,0,4.881,1.855,4.881,4.955c0,3.025-2.475,5.506-4.881,5.506h-14.67      c-3.025,0-5.507-2.48-5.507-5.506c0-3.1,2.481-4.955,5.507-4.955H374.107z"/><path d="M340.505,349.212c0,3.031-2.406,4.888-5.432,4.888h-14.671c-2.474,0-4.888-1.856-4.888-4.888      c0-3.1,2.414-4.955,4.888-4.955h14.671C338.099,344.257,340.505,346.112,340.505,349.212z"/><path d="M340.505,369.522c0,3.1-2.406,5.573-5.432,5.573h-14.671c-2.474,0-4.888-2.474-4.888-5.573s2.414-4.962,4.888-4.962      h14.671C338.099,364.561,340.505,366.423,340.505,369.522z"/><path d="M335.073,384.945c3.025,0,5.432,1.855,5.432,4.955c0,3.025-2.406,5.506-5.432,5.506h-14.671      c-2.474,0-4.888-2.48-4.888-5.506c0-3.1,2.414-4.955,4.888-4.955H335.073z"/><path d="M302.089,349.212c0,3.031-2.474,4.888-5.507,4.888h-14.663c-3.025,0-5.438-1.856-5.438-4.888      c0-3.1,2.413-4.955,5.438-4.955h14.663C299.615,344.257,302.089,346.112,302.089,349.212z"/><path d="M302.089,369.522c0,3.1-2.474,5.573-5.507,5.573h-14.663c-3.025,0-5.438-2.474-5.438-5.573s2.413-4.962,5.438-4.962      h14.663C299.615,364.561,302.089,366.423,302.089,369.522z"/><path d="M296.582,384.945c3.033,0,5.507,1.855,5.507,4.955c0,3.025-2.474,5.506-5.507,5.506h-14.663      c-3.025,0-5.438-2.48-5.438-5.506c0-3.1,2.413-4.955,5.438-4.955H296.582z"/><path d="M294.175,417.573c3.032,0,5.44,2.48,5.44,5.58s-2.408,4.955-5.44,4.955h-86.678c-3.028,0-5.507-1.855-5.507-4.955      s2.479-5.58,5.507-5.58H294.175z"/><path d="M263.058,369.522c0,3.1-2.481,5.573-4.888,5.573h-14.667c-3.096,0-5.507-2.474-5.507-5.573s2.411-4.962,5.507-4.962      h14.667C260.576,364.561,263.058,366.423,263.058,369.522z"/><path d="M261.816,384.945c3.029,0,5.508,1.855,5.508,4.955c0,3.025-2.479,5.506-5.508,5.506H127.502      c-3.032,0-5.439-2.48-5.439-5.506c0-3.1,2.407-4.955,5.439-4.955H261.816z"/><path d="M263.058,349.212c0,3.031-2.481,4.888-4.888,4.888h-14.667c-3.096,0-5.507-1.856-5.507-4.888      c0-3.1,2.411-4.955,5.507-4.955h14.667C260.576,344.257,263.058,346.112,263.058,349.212z"/><path d="M224.57,349.212c0,3.031-2.478,4.888-5.507,4.888h-14.595c-2.479,0-4.889-1.856-4.889-4.888      c0-3.1,2.41-4.955,4.889-4.955h14.595C222.093,344.257,224.57,346.112,224.57,349.212z"/><path d="M219.063,364.561c3.029,0,5.507,1.862,5.507,4.962s-2.478,5.573-5.507,5.573h-14.595c-2.479,0-4.889-2.474-4.889-5.573      s2.41-4.962,4.889-4.962H219.063z"/><path d="M264.228,196.926l-39.657,21.547c-2.478,1.245-5.507,0-6.677-2.474c-1.239-2.413-0.621-5.513,2.411-6.75l39.035-21.548      c3.096-1.236,6.124,0,7.364,2.407C267.874,192.59,266.704,195.688,264.228,196.926z"/><path d="M209.289,236.996l39.102-21.622c3.032-1.17,6.061,0,7.298,2.48c1.241,2.481,0,5.573-2.41,6.817l-39.653,21.548      c-2.478,1.237-5.506,0-6.746-2.48C205.639,241.332,206.879,238.232,209.289,236.996z"/><path d="M186.087,349.212c0,3.031-2.41,4.888-5.438,4.888h-14.663c-3.029,0-4.889-1.856-4.889-4.888      c0-3.1,1.859-4.955,4.889-4.955h14.663C183.677,344.257,186.087,346.112,186.087,349.212z"/><path d="M180.648,364.561c3.028,0,5.438,1.862,5.438,4.962s-2.41,5.573-5.438,5.573h-14.663c-3.029,0-4.889-2.474-4.889-5.573      s1.859-4.962,4.889-4.962H180.648z"/><path d="M172.112,15.037c2.408-0.618,5.437,0.619,6.058,3.718c0.619,3.1-0.621,5.574-3.649,6.199l-9.154,2.475      c-3.031,1.169-5.51-0.619-6.128-3.718c-1.17-2.475,0.618-5.574,3.718-6.192L172.112,15.037z"/><path d="M153.181,34.796c-1.24-2.481,0.618-5.58,3.647-6.199c2.41-0.619,5.507,0.619,6.128,3.718l2.41,8.673      c0.619,3.033-1.24,6.132-3.65,6.75c-3.029,0.619-5.506-1.237-6.128-3.718L153.181,34.796z"/><path d="M158.068,14.419c1.17,3.099-0.622,5.573-3.718,6.192c-2.41,1.244-5.438-0.619-6.062-3.718l-2.477-8.606      c-0.552-2.474,1.24-5.573,3.718-6.192c3.028-0.551,5.438,0.619,6.68,3.718L158.068,14.419z"/><path d="M147.053,349.212c0,3.031-2.41,4.888-4.888,4.888h-14.663c-3.032,0-5.439-1.856-5.439-4.888      c0-3.1,2.407-4.955,5.439-4.955h14.663C144.643,344.257,147.053,346.112,147.053,349.212z"/><path d="M142.165,364.561c2.478,0,4.888,1.862,4.888,4.962s-2.41,5.573-4.888,5.573h-14.663c-3.032,0-5.439-2.474-5.439-5.573      s2.407-4.962,5.439-4.962H142.165z"/><path d="M148.912,32.315l-9.776,2.481c-2.48,0.619-5.51-1.237-6.128-3.718c-0.552-3.1,1.24-5.506,3.647-6.75l9.157-2.474      c3.1-0.619,6.128,1.237,6.746,3.718C153.181,28.598,151.321,31.079,148.912,32.315z"/><path d="M143.401,477.402c-0.618-0.618-1.236-0.618-2.477-0.618c-1.17,0-1.789,0-2.41,0.618      c-0.619,0.618-1.238,1.855-1.238,2.475c0,1.244,0.619,1.862,1.238,2.48c0.621,0.552,1.24,1.17,2.41,1.17      c1.24,0,1.858-0.618,2.477-1.17c0.622-0.618,1.241-1.236,1.241-2.48C144.643,479.258,144.023,478.021,143.401,477.402z       M154.351,479.877c0,4.269-1.17,7.368-3.651,9.849c-2.41,2.474-6.057,4.337-9.774,4.337c-3.648,0-7.299-1.863-9.709-4.337      c-2.478-2.48-3.714-5.58-3.714-9.849c0-3.712,1.236-6.812,3.714-9.91c2.41-2.407,6.061-3.65,9.709-3.65      c3.718,0,7.364,1.243,9.774,3.65C153.181,473.065,154.351,476.165,154.351,479.877z"/><path d="M122.063,399.259l-33.599-0.066L122.063,399.259z"/><path d="M108.636,349.212c0,3.031-2.477,4.888-5.506,4.888H88.464c-2.478,0-4.888-1.856-4.888-4.888      c0-3.1,2.41-4.955,4.888-4.955h14.666C106.159,344.257,108.636,346.112,108.636,349.212z"/><path d="M108.636,369.522c0,3.1-2.477,5.573-5.506,5.573H88.464c-2.478,0-4.888-2.474-4.888-5.573s2.41-4.962,4.888-4.962      h14.666C106.159,364.561,108.636,366.423,108.636,369.522z"/><path d="M103.13,384.945c3.029,0,5.506,1.855,5.506,4.955c0,3.025-2.477,5.506-5.506,5.506H88.464      c-2.478,0-4.888-2.48-4.888-5.506c0-3.1,2.41-4.955,4.888-4.955H103.13z"/><path d="M430.286,117.41H71.39v31.465h-4.888c-3.028,0-5.506,2.407-5.506,5.507v-42.551c0-2.475,2.478-4.888,5.506-4.888H435.1      c3.1,0,5.514,2.414,5.514,4.888v42.551c0-3.1-2.414-5.507-5.514-5.507h-4.813V117.41z"/><path d="M435.1,148.875c3.1,0,5.514,2.407,5.514,5.507v1.236v0.067c-0.074,3.032-2.414,4.888-5.514,4.888h-4.813v-1.237H71.39      v1.237h-4.888c-3.028,0-5.506-1.855-5.506-4.955v-1.236c0-3.1,2.478-5.507,5.506-5.507h4.888v1.17h358.896v-1.17H435.1z"/><path d="M440.613,155.686l-0.626,155.87c0,3.093-2.413,4.955-4.888,4.955l-368.598,1.237c-3.028,0-5.506-2.475-5.506-5.574      V155.618c0,3.1,2.478,4.955,5.506,4.955h4.888v146.713l358.271-0.618l0.625-146.095h4.813      C438.199,160.573,440.539,158.718,440.613,155.686z"/><polygon points="29.878,259.78 32.907,269.004 22.58,272.104 20.102,262.88     "/><path d="M463.807,399.743h9.776c0.552,0,1.035,0.067,1.587,0.208l1.445,2.824c0.618,0.686,0.618,1.237,0.618,1.855      c0,3.099-2.414,5.58-4.888,5.58h-1.789l-176.382-0.275l-263.057-0.351h-1.24c-0.619,0-1.859,0-2.41-0.618      c-2.478-1.237-3.718-4.954-2.478-7.361l1.032-1.929c0.619-0.343,1.308-0.552,1.997-0.552h10.395l50.051,0.067l33.599,0.066      l270.358,0.35l20.103,0.068L463.807,399.743z"/><path d="M439.987,331.314l35.183,68.637c-0.552-0.141-1.035-0.208-1.587-0.208h-9.776l-31.113-61.066l-363.781,0.618      l-30.5,59.83H28.019c-0.688,0-1.378,0.209-1.997,0.552l34.974-67.744c1.237-1.861,2.478-3.099,4.888-3.099l369.215-0.618      C436.955,328.216,439.37,329.452,439.987,331.314z"/><path d="M471.795,436.713c0.551-0.617,1.788-1.855,2.407-3.099c0.617-1.237,1.236-3.025,1.236-4.888      c0.216-0.827,0.282-1.579,0.282-2.34c0-1.445-0.282-2.824-0.282-4.478c-0.619-3.092-1.855-5.572-3.644-9.224l-1.238-2.475h1.789      c2.474,0,4.888-2.481,4.888-5.58c0-0.618,0-1.17-0.618-1.855l-1.445-2.824c1.236,0.276,2.406,1.103,3.308,2.824l3.025,5.574      c1.856,3.717,3.093,7.436,3.645,11.086c0.617,3.718,1.243,6.817,0.617,10.461c0,3.1-1.169,6.199-2.405,8.673      c-1.856,3.032-3.645,5.514-6.744,7.369c-0.552,0.618-1.796,1.237-3.032,1.237H28.019c-1.17,0-2.41-0.619-3.028-1.237      c-3.029-1.855-4.888-4.337-6.68-7.369c-1.237-2.474-2.477-5.573-2.477-8.673c-0.205-1.103-0.276-2.063-0.276-3.1      c0-2.406,0.48-4.746,0.894-7.361c0.622-3.65,1.859-7.369,3.65-11.086l3.648-6.744c0.414-0.76,1.24-1.52,2.272-1.929      l-1.032,1.929c-1.24,2.407,0,6.124,2.478,7.361c0.551,0.618,1.792,0.618,2.41,0.618h1.24l-1.859,3.101      c-1.241,3.651-2.411,6.132-3.032,9.224c0,2.481-0.619,4.344,0,6.817c0,1.862,0.622,3.65,1.241,4.888      c0.551,1.243,1.17,2.481,2.41,3.099h264.297H471.795z"/><polygon points="12.805,275.204 22.58,272.104 25.608,281.402 15.833,284.428     "/><polygon points="17.074,253.037 20.102,262.88 10.327,265.36 7.295,256.13     "/><polygon points="10.327,265.36 12.805,275.204 3.029,277.685 0,268.454     "/></g></g></g></g><text x="0" y="527" fill="#000000" font-size="5px" font-weight="bold" font-family="'Helvetica Neue', Helvetica, Arial-Unicode, Arial, Sans-serif">Created by ibrandify</text><text x="0" y="532" fill="#000000" font-size="5px" font-weight="bold" font-family="'Helvetica Neue', Helvetica, Arial-Unicode, Arial, Sans-serif">from the Noun Project</text></svg>