<svg fill="#AFBFD2" xmlns="http://www.w3.org/2000/svg" xmlns:xlink="http://www.w3.org/1999/xlink" version="1.1" x="0px" y="0px" viewBox="0 0 64 80" style="enable-background:new 0 0 64 64;" xml:space="preserve"><g><path d="M35,47h-6c-2.757,0-5,2.243-5,5v6c0,2.757,2.243,5,5,5h6c2.757,0,5-2.243,5-5v-6C40,49.243,37.757,47,35,47z M38,58   c0,1.654-1.346,3-3,3h-6c-1.654,0-3-1.346-3-3v-6c0-1.654,1.346-3,3-3h6c1.654,0,3,1.346,3,3V58z"/><path d="M32,17c4.411,0,8-3.589,8-8s-3.589-8-8-8s-8,3.589-8,8S27.589,17,32,17z M32,3c3.309,0,6,2.691,6,6s-2.691,6-6,6   s-6-2.691-6-6S28.691,3,32,3z"/><path d="M17,24H1v16h16V24z M15,38H3V26h12V38z"/><path d="M63.618,40L55,22.764L46.382,40H63.618z M60.382,38H49.618L55,27.236L60.382,38z"/><path d="M52.594,21.759l1.791-0.892c-2.556-5.127-6.834-9.257-12.047-11.628l-0.828,1.82   C46.307,13.242,50.243,17.042,52.594,21.759z"/><path d="M22.49,11.06l-0.828-1.82c-5.478,2.491-9.876,6.875-12.388,12.343l1.818,0.835C13.402,17.386,17.45,13.352,22.49,11.06z"/><path d="M41.583,52.907l0.834,1.818c5.439-2.497,9.811-6.868,12.309-12.309l-1.818-0.834C50.609,46.588,46.587,50.61,41.583,52.907   z"/><path d="M11.093,41.583l-1.818,0.834c2.498,5.439,6.869,9.811,12.309,12.309l0.834-1.818   C17.412,50.609,13.391,46.588,11.093,41.583z"/><path d="M32,28c-2.206,0-4,1.794-4,4c0,2.206,1.794,4,4,4s4-1.794,4-4C36,29.794,34.206,28,32,28z M32,34c-1.103,0-2-0.897-2-2   c0-1.103,0.897-2,2-2s2,0.897,2,2C34,33.103,33.103,34,32,34z"/><path d="M40.941,33H43v-2h-2.059c-0.193-1.733-0.88-3.316-1.916-4.611l1.46-1.461l-1.414-1.414l-1.46,1.46   c-1.295-1.036-2.878-1.724-4.611-1.916V21h-2v2.059c-1.733,0.193-3.317,0.88-4.611,1.916l-1.46-1.46l-1.414,1.414l1.46,1.461   c-1.036,1.295-1.723,2.878-1.916,4.611H21v2h2.059c0.193,1.733,0.88,3.316,1.916,4.611l-1.46,1.46l1.414,1.414l1.46-1.46   c1.295,1.036,2.878,1.723,4.611,1.916V43h2v-2.059c1.733-0.193,3.316-0.88,4.611-1.916l1.46,1.46l1.414-1.414l-1.46-1.46   C40.061,36.316,40.748,34.733,40.941,33z M32,39c-3.859,0-7-3.141-7-7c0-3.86,3.141-7,7-7s7,3.14,7,7C39,35.859,35.859,39,32,39z"/></g></svg>