<svg fill="#AFBFD2" xmlns="http://www.w3.org/2000/svg" viewBox="0 0 64 80" x="0px" y="0px"><g><path d="M61.907,29.868c-.028-.365-.06-.728-.1-1.09-.025-.208-.056-.416-.085-.623-.045-.321-.094-.64-.15-.958-.04-.229-.084-.458-.13-.687-.058-.285-.12-.567-.186-.85-.06-.254-.12-.509-.186-.762-.061-.229-.127-.457-.193-.684-.087-.3-.172-.6-.268-.9-.019-.059-.042-.118-.062-.178A31.255,31.255,0,0,0,49.562,8.014a.887.887,0,0,0-.134-.076A29.338,29.338,0,0,0,32,2,28.558,28.558,0,0,0,19.5,4.94c-.025.01-.052.012-.077.024a31.816,31.816,0,0,0-9.625,7.3.818.818,0,0,0-.06.1,31.388,31.388,0,0,0-4.966,7.5c-.008.015-.024.024-.031.039-.06.129-.11.258-.168.387-.1.215-.191.432-.283.649-.1.248-.208.5-.306.744-.086.22-.168.442-.249.665-.094.259-.188.518-.275.778-.067.2-.129.405-.192.609-.088.284-.176.569-.255.855-.048.176-.09.354-.135.53-.08.312-.16.625-.229.938-.035.157-.062.317-.094.475-.067.332-.134.664-.189,1-.026.158-.044.319-.067.478-.049.332-.1.665-.136,1-.023.213-.035.429-.054.643-.024.282-.053.564-.069.847C2.015,30.991,2,31.5,2,32c0,.472.014.944.039,1.415.007.149.022.3.032.445.022.323.045.645.079.967.017.167.039.333.06.5.037.306.077.612.124.917.025.159.053.317.08.476q.082.479.181.954c.028.135.057.27.087.4q.119.529.257,1.054c.025.093.049.187.075.281q.169.617.366,1.225c.01.031.019.062.029.093A30.8,30.8,0,0,0,9.676,51.6c.018.021.045.028.065.047A30.142,30.142,0,0,0,32,62a27.592,27.592,0,0,0,4.873-.443l.025,0c.046-.009.092-.021.138-.029q.65-.12,1.291-.269c.133-.031.265-.064.4-.1q.534-.132,1.059-.285c.185-.053.369-.107.552-.164.29-.091.577-.186.863-.285.227-.078.454-.157.679-.24s.461-.18.69-.272c.2-.079.394-.149.587-.231.021-.009.038-.024.058-.034C53.342,55.3,61,45.389,61.9,34.212V34.2c0-.022,0-.04,0-.063.026-.323.048-.648.062-.973.02-.407.032-.8.032-1.168,0-.542-.019-1.08-.051-1.617C61.939,30.211,61.92,30.04,61.907,29.868Zm-50.04-16.9A29.87,29.87,0,0,1,19.627,7.1l.041-.022,1.625,1.625a1.01,1.01,0,0,0,.336.222l4.862,1.944,3.544,2.836L27,14.923l-4.629-1.852A1,1,0,0,0,22,13a1.059,1.059,0,0,0-.217.023l-8.391,1.866-1.53-1.912Zm-1.3,36.6A29.491,29.491,0,0,1,7.8,45.622l-.07-.119q-.568-.978-1.053-1.99c-.033-.069-.064-.138-.1-.207-.316-.674-.609-1.356-.868-2.048-.014-.036-.026-.073-.039-.11q-.385-1.037-.682-2.094c-.011-.038-.024-.076-.034-.114-.19-.688-.346-1.382-.48-2.08-.022-.111-.044-.222-.064-.333q-.181-1.019-.282-2.047c-.011-.115-.019-.231-.029-.346C4.039,33.424,4,32.713,4,32q0-.675.037-1.344c.007-.137.021-.273.03-.409.022-.31.044-.62.076-.928.018-.166.042-.332.063-.5.034-.273.068-.546.11-.817.032-.2.069-.393.105-.59.041-.231.083-.462.131-.692s.106-.476.163-.714c.042-.178.084-.355.129-.532.076-.29.158-.58.244-.869.033-.113.066-.225.1-.337q.162-.525.348-1.045c.015-.044.03-.088.046-.132q.214-.592.457-1.181l2.335,1.869A1,1,0,0,0,9,24h5.9l4.9.98a1.008,1.008,0,0,0,.9-.273L23.414,22H27.5l2.443,3.258L29.09,30.38l-4.249,2.55-3.6-.9a1,1,0,0,0-.689.075l-4,2a1,1,0,0,0-.539.731l-.984,5.922-.973,3.893-1.846,3.691ZM41,47a1,1,0,0,0-1,1v9a1,1,0,0,0,.293.707l.685.685a27.051,27.051,0,0,1-3.473,1L36.98,56.8a1,1,0,0,0-.273-.509l-3.42-3.42,1.545-2.318A1,1,0,0,0,34.8,49.4l-3-4A1,1,0,0,0,31,45H27V43.847l5.164-.861a1,1,0,0,0,.806-1.228L32.182,38.6l3.7-1.48,2.562,1.708A1,1,0,0,0,39.8,38.6l2.6-3.469,2.824.706.827,2.479a.96.96,0,0,0,.116.239l1.545,2.318-2.42,2.42a1,1,0,0,0-.263.465L44.219,47Zm1.987,10.573L42,56.586V49h3a1,1,0,0,0,.97-.758l.933-3.73,2.8-2.8a1,1,0,0,0,.125-1.262l-1.926-2.888-.958-2.873a.994.994,0,0,0-.706-.654l-4-1a1,1,0,0,0-1.042.37l-2.432,3.244-2.213-1.476a1,1,0,0,0-.926-.1l-5,2a1,1,0,0,0-.6,1.171l.738,2.949-4.932.823A1,1,0,0,0,25,43v3a1,1,0,0,0,1,1h4.5l2.275,3.034-1.607,2.411a1,1,0,0,0,.125,1.262l3.787,3.787.455,2.252A25.6,25.6,0,0,1,32,60a28.022,28.022,0,0,1-20.094-8.93L13.6,49.8a1,1,0,0,0,.295-.353l2-4a1.047,1.047,0,0,0,.075-.205l1.016-4.078.916-5.5,3.214-1.607,3.642.91a1,1,0,0,0,.757-.113l5-3a1,1,0,0,0,.471-.693l1-6A1,1,0,0,0,31.8,24.4l-3-4A1,1,0,0,0,28,20H23a1,1,0,0,0-.707.293l-2.622,2.621L15.2,22.02A1,1,0,0,0,15,22H9.351l-2.46-1.969a29.274,29.274,0,0,1,3.621-5.54l1.707,2.134A1,1,0,0,0,13,17a1.067,1.067,0,0,0,.217-.023l8.7-1.934,4.714,1.886a1,1,0,0,0,.742,0l5-2a1,1,0,0,0,.254-1.71l-5-4a1.024,1.024,0,0,0-.254-.148L22.562,7.147l-.974-.974A26.466,26.466,0,0,1,32,4,27.151,27.151,0,0,1,46.874,8.573L45.808,9H38a1,1,0,0,0-.98,1.2l1,5a1,1,0,0,0,.425.636l2.715,1.81.892,2.674a.96.96,0,0,0,.116.239l2,3A1,1,0,0,0,45,24h2.7l5.528,3.685.7,1.392-.7,2.086-3.467.867a1,1,0,0,0-.653.523l-1,2A1,1,0,0,0,49,36H59.683A29.192,29.192,0,0,1,42.987,57.573ZM59.972,33.014c-.007.157-.013.311-.024.478a3.086,3.086,0,0,0-.67.508h-8.66l.07-.142,3.554-.888a.994.994,0,0,0,.706-.654l1-3a1,1,0,0,0-.053-.763l-1-2a1.018,1.018,0,0,0-.34-.385l-6-4A1.006,1.006,0,0,0,48,22H45.535l-1.629-2.443-.958-2.873a1,1,0,0,0-.393-.516L39.9,14.4,39.22,11H46a1,1,0,0,0,.371-.071l2.436-.975.011.009c.407.316.8.644,1.19.978l.17.149q.5.439.98.9c.074.071.149.141.223.213q.47.46.917.94c.059.064.122.126.181.191q.507.549.981,1.122c.125.15.243.3.364.458.185.231.368.462.545.7.149.2.293.4.437.605s.281.4.417.6.286.431.425.649c.127.2.251.4.374.605s.262.436.387.658.247.449.367.675c.109.2.221.407.325.614.167.333.323.669.476,1.007.056.122.114.242.168.364q.282.648.53,1.308c.053.138.1.279.149.419.119.331.235.664.34,1,.05.158.095.317.142.475.095.322.186.645.269.97.042.164.082.33.121.5q.114.485.21.974c.033.167.065.333.095.5.058.331.107.663.153,1,.022.164.047.327.066.491.042.353.072.707.1,1.062.011.144.026.286.035.43C59.983,31,60,31.5,60,32,60,32.339,59.986,32.677,59.972,33.014Z"/><path d="M10,31a1,1,0,0,0,0-2H9a1,1,0,0,0,0,2Z"/><path d="M24,30h1a1,1,0,0,0,0-2H24a1,1,0,0,0,0,2Z"/><path d="M16,29h1a1,1,0,0,0,0-2H16a1,1,0,0,0,0,2Z"/><path d="M11,36H10a1,1,0,0,0,0,2h1a1,1,0,0,0,0-2Z"/><path d="M41,42H40a1,1,0,0,0,0,2h1a1,1,0,0,0,0-2Z"/><path d="M37,45H36a1,1,0,0,0,0,2h1a1,1,0,0,0,0-2Z"/><path d="M49,16H48a1,1,0,0,0,0,2h1a1,1,0,0,0,0-2Z"/><path d="M55,21H54a1,1,0,0,0,0,2h1a1,1,0,0,0,0-2Z"/></g></svg>