<svg xmlns="http://www.w3.org/2000/svg" xmlns:xlink="http://www.w3.org/1999/xlink" version="1.1" x="0px" y="0px" viewBox="0 0 512 640" style="enable-background:new 0 0 512 512;" xml:space="preserve"><g><g><g><g><path d="M181,481.253H31c-2.209,0-4-1.791-4-4v-60c0-2.209,1.791-4,4-4h150c2.209,0,4,1.791,4,4v60      C185,479.462,183.209,481.253,181,481.253z M35,473.253h142v-52H35V473.253z"/></g><g><path d="M481,481.253H181c-2.209,0-4-1.791-4-4v-130c0-2.209,1.791-4,4-4h146v-56c0-2.209,1.791-4,4-4h150c2.209,0,4,1.791,4,4      v190C485,479.462,483.209,481.253,481,481.253z M185,473.253h292v-182H335v56c0,2.209-1.791,4-4,4H185V473.253z"/></g><g><path d="M371,391.253H221c-2.209,0-4-1.791-4-4s1.791-4,4-4h146v-56c0-2.209,1.791-4,4-4h110c2.209,0,4,1.791,4,4s-1.791,4-4,4      H375v56C375,389.462,373.209,391.253,371,391.253z"/></g><g><path d="M441,451.253h-40c-2.209,0-4-1.791-4-4s1.791-4,4-4h40c2.209,0,4,1.791,4,4S443.209,451.253,441,451.253z"/></g><g><path d="M441,421.253h-40c-2.209,0-4-1.791-4-4s1.791-4,4-4h40c2.209,0,4,1.791,4,4S443.209,421.253,441,421.253z"/></g><path d="M221,457.253c-5.523,0-10-4.478-10-10s4.477-10,10-10h0.625c5.522,0,10,4.478,10,10s-4.478,10-10,10"/><path d="M250.375,457.253c-5.523,0-10-4.478-10-10s4.477-10,10-10H251c5.522,0,10,4.478,10,10s-4.478,10-10,10"/><path d="M280.375,457.253c-5.522,0-10-4.478-10-10s4.478-10,10-10H281c5.522,0,10,4.478,10,10s-4.478,10-10,10"/><rect x="131" y="67.253" width="20" height="20"/><rect x="151" y="47.253" width="20" height="20"/><rect x="151" y="87.253" width="20" height="20"/><rect x="171" y="67.253" width="20" height="20"/><rect x="221" y="127.253" width="20" height="20"/><rect x="241" y="107.253" width="20" height="20"/><rect x="241" y="147.253" width="20" height="20"/><rect x="261" y="127.253" width="20" height="20"/><g><path d="M438.242,221.253c-0.02,0-0.039,0-0.059,0c-0.571-0.002-10.469-0.004-26.554-0.004c-19.016,0-38.857,0.002-39.554,0.005      c-0.014,0-0.027,0-0.041,0c-2.067,0-3.806-1.583-3.983-3.659c-1.76-20.585-10.079-40.931-22.826-55.822      c-12.289-14.357-19.057-32.686-19.057-51.608c0-21.088,8.305-41,23.385-56.066c15.07-15.057,34.974-23.35,56.044-23.35      l0.634,0.002C449.664,31.096,485,66.721,485,110.163c0,19.059-6.854,37.488-19.301,51.891      c-12.912,14.943-21.47,35.206-23.479,55.591C442.018,219.701,440.286,221.253,438.242,221.253z M405.598,38.747      c-39.386,0-71.429,32.037-71.429,71.416c0,17.016,6.085,33.497,17.135,46.406c13.051,15.247,21.814,35.728,24.342,56.682      c4.47-0.001,14.303-0.003,35.984-0.003c12.943,0,19.604,0.001,23.048,0.002c2.775-20.76,11.767-41.148,24.969-56.427      C470.837,143.873,477,127.302,477,110.163c0-39.066-31.775-71.102-70.833-71.413L405.598,38.747z"/></g><g><path d="M441,251.253h-70c-2.209,0-4-1.791-4-4s1.791-4,4-4h70c2.209,0,4,1.791,4,4S443.209,251.253,441,251.253z"/></g><g><path d="M87.035,182.977c-16.466,0-29.862-13.396-29.862-29.862c0-16.466,13.396-29.862,29.862-29.862      c16.466,0,29.862,13.396,29.862,29.862C116.896,169.581,103.5,182.977,87.035,182.977z M87.035,131.253      c-12.055,0-21.862,9.807-21.862,21.862s9.808,21.862,21.862,21.862s21.862-9.808,21.862-21.862S99.089,131.253,87.035,131.253z"/></g><g><path d="M117.207,381.253H56.862c-2.209,0-4-1.791-4-4v-94.828c0-2.209,1.791-4,4-4h60.345c2.209,0,4,1.791,4,4v94.828      C121.207,379.462,119.416,381.253,117.207,381.253z M60.862,373.253h52.345v-86.828H60.862V373.253z"/></g><g><path d="M143.069,286.425H31c-2.209,0-4-1.791-4-4v-44.586c0-20.402,16.598-37,37-37h46.069c20.402,0,37,16.598,37,37v44.586      C147.069,284.634,145.278,286.425,143.069,286.425z M35,278.425h104.069v-40.586c0-15.991-13.009-29-29-29H64      c-15.991,0-29,13.009-29,29V278.425z"/></g><g><path d="M178.745,295.23c-1.251,0-2.483-0.585-3.264-1.683c-1.28-1.801-0.858-4.298,0.943-5.577l122.259-86.908      c1.803-1.28,4.299-0.857,5.577,0.943c1.28,1.8,0.858,4.298-0.942,5.578L181.059,294.49      C180.355,294.99,179.546,295.23,178.745,295.23z"/></g><g><path d="M293.935,250.157c-0.222,0-0.446-0.018-0.672-0.057c-2.178-0.368-3.646-2.432-3.277-4.61l6.404-37.889l-37.89-6.404      c-2.178-0.368-3.645-2.432-3.277-4.61s2.438-3.649,4.611-3.277l41.833,7.07c2.178,0.368,3.646,2.432,3.277,4.61l-7.07,41.833      C297.544,248.775,295.851,250.157,293.935,250.157z"/></g><g><path d="M421,221.253c-2.209,0-4-1.791-4-4v-100c0-2.209,1.791-4,4-4h20c2.209,0,4,1.791,4,4s-1.791,4-4,4h-16v96      C425,219.462,423.209,221.253,421,221.253z"/></g><g><path d="M391,221.253c-2.209,0-4-1.791-4-4v-96h-16c-2.209,0-4-1.791-4-4s1.791-4,4-4h20c2.209,0,4,1.791,4,4v100      C395,219.462,393.209,221.253,391,221.253z"/></g></g></g></g><text x="0" y="527" fill="#000000" font-size="5px" font-weight="bold" font-family="'Helvetica Neue', Helvetica, Arial-Unicode, Arial, Sans-serif">Created by Flatart</text><text x="0" y="532" fill="#000000" font-size="5px" font-weight="bold" font-family="'Helvetica Neue', Helvetica, Arial-Unicode, Arial, Sans-serif">from the Noun Project</text></svg>