<svg xmlns="http://www.w3.org/2000/svg" viewBox="0 0 64 80" x="0px" y="0px"><title>startup-teamwork-creative-success-innovation</title><g data-name="outline copy 2"><rect x="31" y="23" width="2" height="3"/><rect x="31" y="28" width="2" height="3"/><path d="M56.667,48.324a4.006,4.006,0,0,0-2.1,5.252,3.405,3.405,0,0,0,.242.443A4,4,0,0,0,51,58a2,2,0,0,1-2,2h-.126A4.008,4.008,0,0,0,45,57V52h1a1,1,0,0,0,.97-1.242l-1-4A1,1,0,0,0,45,46V44h1a1,1,0,0,0,.848-1.53L45,39.513V17.46a1,1,0,0,0-.224-.631l-2-2.46a1.035,1.035,0,0,0-1.552,0L41,14.645V11c0-.022-.011-.04-.012-.062a.992.992,0,0,0-.054-.264.948.948,0,0,0-.033-.094,1.013,1.013,0,0,0-.191-.284l0,0-8-8a1,1,0,0,0-1.414,0l-8,8,0,0a1.013,1.013,0,0,0-.191.284.948.948,0,0,0-.033.094.992.992,0,0,0-.054.264c0,.022-.012.04-.012.062v3.645l-.224-.276a1.035,1.035,0,0,0-1.552,0l-2,2.46A1,1,0,0,0,19,17.46V39.513L17.152,42.47A1,1,0,0,0,18,44h1v2a1,1,0,0,0-.97.758l-1,4A1,1,0,0,0,18,52h1v5a4.008,4.008,0,0,0-3.874,3H15a2,2,0,0,1-2-2,4,4,0,0,0-3.808-3.981,3.405,3.405,0,0,0,.242-.443,4.006,4.006,0,0,0-2.1-5.252,4.06,4.06,0,0,0-5.252,2.281A.994.994,0,0,0,2,51v2a1.944,1.944,0,0,0,1.984-1.744,2.066,2.066,0,0,1,2.561-1.094A2,2,0,0,1,7.6,52.789a2.86,2.86,0,0,1-3.2,1.292l-.788,1.838a3.743,3.743,0,0,0,1.477.287c.125,0,.251-.017.376-.027A3.954,3.954,0,0,0,5,58H7a2,2,0,0,1,4,0,4,4,0,0,0,4,4h1a1,1,0,0,0,1-1,2,2,0,0,1,2-2h1a1,1,0,0,0,1-1V52h2v3a4,4,0,0,0,8,0V48h2v7a4,4,0,0,0,8,0V52h2v6a1,1,0,0,0,1,1h1a2,2,0,0,1,2,2,1,1,0,0,0,1,1h1a4,4,0,0,0,4-4,2,2,0,0,1,4,0h2a3.954,3.954,0,0,0-.459-1.821c.125.01.251.027.376.027a3.743,3.743,0,0,0,1.477-.287l-.788-1.838a2.862,2.862,0,0,1-3.2-1.292,2,2,0,0,1,1.051-2.627,2.068,2.068,0,0,1,2.561,1.094A1.944,1.944,0,0,0,62,53V51a.994.994,0,0,0-.081-.4A4.059,4.059,0,0,0,56.667,48.324ZM43,46H41V44h2ZM24,42H19.8L27,30.486V42Zm1-30H39V29.913l-2-3.2V20c0-.014-.008-.026-.008-.041a.991.991,0,0,0-.07-.344c0-.009-.01-.016-.014-.025a1,1,0,0,0-.127-.215l-4-5a1.034,1.034,0,0,0-1.562,0l-4,5a1,1,0,0,0-.127.215c0,.009-.011.016-.014.025a.991.991,0,0,0-.07.344c0,.015-.008.027-.008.041v6.713l-2,3.2V12Zm8.919,7H30.081L32,16.6ZM29,27V21h6V42H29Zm8,3.486L44.2,42H37Zm5-13.9,1,1.23v18.5l-2-3.2v-15.3ZM32,4.414,37.586,10H26.414Zm-11,13.4,1-1.23,1,1.23v15.3l-2,3.2ZM21,44h2v2H21Zm-1,6h-.719l.5-2h4.438l.5,2H20Zm9,5a2,2,0,0,1-4,0V52h1a1,1,0,0,0,.97-1.242l-1-4A1,1,0,0,0,25,46V44h3v3a1,1,0,0,0,1,1Zm1-9V44h4v2Zm9,9a2,2,0,0,1-4,0V48a1,1,0,0,0,1-1V44h3v2a1,1,0,0,0-.97.758l-1,4A1,1,0,0,0,38,52h1Zm1-5h-.719l.5-2h4.438l.5,2H40Z"/><rect x="21" y="60" width="2" height="2"/><rect x="41" y="60" width="2" height="2"/><rect x="31" y="59" width="2" height="3"/></g></svg>