<svg xmlns="http://www.w3.org/2000/svg" xmlns:xlink="http://www.w3.org/1999/xlink" version="1.1" x="0px" y="0px" viewBox="0 0 95 118.75" enable-background="new 0 0 95 95" xml:space="preserve"><g><path fill="#AFBFD2" d="M26,47.5C26,59.356,35.645,69,47.5,69C59.354,69,69,59.356,69,47.5S59.354,26,47.5,26C35.645,26,26,35.645,26,47.5z    M28,47.5C28,36.749,36.747,28,47.5,28C58.252,28,67,36.749,67,47.5S58.252,67,47.5,67C36.747,67,28,58.252,28,47.5z"/><path fill="#AFBFD2" d="M6.334,47.5c0,0.507,0.411,0.918,0.917,0.918h14.793c0.186,6.355,2.709,12.133,6.744,16.498L18.392,75.312   c-0.358,0.358-0.358,0.939,0,1.297c0.357,0.357,0.938,0.357,1.296,0l10.395-10.395c4.352,4.08,10.132,6.647,16.501,6.864V87.75   c0,0.506,0.411,0.916,0.917,0.916s0.917-0.41,0.917-0.916V73.077c6.357-0.237,12.123-2.817,16.46-6.902l10.435,10.435   c0.358,0.357,0.939,0.357,1.297,0c0.358-0.357,0.358-0.938,0-1.297L66.169,64.873c4.013-4.36,6.519-10.121,6.704-16.455h14.876   c0.506,0,0.917-0.411,0.917-0.918c0-0.506-0.411-0.916-0.917-0.916H72.864c-0.265-6.287-2.823-11.988-6.858-16.293l10.603-10.602   c0.358-0.359,0.358-0.939,0-1.297c-0.357-0.358-0.938-0.358-1.297,0L64.706,28.998c-4.317-3.992-10.016-6.506-16.289-6.739V7.251   c0-0.506-0.411-0.917-0.917-0.917s-0.917,0.411-0.917,0.917v15.005c-6.285,0.214-11.998,2.715-16.33,6.7L19.688,18.392   c-0.357-0.358-0.938-0.358-1.296,0c-0.358,0.357-0.358,0.938,0,1.296l10.56,10.561c-4.058,4.31-6.633,10.026-6.899,16.335H7.251   C6.745,46.583,6.334,46.994,6.334,47.5z M24.024,47.667c0-12.922,10.513-23.434,23.435-23.434   c12.921,0,23.433,10.512,23.433,23.434c0,12.921-10.512,23.434-23.433,23.434C34.537,71.101,24.024,60.588,24.024,47.667z"/><path fill="#0F2136" d="M47.458,31.755C47.458,31.755,47.458,31.755,47.458,31.755c4.304,0,8.349,1.676,11.392,4.719   c3.136,3.136,4.705,7.254,4.71,11.373c0,0.551-0.446,0.996-0.996,0.996s-0.996-0.445-0.996-0.996h-0.007   c-0.005-3.607-1.379-7.213-4.125-9.959c-2.665-2.665-6.208-4.133-9.977-4.133c-0.001,0-0.001,0-0.001,0v-0.008   c-0.55,0-0.996-0.445-0.996-0.996S46.908,31.755,47.458,31.755z"/></g></svg>