<svg xmlns="http://www.w3.org/2000/svg" xmlns:xlink="http://www.w3.org/1999/xlink" version="1.1" x="0px" y="0px" viewBox="0 0 100 125" style="enable-background:new 0 0 100 100;" xml:space="preserve"><g><path d="M95.5,48.6l-0.1-1.2l-4-0.2c-0.2-0.7-0.4-1.4-0.7-2l2.9-2.9l-0.6-0.9c-0.6-1-1.2-1.9-2-2.7c-0.7-0.8-1.5-1.6-2.4-2.2   l-0.9-0.7l-3,2.6c-0.6-0.4-1.3-0.7-1.9-1l0-4.1L81.8,33c-2.1-0.5-4.4-0.7-6.5-0.4l-1.2,0.1l-0.2,4c-0.7,0.2-1.4,0.4-2,0.7L69,34.5   L68,35.1c-0.9,0.6-1.9,1.2-2.7,2c-0.8,0.7-1.6,1.5-2.2,2.4l-0.7,0.9l2.6,3c-0.4,0.6-0.7,1.3-1,1.9l-4.1,0l-0.3,1.1   c-0.5,2.1-0.7,4.4-0.4,6.5l0.1,1.2l4,0.2c0.2,0.7,0.4,1.4,0.7,2l-2.9,2.9l0.6,0.9c0.6,1,1.2,1.9,2,2.7c0.7,0.8,1.5,1.6,2.4,2.2   l0.9,0.7l3-2.6c0.6,0.4,1.3,0.7,1.9,1l0,4.1l1.1,0.3c1.4,0.4,2.9,0.5,4.4,0.5c0.7,0,1.4,0,2.1-0.1l1.2-0.1l0.2-4   c0.7-0.2,1.4-0.4,2-0.7l2.9,2.9l0.9-0.6c0.9-0.6,1.8-1.2,2.7-2c0.8-0.7,1.6-1.5,2.2-2.4l0.7-0.9l-2.6-3c0.4-0.6,0.7-1.3,1-1.9   l4.1,0l0.3-1.1C95.6,53,95.8,50.7,95.5,48.6z M92.6,53.4l-2.3,0c-0.9,0-1.6,0.6-1.9,1.4c-0.3,0.8-0.7,1.6-1.2,2.3   c-0.5,0.8-0.4,1.8,0.2,2.5l1.4,1.6c-0.4,0.4-0.7,0.8-1.1,1.1c-0.4,0.4-0.9,0.7-1.4,1.1l-1.7-1.6c-0.6-0.6-1.6-0.8-2.3-0.4   c-0.8,0.4-1.6,0.6-2.4,0.8c-0.9,0.2-1.6,1-1.7,1.9l-0.1,2.1c-1.1,0-2.2,0-3.3-0.2l0-2.3c0-0.9-0.6-1.6-1.4-1.9   c-0.8-0.3-1.6-0.7-2.3-1.2c-0.8-0.5-1.8-0.4-2.5,0.2L67,62c-0.4-0.4-0.8-0.7-1.1-1.1c-0.4-0.4-0.7-0.9-1.1-1.4l1.6-1.7   c0.6-0.6,0.8-1.6,0.4-2.3c-0.4-0.8-0.6-1.6-0.8-2.4c-0.2-0.9-1-1.6-1.9-1.7L62,51.3c0-1.1,0-2.2,0.2-3.3l2.3,0c0.9,0,1.7-0.6,2-1.4   c0.3-0.8,0.7-1.6,1.2-2.3c0.5-0.8,0.4-1.8-0.2-2.5l-1.4-1.6c0.4-0.4,0.7-0.8,1.1-1.1c0.4-0.4,0.9-0.7,1.4-1.1l1.7,1.6   c0.6,0.6,1.6,0.8,2.3,0.4c0.8-0.4,1.6-0.6,2.4-0.8c0.9-0.2,1.6-1,1.7-1.9l0.1-2.1c1.1,0,2.2,0,3.3,0.2l0,2.3c0,0.9,0.5,1.6,1.4,2   c0.8,0.3,1.6,0.7,2.3,1.2c0.8,0.5,1.8,0.4,2.5-0.2l1.6-1.4c0.4,0.4,0.8,0.7,1.1,1.1c0.4,0.4,0.7,0.9,1.1,1.4l-1.6,1.7   c-0.6,0.6-0.8,1.6-0.4,2.3c0.4,0.8,0.6,1.6,0.8,2.4c0.2,0.9,1,1.6,1.9,1.7l2.1,0.1C92.9,51.2,92.8,52.3,92.6,53.4z"/><path d="M77.4,41.8c-2.2,0-4.2,0.8-5.9,2.2c-1.8,1.6-2.8,3.7-3,6.1c-0.1,2.4,0.6,4.7,2.2,6.4c1.7,1.9,4.1,3,6.7,3   c2.2,0,4.2-0.8,5.9-2.2c1.8-1.6,2.8-3.7,3-6.1c0.1-2.4-0.6-4.7-2.2-6.4C82.4,42.9,80,41.8,77.4,41.8z M82.1,56   c-1.3,1.1-2.9,1.8-4.6,1.8c-2,0-3.9-0.9-5.3-2.4c-1.2-1.4-1.9-3.2-1.7-5.1c0.1-1.9,1-3.6,2.4-4.8c1.3-1.1,2.9-1.8,4.6-1.8   c2,0,3.9,0.9,5.3,2.4C85.2,49,85,53.4,82.1,56z"/><path d="M77.4,45.3c-1.3,0-2.6,0.5-3.6,1.3c-1.1,1-1.7,2.3-1.8,3.7c-0.1,1.4,0.4,2.8,1.3,3.9c1,1.2,2.5,1.8,4,1.8   c1.3,0,2.6-0.5,3.6-1.3c2.2-2,2.4-5.4,0.5-7.6C80.4,46,79,45.3,77.4,45.3z M79.8,53.3c-0.6,0.6-1.5,0.9-2.3,0.9c-1,0-2-0.4-2.6-1.2   c-0.6-0.7-0.9-1.6-0.9-2.5c0.1-0.9,0.5-1.8,1.2-2.4c0.6-0.6,1.5-0.9,2.3-0.9c1,0,2,0.4,2.6,1.2C81.3,49.8,81.2,52,79.8,53.3z"/><path d="M73.5,76.4c-0.3,0.3-0.5,0.8-0.5,1.3c0,0.5,0.2,1,0.5,1.3c0.3,0.3,0.8,0.5,1.3,0.5c0.5,0,1-0.2,1.3-0.5   c0.3-0.3,0.6-0.8,0.6-1.3c0-0.5-0.2-1-0.6-1.3C75.4,75.7,74.2,75.7,73.5,76.4z"/><path d="M39,83.2c-1-0.2-2,0.4-2.2,1.4c-0.2,1,0.4,2,1.4,2.2c0.1,0,0.3,0,0.4,0c0.9,0,1.6-0.6,1.8-1.5C40.6,84.4,40,83.4,39,83.2z"/><path d="M46.3,84.2c-1-0.1-1.9,0.7-2,1.7c-0.1,1,0.7,1.9,1.7,2h0.1c1,0,1.8-0.8,1.9-1.7C48.1,85.2,47.3,84.3,46.3,84.2z"/><path d="M67.8,80.6L67.8,80.6c-0.9,0.5-1.3,1.6-0.8,2.5c0.3,0.7,1,1,1.7,1c0.3,0,0.6-0.1,0.8-0.2c0.9-0.5,1.3-1.6,0.8-2.5   C69.9,80.5,68.7,80.1,67.8,80.6z"/><path d="M32.2,80.8c-0.9-0.5-2.1-0.1-2.5,0.8c-0.5,0.9-0.1,2,0.8,2.5c0.3,0.1,0.6,0.2,0.8,0.2c0.7,0,1.3-0.4,1.7-1   C33.5,82.4,33.1,81.2,32.2,80.8z"/><path d="M53.7,84.2c-1,0.1-1.8,1-1.7,2c0.1,1,0.9,1.7,1.9,1.7H54c1-0.1,1.8-1,1.7-2C55.6,84.9,54.7,84.1,53.7,84.2z"/><path d="M61,83.1c-1,0.2-1.6,1.3-1.4,2.3c0.2,0.9,1,1.4,1.8,1.4c0.1,0,0.3,0,0.4-0.1v0c1-0.3,1.6-1.3,1.4-2.3   C63,83.4,62,82.8,61,83.1z"/><path d="M24,76.4c-0.4,0.3-0.6,0.8-0.6,1.3c0,0.5,0.2,1,0.6,1.3c0.3,0.3,0.8,0.5,1.3,0.5c0.5,0,1-0.2,1.3-0.5   c0.3-0.4,0.6-0.8,0.6-1.3c0-0.5-0.2-1-0.6-1.3C25.9,75.7,24.7,75.7,24,76.4z"/><path d="M76.1,24.4c0.3-0.3,0.6-0.8,0.6-1.3c0-0.5-0.2-1-0.6-1.3c-0.3-0.3-0.8-0.5-1.3-0.5c-0.5,0-1,0.2-1.3,0.5   c-0.3,0.4-0.5,0.8-0.5,1.3c0,0.5,0.2,1,0.5,1.3C74.2,25.1,75.4,25.1,76.1,24.4z"/><path d="M61,17.8c1,0.2,2-0.4,2.3-1.4s-0.4-2-1.4-2.3v0c-0.1,0-0.3-0.1-0.4-0.1c-0.8,0-1.6,0.6-1.8,1.4C59.4,16.5,60,17.5,61,17.8z   "/><path d="M31.3,16.5c-0.3,0-0.6,0.1-0.8,0.2c-0.9,0.5-1.3,1.6-0.8,2.5c0.5,0.9,1.6,1.3,2.5,0.8c0.9-0.5,1.3-1.6,0.8-2.5   C32.7,16.9,32,16.5,31.3,16.5z"/><path d="M46.2,12.9H46c-1,0.1-1.8,0.9-1.7,2c0.1,1,0.9,1.8,2,1.7c1-0.1,1.8-0.9,1.8-2C48,13.7,47.1,12.9,46.2,12.9z"/><path d="M67.8,20.2L67.8,20.2c0.9,0.5,2.1,0.1,2.5-0.8c0.5-0.9,0.1-2-0.8-2.5c-0.3-0.1-0.6-0.2-0.8-0.2c-0.7,0-1.3,0.4-1.7,1   C66.5,18.6,66.9,19.8,67.8,20.2z"/><path d="M54,12.9h-0.1c-1,0-1.8,0.7-1.9,1.7c-0.1,1,0.7,1.9,1.7,2c1,0.1,1.9-0.7,2-1.7C55.8,13.9,55,13,54,12.9z"/><path d="M38.6,14c-0.1,0-0.3,0-0.4,0c-1,0.2-1.6,1.2-1.4,2.2c0.2,1,1.2,1.6,2.2,1.4c1-0.2,1.6-1.2,1.4-2.2   C40.2,14.5,39.4,14,38.6,14z"/><path d="M26.6,24.4c0.3-0.3,0.6-0.8,0.6-1.3c0-0.5-0.2-1-0.6-1.3c-0.4-0.3-0.8-0.5-1.3-0.5c-0.5,0-1,0.2-1.3,0.5   c-0.4,0.4-0.6,0.8-0.6,1.3c0,0.5,0.2,1,0.6,1.3C24.7,25.1,25.9,25.1,26.6,24.4z"/><path d="M17.5,31.5c-7.4,0-13.4,6-13.4,13.4c0,4.6,2.4,8.9,6.3,11.3v3.4h14.2v-3.4c3.9-2.4,6.3-6.7,6.3-11.3   C30.9,37.5,24.9,31.5,17.5,31.5z M22.5,54.1l-0.7,0.4v2.2h-8.6v-2.2l-0.7-0.4c-3.4-1.9-5.5-5.4-5.5-9.3c0-5.8,4.7-10.6,10.6-10.6   c5.8,0,10.6,4.7,10.6,10.6C28.1,48.7,25.9,52.3,22.5,54.1z"/><path d="M11.8,62.4h11.4c0.5,0,0.9-0.4,0.9-0.9s-0.4-0.9-0.9-0.9H11.8c-0.5,0-0.9,0.4-0.9,0.9S11.3,62.4,11.8,62.4z"/><path d="M11.8,65.6h11.4c0.5,0,0.9-0.4,0.9-0.9s-0.4-0.9-0.9-0.9H11.8c-0.5,0-0.9,0.4-0.9,0.9S11.3,65.6,11.8,65.6z"/><path d="M24.2,67.8c0-0.5-0.4-0.9-0.9-0.9H11.8c-0.5,0-0.9,0.4-0.9,0.9s0.4,0.9,0.9,0.9h11.4C23.8,68.8,24.2,68.3,24.2,67.8z"/><path d="M19.3,69.9h-3.6c-0.5,0-0.9,0.4-0.9,0.9s0.4,0.9,0.9,0.9h3.6c0.5,0,0.9-0.4,0.9-0.9S19.8,69.9,19.3,69.9z"/></g><text x="0" y="115" fill="#000000" font-size="5px" font-weight="bold" font-family="'Helvetica Neue', Helvetica, Arial-Unicode, Arial, Sans-serif">Created by Ian Ransley</text><text x="0" y="120" fill="#000000" font-size="5px" font-weight="bold" font-family="'Helvetica Neue', Helvetica, Arial-Unicode, Arial, Sans-serif">from the Noun Project</text></svg>