<svg xmlns="http://www.w3.org/2000/svg" xmlns:xlink="http://www.w3.org/1999/xlink" xml:space="preserve" version="1.1" style="shape-rendering:geometricPrecision;text-rendering:geometricPrecision;image-rendering:optimizeQuality;" viewBox="0 0 60000 75000" x="0px" y="0px" fill-rule="evenodd" clip-rule="evenodd"><defs><style type="text/css">
   
    .fil0 {fill:black;fill-rule:nonzero}
   
  </style></defs><g><path class="fil0" d="M31725 40975l-259 -449 -1 0 -259 -448 -1037 0 -259 448c-4,7 -8,14 -13,21l-247 428 259 449 1 0 259 448 1037 0 259 -448c4,-7 8,-14 13,-21l247 -428zm-3686 9248l0 -1693c0,-221 179,-400 400,-400l3122 0c221,0 400,179 400,400l0 447 3093 0 8745 -5049 5049 -8745 0 -3133 -591 0c-221,0 -400,-179 -400,-400l0 -3122c0,-221 179,-400 400,-400l1693 0c221,0 400,179 400,400l0 3122c0,221 -179,400 -400,400l-302 0 0 1747 2118 -3668 -5671 -9823 -15094 -44 -267 462 1 0 -374 648c-74,128 -208,199 -345,199l0 1 -1497 0c-158,0 -295,-92 -360,-225l-360 -623c-4,-7 -8,-15 -12,-22l-362 -628c-74,-129 -68,-283 3,-402l372 -644 -1 0 374 -648c74,-128 208,-199 345,-199l0 -1 1497 0c158,0 295,92 360,225l360 623c4,7 8,15 12,22l239 415 14648 43 -4750 -8227 -15937 0 -8745 5049 -2525 4373c-110,191 -353,256 -544,147 -191,-110 -256,-353 -147,-544l1836 -3180 -3669 2118 0 21481 17815 -162 240 -415c4,-7 8,-15 12,-22l360 -623c65,-133 202,-225 360,-225l1497 0 0 1c138,0 271,71 345,199l374 648 -1 0 1 1 371 643c71,120 78,273 3,402l-362 628c-4,7 -8,15 -12,22l-360 623c-65,133 -202,225 -360,225l-1497 0 0 -1c-138,0 -271,-71 -345,-199l-374 -648 1 0 -266 -462 -16929 154 17976 10378 3668 -2118 -1707 0 0 447c0,221 -179,400 -400,400l-3122 0c-221,0 -400,-179 -400,-400zm800 -1293l0 893 2322 0 0 -893 -2322 0zm20711 -20002l-893 0 0 2322 893 0 0 -2322zm-18992 -12216c-138,1 -250,-110 -251,-247 -1,-138 110,-250 247,-251l5186 -53c138,-1 250,110 251,247 1,138 -110,250 -247,251l-5186 53zm1878 1138c-138,1 -249,-111 -250,-248 -1,-138 111,-249 248,-250l9578 -53c138,-1 249,111 250,248 1,138 -111,249 -248,250l-9578 53zm-16817 -2102l2924 -5064c74,-128 208,-200 345,-200l0 -2 5851 0 5063 -2923c191,-110 434,-44 544,147 110,191 44,434 -147,544l-3866 2232 13958 0 -10414 -6012c-119,-68 -160,-221 -92,-340 68,-119 221,-160 340,-92l18848 10882c119,68 160,221 92,340 -68,119 -221,160 -340,92l-6856 -3959 4687 8119 5550 16c220,0 398,178 398,398 0,220 -178,398 -398,398l-5090 -15 5555 9621c74,129 68,283 -3,402l-2920 5057 0 5851c0,162 -96,301 -234,364l-5032 2905 -2514 4354 10416 -6014c119,-69 272,-28 341,91 69,119 28,272 -91,341l-11204 6469c-5,3 -9,5 -14,7l-11192 6461c-119,68 -271,27 -340,-92 -68,-119 -27,-271 92,-340l10414 -6012 -5029 0 -5063 2923c-129,74 -283,68 -402,-3l-19242 -11109c-128,-74 -200,-208 -200,-345l-2 0 0 -22225c0,-162 96,-301 234,-364l5032 -2905zm33229 21028l-3669 6355 3669 -2118 0 -4237zm-12201 12201l4237 0 2118 -3669 -6355 3669zm-13293 -37695l-4237 0 -2118 3669 6355 -3669zm-12674 36264l-395 696 -696 -395 395 -696 696 395zm11132 6317l-395 696 -696 -395 395 -696 696 395zm-2783 -1579l-395 696 -696 -395 395 -696 696 395zm-2783 -1579l-395 696 -696 -395 395 -696 696 395zm-2783 -1579l-395 696 -696 -395 395 -696 696 395zm19745 -45253l-217 -125 -250 433 866 500 250 -433 -650 -375zm10575 6683l217 125 250 -433 -866 -500 -250 433 650 375zm-1732 -1000l217 125 250 -433 -866 -500 -250 433 650 375zm-1732 -1000l217 125 250 -433 -866 -500 -250 433 650 375zm-1732 -1000l217 125 250 -433 -866 -500 -250 433 650 375zm-1732 -1000l217 125 250 -433 -866 -500 -250 433 650 375zm-1732 -1000l217 125 250 -433 -866 -500 -250 433 650 375zm-16202 43765c119,69 160,222 91,341 -69,119 -222,160 -341,91l-11204 -6469c-80,-46 -124,-130 -124,-216l-1 0 0 -12938c0,-138 112,-250 250,-250 138,0 250,112 250,250l0 12794 11079 6397zm7791 -20216c-79,294 -116,589 -117,893l800 0c1,-235 30,-461 91,-689l-774 -204zm4156 4235c294,-73 576,-184 840,-331l-390 -698c-204,113 -418,197 -644,253l194 776zm1565 -869c217,-211 405,-448 561,-707l-689 -407 1 -1c-121,201 -263,380 -432,544l559 572zm918 -1536c82,-294 124,-587 129,-891l-800 -10c-4,236 -36,460 -100,688l771 214zm23 -1788c-74,-293 -188,-574 -336,-838l-696 395c114,202 200,418 258,643l775 -199zm-879 -1559c-211,-215 -451,-403 -711,-556l-403 691 0 0c201,120 381,261 545,428l569 -562zm-1542 -908c-294,-80 -588,-120 -892,-123l-5 800c236,2 461,33 688,95l209 -772zm-1788 -11c-293,76 -573,192 -836,342l399 694c202,-115 416,-203 641,-262l-204 -774zm-1554 889c-213,212 -401,455 -552,715l694 399c118,-202 258,-383 424,-548l-566 -566zm7815 17065l-12 -800 800 -12 12 800 -800 12zm-15998 244l-12 -800 800 -12 12 800 -800 12zm1600 -24l-12 -800 800 -12 12 800 -800 12zm1600 -24l-12 -800 800 -12 12 800 -800 12zm1600 -24l-12 -800 800 -12 12 800 -800 12zm1600 -24l-12 -800 800 -12 12 800 -800 12zm1600 -24l-12 -800 800 -12 12 800 -800 12zm1600 -24l-12 -800 800 -12 12 800 -800 12zm1600 -24l-12 -800 800 -12 12 800 -800 12zm1600 -24l-12 -800 800 -12 12 800 -800 12zm1600 -24l-12 -800 800 -12 12 800 -800 12zm-17477 -24893l241 -417 -1 0 243 -421c74,-128 208,-199 345,-199l0 -1 973 0c158,0 295,92 360,225l229 396c4,7 8,15 12,22l231 401c74,129 68,283 -3,402l-241 417 1 0 -243 421c-74,128 -208,199 -345,199l0 1 -973 0c-158,0 -295,-92 -360,-225l-229 -396c-4,-7 -8,-15 -12,-22l-231 -401c-74,-129 -68,-283 3,-402zm930 -18l-128 222 116 201c4,7 9,14 13,21l128 221 514 0 128 -221 1 0 128 -222 -116 -201c-4,-7 -9,-14 -13,-21l-128 -221 -514 0 -128 221 -1 0zm2762 -9l284 -493c4,-7 8,-14 13,-21l274 -475c74,-128 208,-200 345,-200l0 -2 1148 0c162,0 301,96 364,234l268 464 1 0 287 497c75,130 69,284 -3,404l-284 493c-4,7 -8,14 -13,21l-274 475c-74,128 -208,200 -345,200l0 2 -1148 0c-162,0 -301,-96 -364,-234l-268 -464 -1 0 -287 -497c-75,-130 -69,-284 3,-404zm975 -93l-172 297 172 297 -1 0 171 297 690 0 159 -275c4,-7 8,-15 12,-22l172 -297 -172 -297 1 0 -171 -297 -690 0 -159 275c-4,7 -8,15 -12,22zm2718 67l328 -568 -1 0 331 -573c74,-128 208,-199 345,-199l0 -1 1322 0c158,0 295,92 360,225l316 547c4,7 8,15 12,22l319 552c74,129 68,283 -3,402l-328 568 1 0 -331 573c-74,128 -208,199 -345,199l0 1 -1322 0c-158,0 -295,-92 -360,-225l-316 -547c-4,-7 -8,-15 -12,-22l-319 -552c-74,-129 -68,-283 3,-402zm1017 -169l-215 373 203 352c4,7 9,13 13,21l215 373 863 0 215 -373 1 0 215 -373 -203 -352c-4,-7 -9,-14 -13,-21l-215 -373 -863 0 -215 373 -1 0zm3736 -102l-259 449 247 428c4,7 9,14 13,21l259 448 1037 0 259 -448 1 0 259 -449 -247 -428c-4,-7 -9,-14 -13,-21l-259 -448 -1037 0 -259 448 -1 0zm-4995 10573l3144 -5446c46,-80 130,-125 216,-125l0 -1 6293 0c101,0 188,60 227,146l3135 5430c46,81 42,177 -2,252l-3144 5446c-46,80 -130,125 -216,125l0 1 -6293 0c-101,0 -188,-60 -227,-146l-3135 -5430c-46,-81 -42,-177 2,-252zm2003 -2473l-1502 2601 3002 5200 6007 0 3002 -5200 -3002 -5200 -6007 0 -1500 2599zm-4570 2396l4363 -7557c74,-128 208,-199 345,-199l0 -1 8731 0c158,0 295,92 360,225l4351 7536c75,130 69,284 -3,404l-4363 7557c-74,128 -208,199 -345,199l0 1 -8731 0c-158,0 -295,-92 -360,-225l-4351 -7536c-75,-130 -69,-284 3,-404zm2871 -3376l-2067 3580 4134 7161 8271 0 4134 -7161 -4134 -7161 -8271 0 -2067 3580z"/></g><text x="0" y="60015" fill="#000000" font-size="5px" font-weight="bold" font-family="'Helvetica Neue', Helvetica, Arial-Unicode, Arial, Sans-serif">Created by Olena Panasovska</text><text x="0" y="60020" fill="#000000" font-size="5px" font-weight="bold" font-family="'Helvetica Neue', Helvetica, Arial-Unicode, Arial, Sans-serif">from the Noun Project</text></svg>