<svg xmlns="http://www.w3.org/2000/svg" xmlns:xlink="http://www.w3.org/1999/xlink" viewBox="0 0 100 125" version="1.1" x="0px" y="0px"><title>Sweet spot</title><desc>Created with Sketch.</desc><g stroke="none" stroke-width="1" fill="none" fill-rule="evenodd"><path d="M51,86.5 C38.0213084,86.5 27.5,75.9786916 27.5,63 C27.5,50.0213084 38.0213084,39.5 51,39.5 C63.9786916,39.5 74.5,50.0213084 74.5,63 C74.5,75.9786916 63.9786916,86.5 51,86.5 Z M51,83.5 C62.3218374,83.5 71.5,74.3218374 71.5,63 C71.5,51.6781626 62.3218374,42.5 51,42.5 C39.6781626,42.5 30.5,51.6781626 30.5,63 C30.5,74.3218374 39.6781626,83.5 51,83.5 Z" fill="#000000" fill-rule="nonzero"/><path d="M35,60.5 C22.0213084,60.5 11.5,49.9786916 11.5,37 C11.5,24.0213084 22.0213084,13.5 35,13.5 C47.9786916,13.5 58.5,24.0213084 58.5,37 C58.5,49.9786916 47.9786916,60.5 35,60.5 Z M35,57.5 C46.3218374,57.5 55.5,48.3218374 55.5,37 C55.5,25.6781626 46.3218374,16.5 35,16.5 C23.6781626,16.5 14.5,25.6781626 14.5,37 C14.5,48.3218374 23.6781626,57.5 35,57.5 Z" fill="#000000" fill-rule="nonzero"/><path d="M65,60.5 C52.0213084,60.5 41.5,49.9786916 41.5,37 C41.5,24.0213084 52.0213084,13.5 65,13.5 C77.9786916,13.5 88.5,24.0213084 88.5,37 C88.5,49.9786916 77.9786916,60.5 65,60.5 Z M65,57.5 C76.3218374,57.5 85.5,48.3218374 85.5,37 C85.5,25.6781626 76.3218374,16.5 65,16.5 C53.6781626,16.5 44.5,25.6781626 44.5,37 C44.5,48.3218374 53.6781626,57.5 65,57.5 Z" fill="#000000" fill-rule="nonzero"/></g><text x="0" y="115" fill="#000000" font-size="5px" font-weight="bold" font-family="'Helvetica Neue', Helvetica, Arial-Unicode, Arial, Sans-serif">Created by Daniel Falk</text><text x="0" y="120" fill="#000000" font-size="5px" font-weight="bold" font-family="'Helvetica Neue', Helvetica, Arial-Unicode, Arial, Sans-serif">from the Noun Project</text></svg>