<svg xmlns="http://www.w3.org/2000/svg" data-name="Layer 1" viewBox="0 0 100 125" x="0px" y="0px"><title>21</title><g data-name="Group"><path fill="#AFBFD2" data-name="Compound Path" d="M94.5,40a5,5,0,0,0-4.6,3H68.1a17.6,17.6,0,0,0-1.5-4H81.9a5,5,0,1,0,0-4H64V16.5H76.4a5,5,0,1,0,0-4H62a2,2,0,0,0-2,2V32a17.6,17.6,0,0,0-5-2v-7a5,5,0,1,0-4,0v6.5h-.1A17.8,17.8,0,0,0,47,30V15.1a5,5,0,1,0-4,0V31.4a17.5,17.5,0,0,0-4,2.7V23.1a5,5,0,1,0-4,0V36.5H13.5V24.1a5,5,0,1,0-4,0V38.5a2,2,0,0,0,2,2H30.6a14.6,14.6,0,0,0-6.3,5H18.1a5,5,0,1,0,0,4h4.2a14.5,14.5,0,0,0-.7,4H10.1a5,5,0,1,0,0,4h12a14.4,14.4,0,0,0,1.7,4H18.1a5,5,0,1,0,0,4h9.3A14.4,14.4,0,0,0,35,68.4V81.5H22.6a5,5,0,1,0,0,4H37a2,2,0,0,0,2-2v-15h5v8.5a5,5,0,1,0,4,0V68.5h4V84.9a5,5,0,1,0,4,0V68.5h4v8.5a5,5,0,1,0,4,0V68.5h2.6A11.8,11.8,0,0,0,75.8,64H88.5V76.4a5,5,0,1,0,4,0V62a2,2,0,0,0-2-2H77.9a11.4,11.4,0,0,0,.4-5h3.6a5,5,0,1,0,0-4H77a11.9,11.9,0,0,0-3.5-4H89.9a5,5,0,1,0,4.6-7ZM81,13.5a1,1,0,1,1-1,1A1,1,0,0,1,81,13.5Zm-28,4a1,1,0,1,1-1,1A1,1,0,0,1,53,17.5Zm-8-8a1,1,0,1,1-1,1A1,1,0,0,1,45,9.5Zm-33.5,9a1,1,0,1,1-1,1A1,1,0,0,1,11.5,18.5Zm2,30a1,1,0,1,1,1-1A1,1,0,0,1,13.5,48.5Zm4.5,36a1,1,0,1,1,1-1A1,1,0,0,1,18,84.5Zm28-2a1,1,0,1,1,1-1A1,1,0,0,1,46,82.5Zm8,8a1,1,0,1,1,1-1A1,1,0,0,1,54,90.5Zm8-8a1,1,0,1,1,1-1A1,1,0,0,1,62,82.5ZM90.5,82a1,1,0,1,1,1-1A1,1,0,0,1,90.5,82Zm-4-30a1,1,0,1,1-1,1A1,1,0,0,1,86.5,52Zm0-16a1,1,0,1,1-1,1A1,1,0,0,1,86.5,36ZM37,17.5a1,1,0,1,1-1,1A1,1,0,0,1,37,17.5ZM5.5,56.5a1,1,0,1,1,1-1A1,1,0,0,1,5.5,56.5Zm8,8a1,1,0,1,1,1-1A1,1,0,0,1,13.5,64.5Zm53.1,0H36.1a10.5,10.5,0,0,1,0-21.1,2,2,0,0,0,2.1-1.2,13.6,13.6,0,0,1,12.7-8.6A13.8,13.8,0,0,1,64.6,46.8a2,2,0,0,0,2,1.9,7.8,7.8,0,1,1,0,15.7ZM94.5,46a1,1,0,1,1,1-1A1,1,0,0,1,94.5,46Z"/></g></svg>