<svg xmlns="http://www.w3.org/2000/svg" xmlns:xlink="http://www.w3.org/1999/xlink" version="1.1" x="0px" y="0px" viewBox="0 0 100 125" enable-background="new 0 0 100 100" xml:space="preserve"><path fill="#0F2136" d="M56.135,43.903l-0.557-0.277L35.013,33.369c0.117-0.097,0.238-0.191,0.362-0.279  c0.164-0.117,0.021,0.008,0.408-0.27l0.051-0.034l0.025-0.018l0.012-0.009c-0.043,0.032,0.115-0.086-0.094,0.07l0.053-0.026  l0.104-0.056l0.202-0.117c0.584-0.31,1.317-0.656,2.218-0.924c0.888-0.273,1.859-0.518,2.891-0.686  c1.011-0.188,2.082-0.296,3.121-0.385c2.094-0.165,4.14-0.147,5.899-0.06c0.876,0.026,1.696,0.116,2.409,0.162  c0.687,0.074,1.285,0.139,1.777,0.191c1.166,0.15,1.832,0.236,1.832,0.236c0.153,0.02,0.334,0.037,0.49,0.048  c0.588,0.039,1.164,0.01,1.724-0.074l2.584,13.823c0.31,1.656,1.756,2.856,3.44,2.856H84c1.933,0,3.5-1.567,3.5-3.5  s-1.567-3.5-3.5-3.5H67.428L64.964,27.64c2.307,1.641,5.442,1.91,8.067,0.425c3.613-2.05,4.886-6.639,2.835-10.251  c-2.046-3.612-6.634-4.883-10.247-2.834c-1.135,0.643-2.038,1.536-2.681,2.571c-1.319-1.311-3.095-2.174-5.097-2.308  c0,0-0.669-0.045-1.842-0.124c-0.679-0.03-1.502-0.068-2.447-0.112c-0.921-0.006-1.943-0.048-3.081-0.016  c-2.264,0.03-4.925,0.167-7.833,0.579c-1.457,0.215-2.965,0.468-4.532,0.858c-1.558,0.363-3.173,0.861-4.81,1.496  c-1.631,0.625-3.32,1.476-4.972,2.567l-0.619,0.433l-0.307,0.219l-0.152,0.109l-0.153,0.119l-0.047,0.04  c-0.135,0.118-0.784,0.652-1.104,0.966c-0.728,0.683-1.386,1.398-2,2.17c-1.213,1.546-2.294,3.293-2.98,5.555  c-0.335,1.129-0.549,2.4-0.524,3.743c0.02,1.339,0.301,2.728,0.791,3.938c1.01,2.477,2.6,3.963,3.819,4.898  c1.253,0.934,2.304,1.447,3.121,1.807c0.62,0.268,1.126,0.457,1.515,0.589c0.21,0.086,0.427,0.163,0.65,0.228l15.492,4.49  l-6.892,7.002c-1.104-1.911-2.566-3.57-4.373-4.873c-2.685-1.936-5.925-2.959-9.371-2.959c-6.458,0-12.814,3.469-17.003,9.278  C5,62.66,3.468,67.88,3.873,72.943c0.411,5.153,2.771,9.529,6.642,12.322c2.684,1.936,5.924,2.959,9.37,2.959  c6.459,0,12.817-3.469,17.008-9.28c3.185-4.417,4.715-9.637,4.311-14.699c-0.009-0.118-0.033-0.229-0.045-0.347l15.772-13.033  c0.43-0.359,0.812-0.823,1.077-1.356C59.039,47.443,58.2,44.934,56.135,43.903z M34.46,77.19c-3.628,5.03-9.077,8.034-14.575,8.034  c-2.812,0-5.446-0.827-7.615-2.393c-3.146-2.269-5.066-5.866-5.407-10.128c-0.348-4.354,0.986-8.865,3.757-12.705  c3.627-5.03,9.074-8.033,14.57-8.033c2.812,0,5.446,0.827,7.617,2.393c1.68,1.211,2.998,2.81,3.925,4.677l-4.721,4.796  c-1.04,1.064-1.14,2.772-0.171,3.945c1.037,1.255,2.895,1.432,4.149,0.395l2.266-1.873C38.158,70.073,36.846,73.881,34.46,77.19z   M33.587,32.713c-0.172-0.117-0.306-0.242-0.332-0.301C33.221,32.35,33.378,32.408,33.587,32.713z"/><path fill="#0F2136" d="M96.204,64.245c-0.411-5.153-2.771-9.529-6.644-12.32c-2.685-1.936-5.925-2.959-9.37-2.959  c-6.458,0-12.814,3.469-17.004,9.278c-3.186,4.416-4.718,9.636-4.313,14.699c0.411,5.153,2.771,9.529,6.642,12.322  c2.685,1.936,5.924,2.959,9.37,2.959c6.46,0,12.818-3.469,17.009-9.28C95.078,74.527,96.609,69.308,96.204,64.245z M89.46,77.19  c-3.628,5.03-9.077,8.034-14.575,8.034c-2.812,0-5.445-0.827-7.615-2.393c-3.146-2.269-5.065-5.866-5.406-10.128  c-0.348-4.354,0.986-8.865,3.757-12.705c3.627-5.03,9.073-8.033,14.57-8.033c2.812,0,5.445,0.827,7.616,2.393  c3.146,2.268,5.066,5.864,5.407,10.126C93.562,68.838,92.229,73.35,89.46,77.19z"/><path fill="#0F2136" d="M80.397,64.633c-0.688-0.497-1.514-0.76-2.387-0.76c-1.544,0-3.048,0.808-4.023,2.162  c-0.737,1.021-1.091,2.24-0.996,3.432c0.102,1.265,0.717,2.392,1.688,3.092c0.689,0.497,1.515,0.76,2.389,0.76  c1.541,0,3.045-0.808,4.021-2.16c0.737-1.022,1.091-2.242,0.996-3.434C81.985,66.46,81.369,65.333,80.397,64.633z M78.657,69.402  c-0.582,0.805-1.624,1.153-2.224,0.722c-0.351-0.252-0.434-0.67-0.451-0.896c-0.038-0.476,0.122-1,0.438-1.439  c0.407-0.565,1.017-0.916,1.59-0.916c0.242,0,0.454,0.064,0.632,0.192c0.352,0.254,0.435,0.672,0.453,0.897  C79.133,68.438,78.974,68.964,78.657,69.402z"/><path fill="#0F2136" d="M25.397,64.633c-0.688-0.497-1.514-0.76-2.387-0.76c-1.543,0-3.047,0.808-4.023,2.162  c-0.737,1.021-1.09,2.24-0.996,3.432c0.101,1.265,0.716,2.392,1.688,3.092c0.688,0.497,1.515,0.76,2.388,0.76  c1.542,0,3.045-0.808,4.021-2.16c0.738-1.022,1.091-2.242,0.997-3.434C26.985,66.46,26.369,65.333,25.397,64.633z M23.657,69.402  c-0.581,0.804-1.625,1.154-2.223,0.722c-0.351-0.252-0.434-0.67-0.452-0.896c-0.038-0.476,0.122-1,0.438-1.439  c0.407-0.565,1.017-0.916,1.589-0.916c0.243,0,0.455,0.064,0.632,0.192c0.352,0.254,0.435,0.672,0.453,0.897  C24.133,68.438,23.973,68.964,23.657,69.402z"/></svg>