<svg xmlns="http://www.w3.org/2000/svg" xmlns:xlink="http://www.w3.org/1999/xlink" version="1.1" x="0px" y="0px" viewBox="0 0 2428 1610" style="enable-background:new 0 0 2428 1288;" xml:space="preserve"><style type="text/css">
	.st0{display:none;}
	.st1{display:inline;}
	.st2{display:inline;fill:none;stroke:#FFFFFF;stroke-width:11;stroke-miterlimit:10;}
</style><g><g><path d="M1509,1156h-280v2.6c0,5.2-3.9,9.4-9,9.4H935.4c-5.1,0-8.4-4.2-8.4-9.4v-2.6H45v18.1c0,35.1,28,62.9,63.1,62.9h1413.8    c-8.1-10.4-12.9-23.3-12.9-37.5V1156z"/><path d="M1509,1069H252V141h1647v216h50V126.4c0-18.8-15.8-34.4-34.6-34.4H236.1c-18.7,0-34.1,15.7-34.1,34.4v976.9    c0,18.8,0,33.7,0,33.7h1307V1069z"/><path d="M1986,1156v-15h-433v-4v-68V482h606v131h21V442.8c0-31.9-25.9-57.8-57.8-57.8h-533.3c-31.9,0-57.8,25.9-57.8,57.8V1069v68    v19v19.2c0,31.9,25.9,57.8,57.8,57.8H1986c0-0.5,0-1.1,0-1.6V1156z M1855.7,427.2c4.5,0,8.2,3.7,8.2,8.2s-3.7,8.2-8.2,8.2    c-4.5,0-8.2-3.7-8.2-8.2S1851.2,427.2,1855.7,427.2z M1855.7,1204.8c-11.9,0-21.5-9.6-21.5-21.5c0-11.9,9.6-21.5,21.5-21.5    c11.9,0,21.5,9.6,21.5,21.5C1877.2,1195.2,1867.6,1204.8,1855.7,1204.8z"/><path d="M2305.5,637h-255c-23.5,0-42.5,19-42.5,42.5v515c0,17,10,31.7,24.5,38.5c5.1,2.4,10.7,3.8,16.6,4c0.5,0,0.9,0,1.4,0h255    c23.5,0,42.5-19,42.5-42.5v-515C2348,656,2329,637,2305.5,637z M2178.6,1216.3c-4.5,0-8.5-1.9-11.4-4.9c-2.7-2.8-4.4-6.7-4.4-11    c0-8.7,7.1-15.8,15.8-15.8c0.2,0,0.4,0,0.6,0c8.4,0.3,15.2,7.3,15.2,15.8C2194.4,1209.2,2187.3,1216.3,2178.6,1216.3z M2335,1170    h-314V708h314V1170z"/></g></g><text x="0" y="1303" fill="#000000" font-size="5px" font-weight="bold" font-family="'Helvetica Neue', Helvetica, Arial-Unicode, Arial, Sans-serif">Created by Felix Brönnimann</text><text x="0" y="1308" fill="#000000" font-size="5px" font-weight="bold" font-family="'Helvetica Neue', Helvetica, Arial-Unicode, Arial, Sans-serif">from the Noun Project</text></svg>