<svg xmlns="http://www.w3.org/2000/svg" data-name="Layer 1" viewBox="0 0 128 160" x="0px" y="0px"><title>miscellaneous 64 solid</title><path d="M64,41.99994A19,19,0,1,0,45,23,19,19,0,0,0,64,41.99994Zm-8.01123-25.872A6.5793,6.5793,0,0,1,60.86182,14a6.27445,6.27445,0,0,1,3.23291.93555,6.36855,6.36855,0,0,1,8.09863,1.249,7.51768,7.51768,0,0,1-.18262,9.94629l-6.77539,7.23633a1.99949,1.99949,0,0,1-1.46.63281h-.02393a2.00054,2.00054,0,0,1-1.46826-.668l-6.47656-7.25781A7.42565,7.42565,0,0,1,55.98877,16.12793Z"/><path d="M63.811,29.03613l5.28027-5.63965a3.48266,3.48266,0,0,0,.11768-4.54785,2.401,2.401,0,0,0-1.769-.83789,2.54685,2.54685,0,0,0-1.90576.8623,1.96239,1.96239,0,0,1-1.48389.63281,1.99948,1.99948,0,0,1-1.46777-.668A2.40185,2.40185,0,0,0,60.81348,18h-.02783a2.5746,2.5746,0,0,0-1.877.8623,3.48327,3.48327,0,0,0-.11768,4.54785Z"/><path d="M42,58v58a8,8,0,0,0,8,8H78a8,8,0,0,0,8-8V58a8,8,0,0,0-8-8H50A8,8,0,0,0,42,58Zm4,0a4.00454,4.00454,0,0,1,4-4H78a4.0045,4.0045,0,0,1,4,4v58a4.0045,4.0045,0,0,1-4,4H50a4.00454,4.00454,0,0,1-4-4Z"/><path d="M59.6665,62h8.667a2,2,0,0,0,0-4h-8.667a2,2,0,0,0,0,4Z"/><path d="M68.3335,110h-8.667a2,2,0,0,0,0,4h8.667a2,2,0,0,0,0-4Z"/><path d="M62.78888,93.5777l6-3a4,4,0,0,0,0-7.1554l-6-3A4.04641,4.04641,0,0,0,57,84v6A4.0432,4.0432,0,0,0,62.78888,93.5777Z"/><path d="M19,44C8.52338,44,0,52.28125,0,62.46027S8.52338,80.92047,19,80.92047a19.227,19.227,0,0,0,6.14423-1.00092l6.16669,3.54761A4,4,0,0,0,37.051,78.5957l-2.22644-5.93823A18.04153,18.04153,0,0,0,38,62.46027C38,52.28125,29.47662,44,19,44Zm6,25H13a2,2,0,0,1,0-4H25a2,2,0,0,1,0,4Zm0-8H13a2,2,0,0,1,0-4H25a2,2,0,0,1,0,4Z"/><path d="M109,44c-10.47662,0-19,8.28125-19,18.46027a18.04147,18.04147,0,0,0,3.17554,10.19727L90.949,78.5957a3.99994,3.99994,0,0,0,5.74005,4.87146l6.16669-3.54761A19.22726,19.22726,0,0,0,109,80.92047c10.47662,0,19-8.28119,19-18.46021S119.47662,44,109,44Zm1,15a3,3,0,1,1-3,3A3.00328,3.00328,0,0,1,110,59Zm6,16.24481A15.39012,15.39012,0,0,1,104,76.08V71.81641A2.85982,2.85982,0,0,1,107.00293,69h5.99414A2.85982,2.85982,0,0,1,116,71.81641Z"/><text x="0" y="143" fill="#000000" font-size="5px" font-weight="bold" font-family="'Helvetica Neue', Helvetica, Arial-Unicode, Arial, Sans-serif">Created by priyanka</text><text x="0" y="148" fill="#000000" font-size="5px" font-weight="bold" font-family="'Helvetica Neue', Helvetica, Arial-Unicode, Arial, Sans-serif">from the Noun Project</text></svg>