<svg xmlns="http://www.w3.org/2000/svg" xmlns:xlink="http://www.w3.org/1999/xlink" version="1.1" x="0px" y="0px" viewBox="0 0 64 80" style="enable-background:new 0 0 64 64;" xml:space="preserve"><path d="M31,62h1.944c2.209,0,4-1.791,4-4H27C27,60.209,28.791,62,31,62z"/><path d="M16,34c0,5.15,2.72,9.7,6.86,12.43C24.8,47.71,26,49.76,26,52h5v-4.586l-3.293-3.293c-0.693-0.693-0.898-1.726-0.523-2.631  S28.435,40,29.414,40c0.637,0,1.259,0.258,1.708,0.708l0.585,0.585c0.162,0.161,0.424,0.162,0.586,0l0.586-0.585  C33.327,40.258,33.949,40,34.586,40c0.979,0,1.855,0.585,2.23,1.49s0.17,1.938-0.523,2.631l-1.586,1.586l-1.414-1.414l1.586-1.586  c0.17-0.17,0.129-0.356,0.09-0.451C34.929,42.16,34.826,42,34.586,42c-0.109,0-0.216,0.044-0.292,0.121l-0.587,0.586  c-0.941,0.94-2.473,0.941-3.414,0l-0.586-0.586C29.63,42.044,29.523,42,29.414,42c-0.24,0-0.343,0.16-0.383,0.256  c-0.039,0.095-0.08,0.281,0.09,0.451l3.586,3.586C32.895,46.48,33,46.735,33,47v5h5c0-1.12,0.3-2.19,0.84-3.14  c0.54-0.96,1.33-1.79,2.3-2.43C45.28,43.7,48,39.15,48,34H16z"/><rect x="31" y="2" width="2" height="4"/><rect x="58" y="31" width="4" height="2"/><rect x="2" y="31" width="4" height="2"/><rect x="9.988" y="8.988" transform="matrix(0.707 -0.7072 0.7072 0.707 -4.5513 10.9905)" width="2" height="4"/><rect x="53.878" y="9.988" transform="matrix(0.7072 -0.707 0.707 0.7072 8.5914 42.7221)" width="4" height="2"/><path d="M38,55c0-0.552-0.448-1-1-1H27c-0.552,0-1,0.448-1,1c0,0.552,0.448,1,1,1h10C37.552,56,38,55.552,38,55z"/><path d="M18.04,17.4C16.25,18.16,15,19.93,15,22h1c2.757,0,5,2.243,5,5v1h-2v-1c0-1.654-1.346-3-3-3h-0.553  c0.159,0.353,0.343,0.693,0.573,1C15.39,25.84,15,26.87,15,28c0,1.63,0.79,3.09,2,4h15v-4.234l3.041,1.825  C35.023,29.726,35,29.86,35,30c0,1.657,1.343,3,3,3s3-1.343,3-3c0-0.101-0.02-0.197-0.03-0.296l6.216-2.329  c0.146,0.112,0.303,0.209,0.469,0.293l-1.584,3.96l1.857,0.743l1.787-4.467C51.025,27.583,52,26.409,52,25c0-1.657-1.343-3-3-3  c-0.091,0-0.177,0.019-0.267,0.027l-1.463-5.086C47.719,16.416,48,15.744,48,15c0-1.657-1.343-3-3-3  c-0.713,0-1.359,0.259-1.873,0.674l-3.27-0.545C39.481,10.9,38.352,10,37,10c-1.416,0-2.596,0.985-2.911,2.305l-3.241,0.54  C29.931,11.728,28.557,11,27,11c-1.568,0-2.95,0.729-3.861,1.856C23.511,14.092,24.645,15,26,15h1v2h-1  c-2.378,0-4.365-1.672-4.869-3.899C19.34,13.498,18,15.089,18,17C18,17.14,18.03,17.27,18.04,17.4z M49,24c0.552,0,1,0.448,1,1  c0,0.552-0.448,1-1,1s-1-0.448-1-1C48,24.448,48.448,24,49,24z M38,31c-0.552,0-1-0.448-1-1c0-0.552,0.448-1,1-1s1,0.448,1,1  C39,30.552,38.552,31,38,31z M40.126,27.885c-0.26-0.261-0.57-0.471-0.911-0.623l0.597-2.387c0.509-0.144,0.967-0.407,1.327-0.774  l4.81,1.603L40.126,27.885z M45,14c0.552,0,1,0.448,1,1c0,0.552-0.448,1-1,1s-1-0.448-1-1C44,14.448,44.448,14,45,14z   M44.468,17.946C44.641,17.977,44.818,18,45,18c0.166,0,0.326-0.023,0.484-0.049l1.413,4.912c-0.247,0.243-0.445,0.533-0.596,0.849  l-4.328-1.443C41.981,22.18,42,22.093,42,22c0-0.462-0.113-0.895-0.3-1.286L44.468,17.946z M39.772,14.142l2.276,0.379  C42.023,14.678,42,14.836,42,15c0,0.723,0.266,1.377,0.691,1.894L40.286,19.3c-0.14-0.067-0.288-0.119-0.439-0.164l-0.792-3.96  C39.361,14.887,39.609,14.538,39.772,14.142z M39,21c0.552,0,1,0.448,1,1c0,0.552-0.448,1-1,1s-1-0.448-1-1  C38,21.448,38.448,21,39,21z M37,12c0.552,0,1,0.448,1,1c0,0.552-0.448,1-1,1s-1-0.448-1-1C36,12.448,36.448,12,37,12z   M34.305,14.296C34.79,15.301,35.81,16,37,16c0.061,0,0.117-0.014,0.177-0.018l0.651,3.256c-0.38,0.162-0.716,0.403-0.997,0.698  L32,16.485V16c0-0.448-0.078-0.875-0.189-1.288L34.305,14.296z M31,21h1v-2.057l4.019,2.871C36.015,21.877,36,21.936,36,22  c0,1.223,0.735,2.272,1.785,2.739l-0.597,2.387c-0.465,0.131-0.883,0.365-1.227,0.685L32,25.434V23h-1c-1.654,0-3,1.346-3,3h-2  C26,23.243,28.243,21,31,21z"/><text x="0" y="79" fill="#000000" font-size="5px" font-weight="bold" font-family="'Helvetica Neue', Helvetica, Arial-Unicode, Arial, Sans-serif">Created by Nithinan Tatah</text><text x="0" y="84" fill="#000000" font-size="5px" font-weight="bold" font-family="'Helvetica Neue', Helvetica, Arial-Unicode, Arial, Sans-serif">from the Noun Project</text></svg>