<svg xmlns="http://www.w3.org/2000/svg" xmlns:xlink="http://www.w3.org/1999/xlink" version="1.1" x="0px" y="0px" viewBox="0 0 90 112.5" style="enable-background:new 0 0 90 90;" xml:space="preserve"><g><path d="M75.5111542,13.7000332C64.4164505,26.6214333,53.3217545,39.5427322,42.2269554,52.4641342   c-4.3404999-4.8305016-8.6812019-9.6610031-13.021801-14.4916c-2.1553001-2.3985023-5.6820011,1.1469002-3.5355778,3.5355988   c4.9432774,5.5010986,9.8864765,11.0023003,14.8297787,16.5036011c0.8547974,0.9511986,2.6884995,0.9864998,3.5355988,0   C55.7055779,44.419632,67.3760529,30.8276329,79.0466537,17.2355328   C81.1327515,14.8060331,77.6116562,11.2537327,75.5111542,13.7000332z"/><path d="M71.3585739,35.4856339c4.2350006,13.6573982-1.2519226,28.5309982-14.22752,35.1278992   c-11.5900993,5.892601-26.1793003,3.0382004-34.7104797-6.7638016c-8.5551214-9.8295975-9.4153214-24.5884972-2.0054226-35.3237   c8.6431999-12.5221004,25.3492012-15.7125006,38.426899-8.3896008c2.8106995,1.573801,5.3345222-2.7434006,2.5236015-4.3174   C37.8224525,2.6360328,7.5747547,20.7901325,10.5144548,48.3558311   c2.7066994,25.3806038,32.8418999,39.0932045,53.5678978,23.8144035   c11.9062271-8.7771034,16.4393997-24.0119019,12.0976028-38.0138016   C75.22995,31.0927334,70.4017563,32.400032,71.3585739,35.4856339z"/></g><text x="0" y="105" fill="#000000" font-size="5px" font-weight="bold" font-family="'Helvetica Neue', Helvetica, Arial-Unicode, Arial, Sans-serif">Created by iconcheese</text><text x="0" y="110" fill="#000000" font-size="5px" font-weight="bold" font-family="'Helvetica Neue', Helvetica, Arial-Unicode, Arial, Sans-serif">from the Noun Project</text></svg>