<svg xmlns="http://www.w3.org/2000/svg" xmlns:xlink="http://www.w3.org/1999/xlink" version="1.1" x="0px" y="0px" viewBox="0 0 100 125" style="enable-background:new 0 0 100 100;" xml:space="preserve"><g><g><path d="M27.15,86.13c-0.04,0-0.09,0-0.13,0c-5.19-0.34-9.14-2.28-11.76-5.77c-4.34-5.79-3.54-14.06-3.07-17.03    c-4.47-4.66-6.66-9.75-6.5-15.16c0.23-8.14,5.75-14.47,7.96-16.69c-1.94-9.17,1.6-13.41,5-15.36c0.16-0.09,4.32-2.53,8.06-3.32    c1.08-0.23,2.14,0.47,2.37,1.55c0.23,1.08-0.47,2.14-1.55,2.37c-3.08,0.65-6.83,2.84-6.87,2.86c-3.42,1.96-4.38,6.02-2.86,12.07    c0.18,0.73-0.06,1.5-0.63,1.99c-0.07,0.06-7.25,6.45-7.48,14.66c-0.12,4.53,1.91,8.88,6.05,12.92c0.5,0.48,0.71,1.19,0.55,1.86    c-0.02,0.09-1.99,9.34,2.17,14.88c1.89,2.51,4.85,3.91,8.81,4.17c1.1,0.07,1.94,1.02,1.87,2.13    C29.08,85.32,28.2,86.13,27.15,86.13z"/></g><g><g><path d="M39.6,98.08c-1.14,0-2.29-0.14-3.42-0.42c-3.64-0.91-6.71-3.18-8.64-6.4c-3.19-5.3-2.5-12.18,1.68-16.73l6.85-7.45     c0.75-0.81,2.01-0.87,2.83-0.12c0.81,0.75,0.87,2.01,0.12,2.83l-6.85,7.45c-2.99,3.25-3.48,8.18-1.2,11.96     c1.38,2.3,3.58,3.93,6.18,4.58c2.6,0.65,5.31,0.25,7.61-1.14c3.13-1.88,4.85-4.72,4.85-8.02V16.5c0-5.65-4.59-10.25-10.24-10.25     c-5.65,0-10.25,4.6-10.25,10.25s4.6,10.25,10.25,10.25c1.1,0,2,0.9,2,2s-0.9,2-2,2c-7.86,0-14.25-6.39-14.25-14.25     c0-7.85,6.39-14.25,14.25-14.25c7.85,0,14.24,6.39,14.24,14.25v68.12c0,4.69-2.47,8.86-6.79,11.45     C44.6,97.4,42.12,98.08,39.6,98.08z"/></g><g><path d="M44.91,19.83c-1.52,0-3.05-0.49-4.33-1.5c-0.43-0.34-0.51-0.97-0.17-1.4c0.34-0.43,0.97-0.51,1.4-0.17     c2.17,1.71,5.33,1.33,7.04-0.84c0.23-0.3,0.43-0.61,0.58-0.93c0.7-1.46,0.48-3.01-0.66-4.61c-0.32-0.45-0.22-1.07,0.23-1.39     c0.45-0.32,1.07-0.22,1.39,0.23c1.55,2.18,1.85,4.54,0.84,6.64c-0.21,0.45-0.49,0.88-0.81,1.3     C49.05,18.92,46.99,19.83,44.91,19.83z"/></g><g><path d="M31.43,41.25c-0.08,0-0.16-0.01-0.24-0.03c-3.97-0.98-6.4-4.99-5.43-8.96c0.97-3.96,4.99-6.4,8.96-5.43     c0.54,0.13,0.86,0.67,0.73,1.21c-0.13,0.54-0.67,0.87-1.21,0.73c-2.89-0.71-5.83,1.06-6.54,3.96c-0.71,2.89,1.07,5.83,3.96,6.54     c0.54,0.13,0.86,0.67,0.73,1.21C32.29,40.95,31.88,41.25,31.43,41.25z"/></g><g><path d="M24.73,60.89c-0.55,0-1-0.45-1-1s0.45-1,1-1c5.53,0,13.63-10.32,16.28-14.29c0.03-0.04,0.05-0.07,0.08-0.11     c2.67-3.01,7.75-3.23,10.88-0.47c0.41,0.37,0.45,1,0.09,1.41c-0.37,0.41-1,0.45-1.41,0.09c-2.27-2.01-6.07-1.88-8.01,0.25     C41.83,46.96,32.29,60.89,24.73,60.89z"/></g><g><path d="M32.98,74.03c-0.11,0-0.21-0.02-0.32-0.05l-6.81-2.28c-0.52-0.17-0.81-0.74-0.63-1.27c0.17-0.52,0.74-0.8,1.27-0.63     l6.81,2.28c0.52,0.17,0.81,0.74,0.63,1.27C33.79,73.77,33.4,74.03,32.98,74.03z"/></g><g><path d="M32.76,56.12c-0.27,0-0.54-0.11-0.73-0.32c-4.34-4.7-10.56-7.66-10.62-7.69c-0.5-0.24-0.71-0.83-0.48-1.33     c0.24-0.5,0.83-0.71,1.33-0.48c0.27,0.13,6.63,3.16,11.24,8.14c0.38,0.41,0.35,1.04-0.06,1.41     C33.25,56.03,33.01,56.12,32.76,56.12z"/></g></g><g><g><path d="M85.91,79.77c-4.64,0-8.41-3.77-8.41-8.41c0-4.64,3.77-8.41,8.41-8.41c4.63,0,8.41,3.77,8.41,8.41     C94.32,76,90.55,79.77,85.91,79.77z M85.91,66.96c-2.43,0-4.41,1.98-4.41,4.41c0,2.43,1.98,4.41,4.41,4.41     c2.43,0,4.41-1.98,4.41-4.41C90.32,68.94,88.34,66.96,85.91,66.96z"/></g><g><path d="M79.42,72.37h-7.15c-0.27,0-0.52-0.11-0.71-0.29L60.3,60.81h-8.24c-0.55,0-1-0.45-1-1s0.45-1,1-1h8.65     c0.27,0,0.52,0.11,0.71,0.29l11.26,11.26h6.74c0.55,0,1,0.45,1,1S79.97,72.37,79.42,72.37z"/></g><g><path d="M71.04,86.23c-0.25,0-0.51-0.1-0.7-0.29L60.3,76.02h-8.24c-0.55,0-1-0.45-1-1s0.45-1,1-1h8.65c0.26,0,0.52,0.1,0.7,0.29     l10.32,10.21c0.39,0.39,0.4,1.02,0.01,1.41C71.55,86.13,71.3,86.23,71.04,86.23z"/></g><g><path d="M75.49,98.21c-4.64,0-8.41-3.77-8.41-8.41s3.77-8.41,8.41-8.41c4.63,0,8.41,3.77,8.41,8.41S80.13,98.21,75.49,98.21z      M75.49,85.39c-2.43,0-4.41,1.98-4.41,4.41s1.98,4.41,4.41,4.41c2.43,0,4.41-1.98,4.41-4.41S77.92,85.39,75.49,85.39z"/></g></g><g><g><path d="M85.91,37.04c-4.64,0-8.41-3.77-8.41-8.41s3.77-8.41,8.41-8.41c4.63,0,8.41,3.77,8.41,8.41S90.55,37.04,85.91,37.04z      M85.91,24.23c-2.43,0-4.41,1.98-4.41,4.41s1.98,4.41,4.41,4.41c2.43,0,4.41-1.98,4.41-4.41S88.34,24.23,85.91,24.23z"/></g><g><path d="M60.71,41.19h-8.65c-0.55,0-1-0.45-1-1s0.45-1,1-1h8.24l11.26-11.26c0.19-0.19,0.44-0.29,0.71-0.29h7.24     c0.55,0,1,0.45,1,1s-0.45,1-1,1h-6.82L61.42,40.89C61.23,41.08,60.98,41.19,60.71,41.19z"/></g><g><path d="M60.71,25.97h-8.65c-0.55,0-1-0.45-1-1s0.45-1,1-1h8.24l9.92-9.92c0.39-0.39,1.02-0.39,1.41,0s0.39,1.02,0,1.41     L61.42,25.68C61.23,25.87,60.98,25.97,60.71,25.97z"/></g><g><path d="M75.49,18.61c-4.64,0-8.41-3.77-8.41-8.41c0-4.64,3.77-8.41,8.41-8.41c4.63,0,8.41,3.77,8.41,8.41     C83.9,14.84,80.13,18.61,75.49,18.61z M75.49,5.79c-2.43,0-4.41,1.98-4.41,4.41c0,2.43,1.98,4.41,4.41,4.41     c2.43,0,4.41-1.98,4.41-4.41C79.9,7.77,77.92,5.79,75.49,5.79z"/></g></g><g><g><path d="M66.33,51H51.9c-0.55,0-1-0.45-1-1s0.45-1,1-1h14.42c0.55,0,1,0.45,1,1S66.88,51,66.33,51z"/></g><g><path d="M74.15,58.41c-4.64,0-8.41-3.77-8.41-8.41s3.77-8.41,8.41-8.41s8.41,3.77,8.41,8.41S78.79,58.41,74.15,58.41z      M74.15,45.59c-2.43,0-4.41,1.98-4.41,4.41s1.98,4.41,4.41,4.41s4.41-1.98,4.41-4.41S76.58,45.59,74.15,45.59z"/></g></g><g><path d="M51.59,85.7c-0.01,0-0.03,0-0.04,0c-0.55-0.02-0.98-0.49-0.96-1.04c0.06-1.42-0.65-2.71-1.86-3.36    c-1.76-0.95-3.97-0.29-4.92,1.48c-0.26,0.49-0.87,0.67-1.36,0.4c-0.49-0.26-0.67-0.87-0.4-1.36c1.48-2.73,4.9-3.76,7.63-2.29    c1.88,1.01,3,3.01,2.91,5.2C52.57,85.28,52.12,85.7,51.59,85.7z"/></g></g><text x="0" y="115" fill="#000000" font-size="5px" font-weight="bold" font-family="'Helvetica Neue', Helvetica, Arial-Unicode, Arial, Sans-serif">Created by Line Icons Pro</text><text x="0" y="120" fill="#000000" font-size="5px" font-weight="bold" font-family="'Helvetica Neue', Helvetica, Arial-Unicode, Arial, Sans-serif">from the Noun Project</text></svg>