<svg fill="#AFBFD2" xmlns="http://www.w3.org/2000/svg" xmlns:xlink="http://www.w3.org/1999/xlink" version="1.1" x="0px" y="0px" viewBox="0 0 52 65" style="enable-background:new 0 0 52 52;" xml:space="preserve"><g><path d="M38.6,12.1C1.7,26.8,2,25.8,2,27.1c0,0.4,0.3,0.8,0.6,0.9l15.5,5.9C24.2,49.3,23.6,50,24.9,50c0.1,0,0.7,0,0.9-0.6l14.1-36   c0.1-0.4,0.1-0.8-0.2-1.1S39,11.9,38.6,12.1z M24.9,46.2l-5.1-13.5c-0.1-0.3-0.3-0.5-0.6-0.6L5.8,27.1l31.5-12.3L24.9,46.2z"/><path d="M49,2h-6c-0.6,0-1,0.4-1,1v6c0,0.6,0.4,1,1,1h6c0.6,0,1-0.4,1-1V3C50,2.4,49.6,2,49,2z M48,8h-4V4h4V8z"/><rect x="36" y="5" width="2" height="2"/><rect x="30" y="5" width="2" height="2"/><rect x="24" y="5" width="2" height="2"/><rect x="18" y="5" width="2" height="2"/><rect x="12" y="5" width="2" height="2"/><rect x="6" y="5" width="2" height="2"/><rect x="45" y="14" width="2" height="2"/><rect x="45" y="20" width="2" height="2"/><rect x="45" y="26" width="2" height="2"/><rect x="45" y="32" width="2" height="2"/><rect x="45" y="38" width="2" height="2"/><rect x="45" y="44" width="2" height="2"/></g></svg>