<svg xmlns="http://www.w3.org/2000/svg" xmlns:xlink="http://www.w3.org/1999/xlink" version="1.1" x="0px" y="0px" viewBox="0 0 66 82.5" enable-background="new 0 0 66 66" xml:space="preserve"><g><path fill="#AFBFD2" d="M53.9258,36.3843c-2.7412,0-4.9712,2.2305-4.9712,4.9717s2.23,4.9712,4.9712,4.9712s4.9712-2.23,4.9712-4.9712   S56.667,36.3843,53.9258,36.3843z M53.9258,44.3271c-1.6382,0-2.9712-1.333-2.9712-2.9712c0-1.6387,1.333-2.9717,2.9712-2.9717   s2.9712,1.333,2.9712,2.9717C56.897,42.9941,55.564,44.3271,53.9258,44.3271z"/><path fill="#AFBFD2" d="M1,59.7588c0,1.0361,0.8428,1.8789,1.8789,1.8789h17.4277c1.0361,0,1.8789-0.8428,1.8789-1.8789V56.856h6.8898   c0.447,1.7114,1.9922,2.9844,3.8416,2.9844s3.3947-1.2729,3.8416-2.9844h6.4315c-0.213,0.8563-0.3386,1.7467-0.3386,2.668v1.1138   c0,0.5522,0.4478,1,1,1H64c0.5522,0,1-0.4478,1-1v-1.1138c0-6.106-4.9678-11.0737-11.0742-11.0737   c-4.4455,0-8.2771,2.6388-10.0383,6.4269c-0.0361-0.004-0.0676-0.0212-0.1048-0.0212h-7.0241   c-0.363-1.39-1.4517-2.4786-2.8416-2.8416v-4.754c5.0858-0.2372,8.8071-2.276,8.8071-4.9283v-8.8613h5.0444   c4.7456,0,8.6064-3.8545,8.6064-8.5923c0-3.5737-2.2261-6.7573-5.5103-8.0225c0.6217-6.786-4.7118-12.4937-11.3618-12.4937   c-3.8125,0-7.3496,1.9063-9.457,5.0361c-5.2786-2.6311-11.4442,1.4164-11.4399,6.9014c-5.0653-0.3221-9.1455,3.6929-9.1455,8.5786   c0,4.7378,3.8545,8.5923,8.5918,8.5923h5.0591v8.8613c0,2.652,3.7205,4.6906,8.8057,4.9283v4.754   c-1.39,0.363-2.4786,1.4517-2.8416,2.8416h-6.8898v-5.7974c0-1.0361-0.8428-1.8789-1.8789-1.8789l-9.6304,0.0288   c-2.4611-1.932-2.8217-2.7563-3.9536-2.7563H2.8789C1.8428,44.4521,1,45.2954,1,46.3315V59.7588z M44.8516,59.5239   c0-5.0034,4.0708-9.0737,9.0742-9.0737S63,54.5205,63,59.5239v0.1138h-3.5005v-3.0005c0-0.5522-0.4478-1-1-1s-1,0.4478-1,1v3.0005   h-7.1475v-3.0005c0-0.5522-0.4478-1-1-1s-1,0.4478-1,1v3.0005h-3.5005V59.5239z M40.7241,35.7607   c0,1.2036-3.041,2.9521-7.8062,2.9521c-4.7656,0-7.8066-1.7485-7.8066-2.9521V32.251c1.7618,1.1633,4.5464,1.8906,7.8066,1.8906   c3.2599,0,6.0445-0.7272,7.8062-1.8906V35.7607z M40.7241,29.1894c0,1.2036-3.041,2.9522-7.8062,2.9522   c-4.7656,0-7.8066-1.7485-7.8066-2.9522v-3.0381c1.7618,1.1633,4.5464,1.8906,7.8066,1.8906c3.2599,0,6.0445-0.7272,7.8062-1.8906   V29.1894z M32.918,26.042c-4.7656,0-7.8066-1.7485-7.8066-2.9521s3.041-2.9521,7.8066-2.9521c4.7651,0,7.8062,1.7485,7.8062,2.9521   S37.6831,26.042,32.918,26.042z M23.1113,23.0898c0,4.5353,0.0171,3.7855,0,8.3809h-5.0591c-3.6348,0-6.5918-2.9575-6.5918-6.5923   c0-4.0143,3.6039-7.3463,8.0522-6.4453c0.3291,0.0684,0.6626-0.0332,0.8989-0.2656c0.2368-0.2324,0.3428-0.5669,0.2837-0.8931   c-0.8677-4.7748,4.8299-8.5722,9.1382-5.6909c0.2334,0.1563,0.5215,0.2075,0.793,0.1406c0.272-0.0664,0.5039-0.2437,0.6392-0.4893   c1.6553-3.0054,4.8115-4.8726,8.2373-4.8726c5.7439,0,10.256,5.154,9.2788,11.0205c-0.0845,0.5068,0.2285,0.9946,0.7241,1.1294   c2.8667,0.7798,4.8691,3.3975,4.8691,6.3662c0,3.6348-2.9639,6.5923-6.6064,6.5923h-5.0444c-0.0171-4.5921,0-3.7126,0-8.3809   c0-2.8232-4.2158-4.9521-9.8062-4.9521C27.3271,18.1377,23.1113,20.2666,23.1113,23.0898z M25.1113,42.332v-3.5098   c1.7618,1.1633,4.5464,1.8906,7.8066,1.8906c3.2599,0,6.0445-0.7272,7.8062-1.8906v3.5098c0,1.2036-3.041,2.9521-7.8062,2.9521   C28.1523,45.2842,25.1113,43.5356,25.1113,42.332z M32.917,53.8716c1.0942,0,1.9844,0.8901,1.9844,1.9844   s-0.8901,1.9844-1.9844,1.9844s-1.9844-0.8901-1.9844-1.9844S31.8228,53.8716,32.917,53.8716z M3,46.4512l3.645-0.0273   c2.5372,1.9922,2.8257,2.7559,3.9531,2.7559h9.5874V51.04H3V46.4512z M3,53.04h17.1855v6.5977H3V53.04z"/></g><text x="0" y="81" fill="#000000" font-size="5px" font-weight="bold" font-family="'Helvetica Neue', Helvetica, Arial-Unicode, Arial, Sans-serif">Cloud Technlogy Development</text></svg>