<svg xmlns="http://www.w3.org/2000/svg" xmlns:xlink="http://www.w3.org/1999/xlink" version="1.1" x="0px" y="0px" viewBox="0 0 64 80" style="enable-background:new 0 0 64 64;" xml:space="preserve"><path fill="#0F2136" d="M49.052,8.738c-0.119,0.355-0.029,0.747,0.232,1.016l1.647,1.688l-0.391,2.396c-0.062,0.378,0.098,0.758,0.411,0.979  c0.314,0.22,0.724,0.244,1.06,0.058L54,13.776l1.988,1.099C56.14,14.959,56.306,15,56.472,15c0.202,0,0.404-0.062,0.576-0.183  c0.313-0.221,0.473-0.601,0.411-0.979l-0.391-2.396l1.647-1.688c0.262-0.269,0.352-0.66,0.232-1.016s-0.427-0.614-0.797-0.671  l-2.236-0.342l-1.009-2.15C54.741,5.225,54.388,5,54,5s-0.741,0.225-0.905,0.575l-1.009,2.15l-2.236,0.342  C49.479,8.124,49.171,8.383,49.052,8.738z M52.915,9.622c0.33-0.05,0.613-0.262,0.754-0.563L54,8.354l0.331,0.704  c0.142,0.302,0.425,0.514,0.754,0.563l0.84,0.129l-0.641,0.656c-0.222,0.228-0.322,0.546-0.271,0.859l0.141,0.862l-0.67-0.37  c-0.151-0.083-0.317-0.125-0.484-0.125s-0.333,0.042-0.484,0.125l-0.67,0.37l0.141-0.862c0.051-0.313-0.049-0.632-0.271-0.859  l-0.641-0.656L52.915,9.622z"/><path fill="#0F2136" d="M57.982,15.758c-0.463,0.321-0.964,0.586-1.49,0.786l0.713,1.869c0.677-0.259,1.321-0.599,1.917-1.011L57.982,15.758z"/><path fill="#0F2136" d="M48.906,17.421c0.597,0.41,1.243,0.748,1.921,1.004l0.706-1.871c-0.527-0.199-1.03-0.462-1.494-0.781L48.906,17.421z"/><path fill="#0F2136" d="M50.762,1.601l0.721,1.865c0.525-0.202,1.074-0.341,1.631-0.41l-0.247-1.984C52.147,1.161,51.439,1.339,50.762,1.601z"/><path fill="#0F2136" d="M61.939,5.76l-1.763,0.945c0.265,0.495,0.47,1.022,0.608,1.569l1.938-0.492C62.545,7.079,62.282,6.398,61.939,5.76z"/><path fill="#0F2136" d="M54.804,3.045c0.562,0.064,1.113,0.196,1.639,0.393l0.698-1.875c-0.678-0.252-1.388-0.422-2.11-0.504L54.804,3.045z"/><path fill="#0F2136" d="M53.171,16.951l-0.237,1.986c0.358,0.043,0.725,0.047,1.088,0.062c0.356,0,0.718-0.022,1.078-0.066l-0.242-1.984  C54.584,16.982,54.306,17,54.02,17C53.719,16.983,53.45,16.984,53.171,16.951z"/><path fill="#0F2136" d="M59.244,14.636l1.497,1.326c0.481-0.543,0.895-1.143,1.231-1.783l-1.771-0.93C59.94,13.747,59.618,14.214,59.244,14.636z"/><path fill="#0F2136" d="M48.773,14.656c-0.375-0.421-0.699-0.886-0.962-1.383l-1.768,0.936c0.339,0.64,0.755,1.238,1.238,1.779L48.773,14.656z"/><path fill="#0F2136" d="M45.25,7.883l1.944,0.469c0.131-0.547,0.33-1.077,0.59-1.578l-1.774-0.922C45.676,6.496,45.42,7.18,45.25,7.883z"/><path fill="#0F2136" d="M60.696,3.985c-0.485-0.54-1.034-1.02-1.631-1.426l-1.126,1.652c0.464,0.316,0.891,0.69,1.27,1.111L60.696,3.985z"/><path fill="#0F2136" d="M60.799,11.675l1.942,0.477C62.913,11.451,63,10.728,63,10V9.938L61,10C61,10.567,60.932,11.131,60.799,11.675z"/><path fill="#0F2136" d="M45.267,12.185l1.94-0.484c-0.136-0.543-0.206-1.106-0.208-1.674l-2,0.008C45.003,10.762,45.093,11.485,45.267,12.185z"/><path fill="#0F2136" d="M47.236,4.063l1.502,1.32c0.373-0.424,0.795-0.803,1.257-1.124l-1.145-1.641C48.258,3.033,47.714,3.52,47.236,4.063z"/><path fill="#AFBFD2" d="M7,50c-0.552,0-1,0.447-1,1v10c0,0.553,0.448,1,1,1h8c0.552,0,1-0.447,1-1V51c0-0.553-0.448-1-1-1H7z M14,60H8v-8h6V60z"/><path fill="#AFBFD2" d="M30,61V47c0-0.553-0.448-1-1-1h-8c-0.552,0-1,0.447-1,1v14c0,0.553,0.448,1,1,1h8C29.552,62,30,61.553,30,61z M28,60h-6V48  h6V60z"/><path fill="#AFBFD2" d="M44,41c0-0.553-0.448-1-1-1h-8c-0.552,0-1,0.447-1,1v20c0,0.553,0.448,1,1,1h8c0.552,0,1-0.447,1-1V41z M42,60h-6V42h6V60z"/><path fill="#AFBFD2" d="M49,62h8c0.552,0,1-0.447,1-1V33c0-0.553-0.448-1-1-1h-8c-0.552,0-1,0.447-1,1v28C48,61.553,48.448,62,49,62z M50,34h6v26  h-6V34z"/><path fill="#0F2136" d="M44.866,15.887c-0.145-0.25-0.389-0.425-0.672-0.481c-4.289-0.848-8.672-0.345-12.582,1.34  c-2.164-1.361-4.825-1.652-7.239-0.744l-4.776,1.788c-0.401,0.15-0.662,0.538-0.649,0.966c0.012,0.428,0.295,0.8,0.704,0.926  l1.442,0.445c1.203,0.322,2.255,1,3.059,1.913l-0.169,0.163c-0.33,0.319-0.4,0.821-0.171,1.219l4,6.929  c0.182,0.315,0.516,0.5,0.866,0.5c0.091,0,0.184-0.013,0.275-0.039l0.225-0.064c0.389,1.154,0.448,2.41,0.119,3.642l-0.326,1.436  c-0.095,0.417,0.086,0.849,0.45,1.073c0.162,0.1,0.344,0.148,0.525,0.148c0.227,0,0.452-0.077,0.636-0.229l3.936-3.242  c1.994-1.637,3.071-4.085,2.976-6.64c3.415-2.543,6.042-6.087,7.452-10.227C45.04,16.437,45.01,16.137,44.866,15.887z   M22.942,18.673l2.133-0.799c1.412-0.531,2.937-0.517,4.313-0.011c-1.345,0.777-2.609,1.713-3.773,2.785  C24.867,19.813,23.956,19.139,22.942,18.673z M33.248,32.032l-1.76,1.449c0.104-1.118-0.024-2.242-0.371-3.304  c1.511-0.472,2.953-1.098,4.299-1.875C35.165,29.747,34.415,31.074,33.248,32.032z M30.076,28.411l-0.921,0.263l-3.219-5.576  l0.688-0.666c4.266-4.124,10.179-6.049,16.013-5.258C40.4,22.622,35.78,26.779,30.076,28.411z"/><path fill="#0F2136" d="M36.777,18.103c-0.772-0.207-1.582-0.101-2.276,0.3c-0.694,0.4-1.191,1.047-1.398,1.821s-0.101,1.583,0.3,2.276  c0.401,0.694,1.048,1.19,1.822,1.398c0.258,0.069,0.521,0.104,0.781,0.104c0.52,0,1.033-0.137,1.496-0.403  c1.432-0.828,1.924-2.666,1.097-4.099C38.198,18.806,37.551,18.31,36.777,18.103z M36.5,21.866  c-0.231,0.133-0.499,0.169-0.758,0.101c-0.258-0.069-0.474-0.235-0.608-0.467c-0.133-0.231-0.168-0.5-0.1-0.759  c0.069-0.258,0.235-0.473,0.466-0.606c0,0,0,0,0.001,0C35.655,20.045,35.826,20,35.999,20c0.087,0,0.174,0.012,0.26,0.034  c0.258,0.069,0.474,0.234,0.607,0.466C37.142,20.978,36.978,21.591,36.5,21.866z"/><path fill="#0F2136" d="M24.123,30.666c0.472-0.878,0.457-1.917-0.042-2.779c-0.498-0.863-1.39-1.396-2.386-1.426  c-1.005-0.041-1.918,0.448-2.468,1.28l-2.043,3.095c-0.209,0.315-0.221,0.723-0.032,1.051c0.18,0.311,0.51,0.5,0.866,0.5  c0.02,0,0.04-0.001,0.06-0.002l3.702-0.223C22.775,32.103,23.651,31.544,24.123,30.666z M21.661,30.166l-1.705,0.103l0.941-1.426  c0.225-0.34,0.558-0.384,0.714-0.384c0.009,0,0.017,0,0.024,0.001c0.143,0.004,0.499,0.054,0.714,0.427  c0.215,0.372,0.08,0.705,0.012,0.832C22.294,29.845,22.09,30.141,21.661,30.166L21.661,30.166z"/><path fill="#0F2136" d="M2.406,36.914l8.126-3.612l0.573,1.146c0.247,0.494,0.847,0.693,1.342,0.447l4-2l-0.895-1.789l-3.105,1.553l-0.553-1.105  c-0.24-0.479-0.813-0.685-1.301-0.467l-9,4L2.406,36.914z"/></svg>