<svg xmlns:dc="http://purl.org/dc/elements/1.1/" xmlns:cc="http://creativecommons.org/ns#" xmlns:rdf="http://www.w3.org/1999/02/22-rdf-syntax-ns#" xmlns:svg="http://www.w3.org/2000/svg" xmlns="http://www.w3.org/2000/svg" xmlns:sodipodi="http://sodipodi.sourceforge.net/DTD/sodipodi-0.dtd" xmlns:inkscape="http://www.inkscape.org/namespaces/inkscape" viewBox="0 0 46 57.50000125" version="1.1" x="0px" y="0px"><g transform="translate(0,-1006.3622)"><path style="color:#000000;font-style:normal;font-variant:normal;font-weight:normal;font-stretch:normal;font-size:medium;line-height:normal;font-family:sans-serif;text-indent:0;text-align:start;text-decoration:none;text-decoration-line:none;text-decoration-style:solid;text-decoration-color:#000000;letter-spacing:normal;word-spacing:normal;text-transform:none;direction:ltr;block-progression:tb;writing-mode:lr-tb;baseline-shift:baseline;text-anchor:start;white-space:normal;clip-rule:nonzero;display:inline;overflow:visible;visibility:visible;opacity:0.9;isolation:auto;mix-blend-mode:normal;color-interpolation:sRGB;color-interpolation-filters:linearRGB;solid-color:#000000;solid-opacity:0.9;fill:#AFBFD2;fill-opacity:0.3;fill-rule:nonzero;stroke:none;stroke-width:0.99999994px;stroke-linecap:round;stroke-linejoin:round;stroke-miterlimit:4;stroke-dasharray:none;stroke-dashoffset:0;stroke-opacity:0.5;color-rendering:auto;image-rendering:auto;shape-rendering:auto;text-rendering:auto;enable-background:accumulate" d="m 23,1006.3622 c 12.708464,0 22.999989,10.2916 23,23 0,12.7085 -10.291529,23 -23,23 -12.708472,0 -23,-10.2915 -23,-23 1.1e-5,-12.7084 10.291536,-23 23,-23 z m 0.876953,7.0762 0,0 -0.126953,0.9981 0.236328,0.027 0.572266,0.127 0.01367,0 0.07031,0.023 0.296875,-0.9551 -0.111328,-0.035 -0.04297,-0.01 -0.613281,-0.1348 -0.04297,-0.01 z m -2.123047,0.012 -0.304687,0.039 -0.04102,0.01 -0.613281,0.1367 -0.04297,0.01 -0.06055,0.019 0.298828,0.9551 0.05469,-0.019 0.0078,0 0.548828,-0.1211 0.285157,-0.037 z m -3.005859,1.0547 -0.347656,0.2207 -0.0332,0.019 -0.47461,0.3535 0.59961,0.8028 0.439453,-0.3321 0.01172,-0.01 0.333985,-0.207 z m 8.132812,0.029 -0.527343,0.8379 0.292968,0.1816 0.0098,0.01 0.441406,0.3281 0.0078,0.01 0.0098,0.01 0.07813,-0.1074 0.572266,-0.6504 -0.02344,-0.019 -0.03125,-0.027 -0.494141,-0.3652 -0.0332,-0.022 z m -4.076171,0.832 c -3.132855,0 -5.679688,2.5673 -5.679688,5.7168 2e-6,1.7306 0.86917,2.899 1.636719,4.0586 0.453028,0.6845 0.879428,1.375 1.15625,2.2266 l -0.373047,-0.1817 -0.0039,0 -0.300782,-0.1816 -0.517578,0.8554 0.304688,0.1836 0.03906,0.02 0.578125,0.2851 0.351563,-0.7187 c 0.141249,0.5117 0.229725,1.0824 0.234375,1.7461 -0.0056,0.045 -0.005,0.091 0.002,0.1367 l 0,2.4297 c 4.5e-5,0.033 0.0033,0.066 0.0098,0.098 0.01691,0.081 0.05383,0.1572 0.107421,0.2207 0.09512,0.1129 0.235233,0.1779 0.382813,0.1778 l 1.605469,0 0,4.5273 c -0.872791,-1.8417 -2.735013,-3.1019 -4.871179,-3.1035 l -0.002,0 c -0.638398,0 -1.270936,0.1189 -1.869141,0.3418 -0.21464,0.08 -0.347425,0.2957 -0.322265,0.5234 0.309663,2.7266 2.625025,4.7949 5.36914,4.7969 l 0.002,0 c 0.577338,0 1.146658,-0.1079 1.69336,-0.291 l 0,6.1289 1,0 0,-3.7891 c 0.541656,0.1812 1.105644,0.2872 1.677734,0.2891 l 0.002,0 c 2.718361,0 5.011678,-2.049 5.31836,-4.75 0.02611,-0.2284 -0.106852,-0.4452 -0.322266,-0.5254 -0.592586,-0.2208 -1.219161,-0.3357 -1.851563,-0.3379 l -0.0039,0 c -2.113748,0 -3.955266,1.2468 -4.820312,3.0684 l 0,-6.8789 1.539062,0 c 0.01692,8e-4 0.03386,8e-4 0.05078,0 0.03312,0 0.06584,-0.01 0.09766,-0.02 0.208766,-0.065 0.351154,-0.2579 0.351562,-0.4765 l 0,-2.4317 c 0.0073,-0.047 0.0079,-0.094 0.002,-0.1406 0.0053,-0.6783 0.09672,-1.261 0.244141,-1.7812 l 0.369141,0.7461 0.578124,-0.2852 0.03906,-0.022 0.257813,-0.1582 -0.519532,-0.8535 -0.240234,0.1465 -0.416016,0.2051 c 0.276822,-0.8516 0.703221,-1.5422 1.15625,-2.2266 0.767552,-1.1596 1.636719,-2.328 1.636719,-4.0586 -10e-5,-3.1495 -2.546842,-5.7168 -5.679687,-5.7168 z m 0,1 c 2.588522,0 4.679686,2.1039 4.679687,4.7168 0,1.3996 -0.684331,2.3198 -1.470703,3.5078 -0.716219,1.0822 -1.411373,2.4475 -1.542969,4.3399 l -1.166015,0 0,-3.1875 c 0.0096,-0.6762 -1.00956,-0.6762 -1,0 l 0,3.1875 -1.166016,0 c -0.131595,-1.8924 -0.826754,-3.2577 -1.542969,-4.3399 -0.786369,-1.188 -1.470701,-2.1082 -1.470703,-3.5078 0,-2.6129 2.091152,-4.7168 4.679688,-4.7168 z m -6.390626,0.3047 0,0 -0.269531,0.4043 -0.02344,0.031 -0.25,0.4551 0.873047,0.4824 0.238281,-0.4296 0.261719,-0.3829 z m 12.792969,0.022 -0.826172,0.5625 0.226563,0.3359 0.271484,0.4805 0.871094,-0.4902 -0.277344,-0.4961 -0.02344,-0.035 z m -14.058593,2.8672 -0.0039,0.012 -0.0098,0.043 -0.103516,0.6367 -0.0059,0.043 -0.02532,0.3399 0.998047,0.074 0.02539,-0.3281 0.08984,-0.5625 0.002,-0.012 0.002,0 0.0039,-0.025 -0.324219,-0.057 z m 15.326171,0.062 -0.986328,0.166 0.0957,0.5722 0.0293,0.375 0.998047,-0.08 -0.03125,-0.3926 -0.0059,-0.043 z m -14.355468,2.9414 -0.982422,0.1875 0.0293,0.1601 0.0098,0.041 0.16211,0.5938 0.01367,0.041 0.07617,0.207 0.939454,-0.3437 -0.07422,-0.2031 -0.002,-0.012 -0.144532,-0.5293 z m 13.365234,0.031 -0.01758,0.094 -0.148438,0.5547 -0.0039,0.014 -0.08008,0.2168 0.939453,0.3418 0.09375,-0.2578 0.01172,-0.041 0.162109,-0.5938 0.0078,-0.041 0.01953,-0.1094 z m -12.261719,2.5137 -0.824218,0.5683 0.130859,0.1915 0.02539,0.033 0.390624,0.4765 0.0293,0.033 0.103516,0.1074 0.71875,-0.6972 -0.0957,-0.1 -0.0098,-0.012 -0.347656,-0.4257 z m 11.150391,0.025 -0.09375,0.1347 -0.0078,0.012 -0.349609,0.4277 -0.126953,0.1328 0.720703,0.6934 0.140625,-0.1465 0.02734,-0.031 0.388672,-0.4785 0.02539,-0.031 0.101563,-0.1504 z m -7.140625,4.7949 1.480469,0 c 0.0575,0.01 0.11633,0.01 0.173828,0 l 1.490234,0 0,1.5117 -3.144531,0 z m -3.765625,4.9355 0.002,0 c 2.083481,0 3.794466,1.4766 4.238281,3.4688 -0.351018,0.09 -0.700934,0.1921 -1.064453,0.1934 -2.084963,0 -3.79693,-1.4751 -4.240234,-3.4688 0.351016,-0.09 0.70093,-0.1919 1.064453,-0.1934 z m 10.691406,2.3868 0.002,0 c 0.357547,0 0.701528,0.1034 1.046875,0.1914 -0.440611,1.9665 -2.129803,3.4194 -4.1875,3.4218 -0.358166,0 -0.702891,-0.1013 -1.048828,-0.1894 0.44061,-1.9665 2.129801,-3.4212 4.1875,-3.4238 z"/></g></svg>