<svg fill="" xmlns="http://www.w3.org/2000/svg" xmlns:xlink="http://www.w3.org/1999/xlink" version="1.1" x="0px" y="0px" viewBox="0 0 90 112.5" style="enable-background:new 0 0 90 90;" xml:space="preserve"><path d="M69.8,37c-1.2,0-2.3,0.1-3.4,0.4l-2.6-6.6c0,0,0-0.1-0.1-0.1c0-0.1,0-0.1,0-0.2l-0.4-1c-0.1-0.3-0.3-0.6-0.6-0.8l-0.9-2.8  l6.7,0c0.1,0,2.5,0.1,4.8-2.1c0.4-0.4,0.4-1,0-1.4s-1-0.4-1.4,0c-1.6,1.6-3.2,1.6-3.3,1.6h-8.1c-0.3,0-0.6,0.2-0.8,0.4  c-0.2,0.3-0.2,0.6-0.1,0.9l1.1,3.3c-0.5,0.2-0.8,0.6-0.9,1.1l-23.9,0l-1.7-6.2c0,0,0-0.1,0-0.1h3.5c0.6,0,1.1-0.4,1.1-0.9  c0-0.3-0.2-0.5-0.5-0.5l-8.8-0.4c-0.6,0-1.1,0.4-1.1,0.9c0,0.5,0.5,0.9,1.1,0.9h0.9c-0.1,0.4-0.1,0.8,0,1.2l1.7,6.4c0,0,0,0,0,0  l1.4,5.1l-3.7,4.2c-2.6-1.9-5.8-3.1-9.3-3.1c-8.7,0-15.8,7.1-15.8,15.8c0,8.7,7.1,15.8,15.8,15.8c7.1,0,13.1-4.7,15.1-11.1l0.8,0.1  c0.6,1.7,2,3.1,3.7,3.5v1.4H39c-0.6,0-1,0.4-1,1s0.4,1,1,1h3.6c0.6,0,1-0.4,1-1s-0.4-1-1-1h-0.8v-1.3c2.6-0.4,4.6-2.5,4.6-5.2  c0-0.7-0.1-1.4-0.4-2l16.3-16.1l0.4,1c-5.1,2.6-8.6,7.9-8.6,14c0,8.7,7.1,15.8,15.8,15.8s15.8-7.1,15.8-15.8  C85.6,44.1,78.5,37,69.8,37z M32.4,42.8l2-2.3L37.6,52c-0.5,0.4-0.9,1-1.2,1.5l-0.4-0.1c0-0.2,0-0.5,0-0.7  C36,49,34.6,45.6,32.4,42.8z M43.1,51.1c-0.6-0.2-1.2-0.4-1.8-0.4l-4-14.8c0,0,0,0,0,0l-0.6-2.3l23.9,0l0.1,0.2L43.1,51.1z   M69.8,63.9c-6.1,0-11.1-5-11.1-11.1c0-4.1,2.3-7.7,5.6-9.6l3.5,8.8c-0.1,0.3-0.2,0.7-0.2,1.1c0,1.5,1.2,2.8,2.8,2.8  c1.5,0,2.8-1.2,2.8-2.8c0-1.1-0.6-2-1.6-2.5l-3.4-8.7c0.6-0.1,1.1-0.1,1.7-0.1c6.1,0,11.1,5,11.1,11.1  C80.9,58.9,75.9,63.9,69.8,63.9z"/>
<!-- <text x="0" y="105" fill="#000000" font-size="5px" font-weight="bold" font-family="'Helvetica Neue', Helvetica, Arial-Unicode, Arial, Sans-serif">Created by Left Martinez</text><text x="0" y="110" fill="#000000" font-size="5px" font-weight="bold" font-family="'Helvetica Neue', Helvetica, Arial-Unicode, Arial, Sans-serif">from the Noun Project</text> -->
</svg>