<svg xmlns="http://www.w3.org/2000/svg" xmlns:xlink="http://www.w3.org/1999/xlink" xmlns:xodm="http://www.corel.com/coreldraw/odm/2003" xml:space="preserve" version="1.1" style="shape-rendering:geometricPrecision;text-rendering:geometricPrecision;image-rendering:optimizeQuality;" viewBox="0 0 141.8 154.4875" x="0px" y="0px" fill-rule="evenodd" clip-rule="evenodd"><defs><style type="text/css">
   
    .fil1 {fill:black}
    .fil0 {fill:black;fill-rule:nonzero}
   
  </style></defs><g><path fill="#AFBFD2" d="M3.33 0l135.13 0c1.84,0 3.33,1.5 3.33,3.33l0 92.34c0,1.84 -1.5,3.33 -3.33,3.33l-44.69 0 0 11.91c3.43,1.35 6.68,3.22 9.61,5.55 1.44,1.14 1.67,3.24 0.53,4.67 -1.14,1.44 -3.24,1.67 -4.67,0.53 -5.44,-4.34 -12.07,-6.67 -19.03,-6.67l-17.17 0c-7.54,0 -14.69,2.75 -20.33,7.75 -1.37,1.22 -3.48,1.1 -4.7,-0.28 -1.22,-1.37 -1.1,-3.48 0.28,-4.7 2.93,-2.6 6.22,-4.72 9.74,-6.27l0 -12.5 -44.69 0c-1.84,0 -3.33,-1.5 -3.33,-3.33l0 -92.34c0,-1.84 1.5,-3.33 3.33,-3.33zm83.77 99.01l-32.41 0 0 10.28c2.72,-0.63 5.51,-0.95 8.34,-0.95l17.17 0c2.33,0 4.64,0.22 6.9,0.65l0 -9.97zm-80.44 -33.18l128.46 0 0 -59.16 -128.46 0 0 59.16zm128.46 6.67l-128.46 0 0 19.85 128.46 0 0 -19.85z"/><path class="" fill="#AFBFD2" d="M70.9 77.5c2.72,0 4.92,2.2 4.92,4.92 0,2.72 -2.2,4.92 -4.92,4.92 -2.72,0 -4.92,-2.2 -4.92,-4.92 0,-2.72 2.2,-4.92 4.92,-4.92z"/></g></svg>