<?xml version="1.0" encoding="iso-8859-1"?>
<!-- Uploaded to: SVG Repo, www.svgrepo.com, Generator: SVG Repo Mixer Tools -->
<svg height="800px" width="800px" version="1.1" id="Layer_1" xmlns="http://www.w3.org/2000/svg" xmlns:xlink="http://www.w3.org/1999/xlink" 
	 viewBox="0 0 512 512" xml:space="preserve">
<path style="fill:#ABECEC;" d="M305.816,470.487c0-18.342,0-71.957,0-71.957h-99.632v55.351l22.141,38.746l77.492,11.07h33.211
	C320.686,503.697,305.816,488.829,305.816,470.487z"/>
<path style="fill:#D5F6F5;" d="M272.605,470.487v-16.605h-66.422v16.605c0,18.342-14.868,33.211-33.211,33.211h132.843
	C287.475,503.697,272.605,488.829,272.605,470.487z"/>
<path style="fill:#027372;" d="M474.638,44.281h-33.211l33.211,354.249l33.211-44.281V77.492
	C507.849,59.226,492.904,44.281,474.638,44.281z"/>
<path style="fill:#02ACAB;" d="M474.638,77.492c0-18.266-14.945-33.211-33.211-33.211H37.362c-18.266,0-33.211,14.945-33.211,33.211
	v276.757l470.487,44.281V77.492z"/>
<path style="fill:#ABECEC;" d="M474.638,354.249l-33.211,66.422h33.211c18.266,0,33.211-14.945,33.211-33.211v-33.211H474.638z"/>
<polygon style="fill:#DFC136;" points="267.07,97.418 267.07,376.389 322.422,354.249 322.422,119.559 "/>
<polygon style="fill:#FEDC3D;" points="256,97.418 233.859,376.389 289.211,376.389 289.211,97.418 "/>
<polygon style="fill:#FFE777;" points="189.578,354.249 189.578,119.559 256,90.378 256,376.389 "/>
<polygon style="fill:#FFDBCC;" points="288.289,58.119 247.313,48.432 289.211,119.559 322.422,119.559 "/>
<polygon style="fill:#FFFFFF;" points="269.454,48.432 223.711,58.119 189.578,119.559 289.211,119.559 "/>
<polygon style="fill:#272727;" points="288.289,58.119 256,0 256,44.281 272.144,58.119 "/>
<polygon style="fill:#4D4D4D;" points="256,0 223.711,58.119 272.144,58.119 "/>
<path style="fill:#D5F6F5;" d="M474.638,387.459v-33.211H4.151v33.211c0,18.266,14.945,33.211,33.211,33.211h404.065
	C459.693,420.67,474.638,405.725,474.638,387.459z"/>
<path style="fill:#81E3E2;" d="M405.448,512H106.55c-4.586,0-8.303-3.716-8.303-8.303c0-4.586,3.716-8.303,8.303-8.303h298.897
	c4.586,0,8.303,3.716,8.303,8.303C413.75,508.284,410.034,512,405.448,512z"/>
<circle style="fill:#027372;" cx="256" cy="387.459" r="8.303"/>
</svg>