<?xml version="1.0" encoding="utf-8"?>
<!-- Uploaded to: SVG Repo, www.svgrepo.com, Generator: SVG Repo Mixer Tools -->
<svg width="800px" height="800px" viewBox="0 -36.5 378.383 378.383" xmlns="http://www.w3.org/2000/svg"><defs><style>.a{fill:#ffffff;}.b{fill:#bdbdbd;}.c{fill:#211715;}.d{fill:#3d8dcc;}.e{fill:#b3b3b3;}.f{fill:#85807f;}.g{fill:none;}</style></defs><path class="a" d="M328.6,131.38a47.509,47.509,0,0,0,10.614-26.639,48.158,48.158,0,0,0-5.578-25.257c-9.477-17.387-21.7-21.423-29.31-23.138a48.551,48.551,0,0,0-22.146.481c-14.568,3.529-22.016,12.866-23.338,14.977a33.466,33.466,0,0,0-5.488,14.264,47.655,47.655,0,0,0-1.1,8.144c-.792,6.167-1.867,14.724-7.825,17.232a5.789,5.789,0,0,0-2.885,2.38c-1.657,2.945.86,4.587,2.329,6.522a9.52,9.52,0,0,1,1.757,4.224,59.037,59.037,0,0,0,.381,9.035,25.038,25.038,0,0,0,1.428,6.173,11.865,11.865,0,0,0,5.912,6.635c4.514,2.173,10.862,3.413,15.12,2.7a2.065,2.065,0,0,1,2.31,1.45,54.983,54.983,0,0,1,2.695,6.968l.088.3a46.881,46.881,0,0,1,14.317-6.988,85.767,85.767,0,0,1,24.016-3.668c.185,0,.368,0,.548.019,2.611-3.707,7.341-6.985,10.319-9.652A52.455,52.455,0,0,0,328.6,131.38Z"/><path class="b" d="M281.851,98.429a49.1,49.1,0,0,1-.036,11.14c.852.17,3.89.957,4.742,1.126l.611.121a6.7,6.7,0,0,1,2.852-.958,5.919,5.919,0,0,1,4.845,1.486c1.808,1.767,2.288,4.984,1.794,7.5a14.893,14.893,0,0,1-6.785,10.274c.172.9.311,1.614.311,1.614a25.921,25.921,0,0,0,5.018,11.1c2.494,2.827,9.26,5.367,13.427,6.3l2.839.677c2.2-4.38,7.894-8.227,11.3-11.276,6.112-5.476,15.3-16.426,16.447-32.8a48.158,48.158,0,0,0-5.578-25.257c-8.5-15.584-19.2-20.443-26.8-22.518-.88-.24-1.719-.442-2.508-.62a48.551,48.551,0,0,0-22.146.481c-14.568,3.529-22.016,12.866-23.338,14.977a34.186,34.186,0,0,0-4.655,10.187l.287.357a14.218,14.218,0,0,0,4.664,3.118c6.04,2.84,13.482,6.811,19.4,9.668a6.425,6.425,0,0,1,2.084,1.374,4.718,4.718,0,0,1,1.144,2.6,43.36,43.36,0,0,1,.049,10.457c.852.17,3.89.957,4.742,1.126"/><path class="c" d="M275.407,157a51.975,51.975,0,0,0-1.81-4.972q-.38-.9-.781-1.794c-.067-.148-.13-.3-.2-.444-.19-.38.277.668-.026-.076-1.5-3.68-5.6-2.229-8.67-2.479a27.241,27.241,0,0,1-9.554-2.547,10.62,10.62,0,0,1-5.382-6.51,37.956,37.956,0,0,1-1.386-11.259,11.156,11.156,0,0,0-3.313-9.172c-.669-.757-1.57-1.6-1.138-2.68.559-1.4,2.212-1.741,3.373-2.444a13.341,13.341,0,0,0,5.174-6.54c2.816-6.783,2.146-14.3,4.048-21.3.676-2.487-3.181-3.549-3.857-1.063-1.739,6.4-1.331,13.156-3.375,19.489-.752,2.328-1.945,4.765-4.138,6.038-1.451.843-2.878,1.372-3.966,2.742a5.773,5.773,0,0,0-1.272,4.8c.688,3.1,4.118,4.63,4.493,7.907.184,1.607-.031,3.341.052,4.966a54.432,54.432,0,0,0,.635,6.055,18.273,18.273,0,0,0,4.36,9.732c2.2,2.34,5.276,3.579,8.295,4.484a27.549,27.549,0,0,0,11.192,1.233c.794-.1.6-.276.923.475.151.343.312.683.464,1.025a46.8,46.8,0,0,1,2,5.4c.748,2.456,4.61,1.409,3.857-1.063Z"/><path class="c" d="M255.239,86.884a33.309,33.309,0,0,1,2.792-9.6,46.888,46.888,0,0,1,2.337-4.146c.159-.256.319-.51.491-.758.108-.154.6-.8.267-.373a36.039,36.039,0,0,1,10.024-8.583,46.22,46.22,0,0,1,39.1-3.254c11.41,4.3,20.247,14.854,24.293,26.257a44.762,44.762,0,0,1,2,23.42,46.326,46.326,0,0,1-7.717,17.929,56.517,56.517,0,0,1-10.62,10.986,41.237,41.237,0,0,0-7.185,7,12.151,12.151,0,0,0-2.428,8.072,44.636,44.636,0,0,0,.394,4.7,2.011,2.011,0,0,0,2.46,1.4,2.053,2.053,0,0,0,1.4-2.46,34.621,34.621,0,0,1-.267-4.631,5.467,5.467,0,0,1,.737-3.262c1.567-2.907,4.253-5.12,6.755-7.2a67.1,67.1,0,0,0,11.573-11.708,48.788,48.788,0,0,0,7.546-42.891c-3.827-12.838-13.017-25.031-25.481-30.492a50.307,50.307,0,0,0-40.84.7c-9.554,4.446-17.253,12.126-20.305,22.355a41.671,41.671,0,0,0-1.186,5.47,2.065,2.065,0,0,0,1.4,2.46,2.017,2.017,0,0,0,2.461-1.4Z"/><path class="c" d="M287.306,113.143c1.924-1.554,5.283-2.1,6.73.376,1.345,2.294.8,5.144-.044,7.5-1.714,4.791-5.954,7.435-10.694,8.641-2.494.633-1.437,4.492,1.063,3.857,5.079-1.291,9.8-4.072,12.337-8.8s3.7-12.66-1.827-15.859c-3.459-2-7.472-.9-10.394,1.458a2.012,2.012,0,0,0,0,2.828,2.047,2.047,0,0,0,2.829,0Z"/><path class="c" d="M254.861,102.735c-.876,1.713-1.33,5.947,1.863,6.915,4.315.784,5.51-4.213,4.513-6.856C260.421,100.63,257.083,99.166,254.861,102.735Z"/><path class="c" d="M288.256,131.266a26.953,26.953,0,0,0,2.512,7.319,16.519,16.519,0,0,0,4.057,5.639,25.585,25.585,0,0,0,6.44,3.617,42.153,42.153,0,0,0,6.834,2.225c2.506.573,3.576-3.283,1.063-3.857a41.491,41.491,0,0,1-6.194-1.962,29.614,29.614,0,0,1-2.862-1.334,20.249,20.249,0,0,1-2.453-1.518,13.375,13.375,0,0,1-3.432-4.829,23.337,23.337,0,0,1-2.108-6.363,2.015,2.015,0,0,0-2.46-1.4,2.047,2.047,0,0,0-1.4,2.46Z"/><path class="c" d="M246.026,130.383a24.759,24.759,0,0,0,7.517.62,2,2,0,1,0,0-4,24.1,24.1,0,0,1-4.978-.178l.531.071c-.674-.094-1.345-.211-2.007-.37a2,2,0,0,0-1.063,3.857Z"/><path class="c" d="M253.06,83.762c2.226,2.555,5.8,3.753,8.761,5.215,3.274,1.615,6.521,3.286,9.778,4.935q2.25,1.138,4.51,2.257c1.494.734,3.305,1.232,3.666,3.068a36.272,36.272,0,0,1,.04,10.332,2,2,0,0,0,1.468,1.929c1.591.332,3.152.794,4.743,1.126,2.512.523,3.586-3.331,1.063-3.857-1.59-.332-3.152-.794-4.742-1.126l1.468,1.928a37.216,37.216,0,0,0-.183-11.4c-.867-3.945-4.9-5.142-8.1-6.748-3.391-1.7-6.763-3.442-10.157-5.138q-2.425-1.212-4.874-2.38a13.594,13.594,0,0,1-4.616-2.973c-1.694-1.945-4.513.894-2.828,2.828Z"/><path class="c" d="M155.744,295.751c5.142-1.473,10.231-3.154,15.334-4.755q14.475-4.542,28.941-9.115l17.942-5.663c2.446-.772,1.4-4.635-1.063-3.857-18.66,5.889-37.308,11.814-55.992,17.626-2.072.645-4.14,1.309-6.226,1.907-2.47.707-1.42,4.568,1.064,3.857Z"/><path class="c" d="M254.23,270.26c-.905,11.054-1.655,22.117-3.122,33.115a2.01,2.01,0,0,0,2,2,2.051,2.051,0,0,0,2-2c1.467-11,2.217-22.061,3.122-33.115.21-2.565-3.791-2.552-4,0Z"/><path class="d" d="M299.614,158.118a115.6,115.6,0,0,1,18.75-1.96c1.27.185,2.277.329,2.277.329,3.4.486,8.28,2.766,9.728,3.573,7.873,4.392,14.627,11.691,19.208,19.229-22.268,6.48-50.588,14.737-70.8,20.568-7.744,2.234-12.675,9.317-13.112,17.364-.881,16.212-1.552,32.776-2.258,48.348-.2.183-12.545,12.02-16.159,14.423-5.937,3.915-12.42,7.352-19.264,6.759-2.2-.191-6.731-1.454-8.689-2.794a17.356,17.356,0,0,1-7.144-11.331c-1.718-9.8,1.842-19.731,5.426-29.036,5.2-13.5,19.333-42.381,25.949-56.249a41.8,41.8,0,0,1,19.832-18.19A162.587,162.587,0,0,1,299.614,158.118Z"/><path class="a" d="M109.471,133.512c-.636,2.325-1.256,4.363-1.824,5.931-1.505,4.147-2.432,6.447-4.051,10.57-4.047-11.355-21.885-43.7-27.177-51.2l-.963-1.614a5.275,5.275,0,0,0,.717-1.432,52.612,52.612,0,0,0,1.88-8.632l.106-.75a44.024,44.024,0,0,0,7.263,4.759,49.215,49.215,0,0,0,10.085,3.449c1.19.227,2.41.4,3.675.511a27.016,27.016,0,0,0,13.843-2.15c.059.524.095.835.095.835a7.191,7.191,0,0,0,.985,2.741,7.287,7.287,0,0,0,1.962,1.842l-.3,2.783C115.489,106.9,112.319,123.1,109.471,133.512Z"/><path class="a" d="M217.619,228.871a9.609,9.609,0,0,0-4.312,2.891,14.5,14.5,0,0,0-3.068,9.057,45.36,45.36,0,0,0,1.164,9.66,4,4,0,0,1-.272,3.139l2.583,1.088c1.074-3.771,2.467-7.491,3.863-11.116,1.446-3.752,3.581-8.692,6.052-14.167A7.271,7.271,0,0,0,217.619,228.871Z"/><path class="a" d="M107.909,29.414q-2.232-.18-4.755-.184c-32.336,0-38.721,25.421-38.721,25.421a5.326,5.326,0,0,0-3.846-.85,4.811,4.811,0,0,0-4,2.752c-1.164,2.562-.586,6.957.709,9.571a13.937,13.937,0,0,0,5.266,6.208,10.156,10.156,0,0,0,5.487,1.134c.248.515.406.846.406.846.6,1.259,2.029,3.464,2.029,3.464a44.609,44.609,0,0,0,4.957,6.208,43.061,43.061,0,0,0,9.978,7.155,49.215,49.215,0,0,0,10.085,3.449c1.19.227,2.41.4,3.675.511a27,27,0,0,0,20.6-6.4c5.884-4.807,8.449-12.394,9.376-20.784.535-4.838,1-10.1,1.7-15.351C130.854,52.561,135.019,31.6,107.909,29.414Z"/><path class="a" d="M266.96,164.31a19.818,19.818,0,0,0-2.39,4.3c15.414-6.731,36.833-12.2,53.6-12.449-.13-.62-.218-1.055-.218-1.055l-.852-4.223a5.056,5.056,0,0,0-5.2-3.712,85.767,85.767,0,0,0-24.016,3.668C280.2,153.075,271.638,157.839,266.96,164.31Z"/><path class="d" d="M98.516,120.675c.216-2,.359-3.485.353-3.761a49.175,49.175,0,0,0-2.913-8.353c2.72-2.075,5.872-4.207,7.668-5.52,1.977,1.542,3.537,2.813,5.293,4.436-.059.321-.093.51-.093.51a56.289,56.289,0,0,1-2.128,7.569c.58,2.32.978,4.651,1.388,6.821.859,4.535,1.259,6.655,1.669,10.089-.735,2.761-1.454,5.178-2.106,6.977-1.505,4.147-2.432,6.447-4.051,10.57a154.927,154.927,0,0,0-6.92-15.177l.126-.652C97.183,132.212,98.033,125.148,98.516,120.675Z"/><path class="e" d="M68.842,218.918c-14.651,0-28.437-6.562-36.2-15.448a33.833,33.833,0,0,1-7.849-14.257c-2.587-9.431-1.807-21.044.221-30.717,2.288-10.912,5.669-23.309,10.266-32.153,7.492-14.411,18.79-19.631,33.271-25.884l5.981-2.59.427-.185c-1-5.283,23.777,38.683,28.641,52.329,1.619-4.123,2.546-6.423,4.051-10.57,3.112-8.595,7.78-31.258,8.119-38.293l.319-2.953s.031-.282.061-.563l.661.235,8.388,2.985c16.935,6.031,24.816,15.929,27.71,34.506,2.564,16.458,2.413,34.478,2.284,51.83l-3.877,10L74.429,212.084Z"/><path class="c" d="M77.349,98.568q.459-1.857,1.039-3.679A2,2,0,0,0,75.45,92.63a2.157,2.157,0,0,0-.919,1.2q-.581,1.821-1.039,3.678a2.09,2.09,0,0,0,.2,1.541,2,2,0,0,0,3.656-.477Z"/><path class="a" d="M101.458,225.5c-1.155-.722-2.366-1.969-3.513-2.282-2.6-.708-6.613-.047-9.318-.6-3.59-.737-7.712-1.643-9.273-4.958l-4.408-3.078c-.74-3.24-.05-6.62.76-9.84.8-3.15,1.81-6.43,4.17-8.66a15,15,0,0,1,7.25-3.66c3.92-.71,14.82-1.72,17.23-1.52a20.131,20.131,0,0,1,7.717,2.273A20.168,20.168,0,0,0,114.2,192c.3-.161.6-.3.92-.45,3.971-1.8,9.151-2.432,13.225-4.15a5.362,5.362,0,0,1,4.488.142c4.8,2.425,9.709,6.761,11.417,10.251,1.042,2.116.054,5.825-1.411,7.486a146.984,146.984,0,0,1-12.489,15.361c-1.736,2.458-5.2,2.63-7.856,2.844a18.631,18.631,0,0,1-12-3.7l-4.746.163a8.616,8.616,0,0,1,.873,1.43,3.872,3.872,0,0,1-.508,3.351,3.119,3.119,0,0,1-3.858,1.172A4.14,4.14,0,0,1,101.458,225.5Z"/><path class="c" d="M357.2,228.013a75.237,75.237,0,0,0-.284-37.113,57.168,57.168,0,0,0-19.594-28.569c-4.628-3.607-10.263-6.852-16.146-7.773a2.063,2.063,0,0,0-2.46,1.4,2.015,2.015,0,0,0,1.4,2.46,32.124,32.124,0,0,1,13.2,5.88,52.488,52.488,0,0,1,12.023,12.2,50.867,50.867,0,0,1,7.29,14.046,62.519,62.519,0,0,1,2.711,16.908,67.416,67.416,0,0,1-2,19.5c-.66,2.491,3.2,3.554,3.857,1.064Z"/><path class="c" d="M319.884,154.574c-.5-2.485-.664-5.382-2.555-7.268a7.905,7.905,0,0,0-5.668-2.135,71.383,71.383,0,0,0-8.6.523c-9.992,1.175-20.326,3.63-28.823,9.233a31.168,31.168,0,0,0-10.577,10.89c-1.22,2.267,2.232,4.289,3.454,2.019,3.772-7.011,11.378-11.61,18.677-14.218a80.4,80.4,0,0,1,14.01-3.46,74.679,74.679,0,0,1,7.549-.849q1.791-.111,3.587-.134a6.112,6.112,0,0,1,2.578.3c2.146.929,2.107,4.179,2.507,6.161.508,2.521,4.365,1.454,3.857-1.064Z"/><path class="a" d="M262.52,283.824c1.087-20.419,1.909-43.859,3.145-66.6.437-8.047,5.368-15.13,13.112-17.364,22.993-6.633,56.481-16.407,79.613-23.131,9.024-2.623,18.264,4.2,17.972,13.59-.477,15.369-3.422,35.314-4.882,50.4"/><path class="c" d="M264.52,283.824c.989-18.634,1.679-37.282,2.594-55.92.364-7.417-.362-15.808,5.059-21.678a17.214,17.214,0,0,1,8.294-4.775q5.282-1.524,10.562-3.055,23.4-6.78,46.8-13.6c7.184-2.091,14.348-4.449,21.6-6.275a12.185,12.185,0,0,1,14.384,7.828c1.071,3.378.443,7.221.213,10.693-.281,4.242-.671,8.476-1.105,12.705-.862,8.4-1.919,16.769-2.837,25.158q-.318,2.907-.6,5.817a2.015,2.015,0,0,0,2,2,2.043,2.043,0,0,0,2-2c.837-8.6,1.934-17.166,2.882-25.75.484-4.38.937-8.763,1.3-13.154a108.462,108.462,0,0,0,.695-12.371A15.989,15.989,0,0,0,365.9,174.56c-3.75-.824-7.124-.028-10.725,1.019l-11.138,3.241q-24.312,7.076-48.625,14.142-5.691,1.65-11.384,3.3c-3.5,1.012-7.219,1.77-10.378,3.657a20.14,20.14,0,0,0-7.249,7.557,24.965,24.965,0,0,0-2.8,10.959c-1.05,19.586-1.773,39.187-2.74,58.777q-.163,3.307-.339,6.615c-.136,2.573,3.864,2.565,4,0Z"/><path class="c" d="M241.069,187.862c-4.525,9.45-9.092,18.881-13.544,28.366-4.283,9.128-8.606,18.282-12.212,27.7-4.533,11.846-10.151,28.584-.025,39.224,3.678,3.864,9.536,5.814,14.823,5.653,6.634-.2,13.026-3.508,18.364-7.239a95.774,95.774,0,0,0,9.735-8.381q3.334-3.075,6.612-6.211c1.861-1.786-.97-4.612-2.829-2.829-4.537,4.351-9.1,8.723-13.951,12.73-.574.475-.974.8-1.287,1.023-1.014.727-2.081,1.387-3.148,2.034a36.765,36.765,0,0,1-8.617,4.04,17.183,17.183,0,0,1-8.1.6,18.486,18.486,0,0,1-6.588-2.345c-5.163-3.439-6.715-9.741-6.592-15.588.146-6.868,2.4-13.518,4.79-19.888,3.341-8.906,7.357-17.545,11.378-26.16,4.8-10.278,9.744-20.484,14.642-30.714,1.106-2.31-2.342-4.342-3.454-2.018Z"/><path class="c" d="M222.555,226.805c-5.9-1.5-11.166,2.567-13.2,7.9a20.34,20.34,0,0,0-1.037,8.789c.135,1.717.4,3.425.7,5.119.186,1.034.977,3.031.381,4-1.354,2.2,2.1,4.209,3.454,2.019,1.445-2.344.321-5.31-.1-7.8a24.3,24.3,0,0,1-.3-8.316c.763-4.233,4.095-9.1,9.036-7.848,2.5.634,3.561-3.223,1.064-3.857Z"/><path class="c" d="M245.034,188.724a43.505,43.505,0,0,1,9.489-11.744,48.011,48.011,0,0,1,13.126-7.518,160.843,160.843,0,0,1,32.836-9.476,110.49,110.49,0,0,1,18.324-1.833c2.573-.024,2.579-4.024,0-4-11.676.111-23.373,2.334-34.593,5.455a159.249,159.249,0,0,0-16.566,5.565A58.362,58.362,0,0,0,253.107,173a46.159,46.159,0,0,0-11.527,13.7c-1.276,2.24,2.179,4.258,3.454,2.019Z"/><path class="c" d="M162.964,177.114q19.981-3.809,39.962-7.619h-1.064q19.105,5.281,38.21,10.56c2.484.691,3.544-3.167,1.064-3.857q-14.315-3.982-28.642-7.918l-7.129-1.968a8.809,8.809,0,0,0-3.5-.674c-1.308.208-2.608.5-3.909.744q-8.005,1.522-16.01,3.052L161.9,173.257c-2.526.481-1.456,4.337,1.063,3.857Z"/><path class="c" d="M2.506,209.968q14.7-2.809,29.4-5.62c2.526-.482,1.457-4.338-1.063-3.857q-14.7,2.8-29.4,5.62c-2.525.482-1.456,4.338,1.064,3.857Z"/><path class="c" d="M19.334,152.047A19.336,19.336,0,0,0,5.788,168.4c-.415,3.734.523,7.557,1.069,11.238q.947,6.37,1.879,12.741,1.036,7.065,2.071,14.129a2.014,2.014,0,0,0,2.461,1.4,2.051,2.051,0,0,0,1.4-2.46q-1.719-11.716-3.44-23.433c-.967-6.537-3.036-13.545.678-19.6a15.417,15.417,0,0,1,8.5-6.51c2.44-.786,1.4-4.65-1.064-3.857Z"/><path class="f" d="M64.433,54.651a5.326,5.326,0,0,0-3.846-.85,4.811,4.811,0,0,0-4,2.752l-.972,2.137c-2.016-4.214-2.709-11.269-2.986-14.736A50.493,50.493,0,0,1,53.856,31.4c1.561-6.647,3.6-10.452,8.522-16.056C73.119,3.7,84.934,1.708,92.9,2c12.2.45,20.922,3.275,28.539,12.206,5.485,5.012,7.935,11.21,9.286,18.19a61.813,61.813,0,0,1-.147,21.142l-.1-2.617c-.244-6.245-5.178-12.857-8.715-14.333a33.6,33.6,0,0,0-5.242-1.739,10.7,10.7,0,0,0-3.33-.167l-.74.218c-5.428,1.6-13.193,5.231-17.53,7a1.392,1.392,0,0,1-1.923-1.518,6.051,6.051,0,0,0,.018-2.464c-.195-1.044-1.049-1.565-1.751-1.271-8.642,3.62-18.108,14.958-19.737,17.989Z"/><path class="c" d="M109.488,221.514a21.321,21.321,0,0,0,16.819,3.537,9.935,9.935,0,0,0,3.88-1.5,21.59,21.59,0,0,0,3.381-3.461c1.8-2,3.553-4.037,5.217-6.15,1.882-2.39,3.662-4.854,5.5-7.274a10.724,10.724,0,0,0,2.323-7.7c-.346-2.874-2.608-5.351-4.6-7.285a33.159,33.159,0,0,0-7.8-5.681,7.815,7.815,0,0,0-5.587-.8c-1.741.439-3.415,1.229-5.16,1.707-3.486.956-7.24,1.631-10.415,3.447-2.234,1.278-.221,4.735,2.019,3.454,2.365-1.352,5.182-1.921,7.793-2.6,1.241-.324,2.483-.649,3.706-1.039,1.332-.424,2.818-1.351,4.255-1.182a9.276,9.276,0,0,1,3.522,1.714,29.935,29.935,0,0,1,3.327,2.437c1.761,1.494,4.008,3.431,4.86,5.662.685,1.8-.338,4.058-1.411,5.467-1.532,2.013-3.008,4.066-4.555,6.067q-2.165,2.8-4.506,5.451-1.226,1.392-2.484,2.755a6.831,6.831,0,0,1-2.688,2.238,16.392,16.392,0,0,1-7.349.624,17.343,17.343,0,0,1-8.026-3.343,2.013,2.013,0,0,0-2.736.717,2.05,2.05,0,0,0,.717,2.737Z"/><path class="c" d="M121,201.221a11.265,11.265,0,0,0,1.731-.539,11.722,11.722,0,0,0,1.921-.936,2.1,2.1,0,0,0,.92-1.2,2.047,2.047,0,0,0-.2-1.541,2,2,0,0,0-2.736-.718,8.914,8.914,0,0,1-1.316.682l.478-.2a11.292,11.292,0,0,1-1.859.592,2,2,0,0,0-.478,3.655,2.169,2.169,0,0,0,1.541.2Z"/><path class="c" d="M57.617,159.754c-1.723,6.459-3.138,13.03-2.523,19.737.308,3.371.95,6.38,3.044,9.142,2.474,3.262,5.885,4.992,9.575,6.561a53.506,53.506,0,0,0,10.3,3.15c2.513.514,3.588-3.34,1.063-3.857A51.62,51.62,0,0,1,71,192.24c-3.134-1.194-6.493-2.526-8.837-5.007a11.8,11.8,0,0,1-3.035-7.413,34.156,34.156,0,0,1,.015-7.957,89.758,89.758,0,0,1,2.334-11.046c.665-2.49-3.193-3.552-3.857-1.063Z"/><path class="c" d="M68.842,216.918C57.38,216.869,45.547,212.841,37,205.06a34.517,34.517,0,0,1-9.27-13.2A48.475,48.475,0,0,1,25.18,173.5a96.148,96.148,0,0,1,2.668-18.628,160.165,160.165,0,0,1,5.184-18.226,60.2,60.2,0,0,1,7.5-15.066A41.236,41.236,0,0,1,50.984,111.6c7.56-5.1,16.22-8.4,24.553-12a2.013,2.013,0,0,0,.718-2.736,2.053,2.053,0,0,0-2.737-.718c-7.635,3.306-15.494,6.358-22.593,10.739a47.68,47.68,0,0,0-11.808,10.044,56.5,56.5,0,0,0-8.689,15.338,140.033,140.033,0,0,0-5.79,18.8,116.393,116.393,0,0,0-3.3,19.352,57.645,57.645,0,0,0,1.642,19.742,38.114,38.114,0,0,0,8.94,15.493c9.28,10.006,23.452,15.206,36.925,15.264,2.575.011,2.578-3.989,0-4Z"/><path class="c" d="M157.189,187.19c.074-9.938.156-19.883-.261-29.815-.384-9.163-1-18.527-3.031-27.493a43.876,43.876,0,0,0-7.9-17.561,39.287,39.287,0,0,0-14.855-11.209c-4.466-2.031-9.181-3.528-13.8-5.171-2.43-.865-3.475,3-1.063,3.857,9.157,3.258,18.718,6.151,25.437,13.619a37.046,37.046,0,0,1,7.884,15.7c2.155,8.323,2.771,17.1,3.21,25.652.555,10.8.462,21.613.382,32.419-.019,2.575,3.98,2.577,4,0Z"/><path class="c" d="M131.733,135.6c-.622,14.113-.844,28.238-1.43,42.351-.107,2.574,3.893,2.569,4,0,.586-14.113.808-28.238,1.43-42.351.113-2.573-3.887-2.568-4,0Z"/><path class="c" d="M57.576,58.141c-1.991-3.875-2.447-8.638-2.836-12.917a42.386,42.386,0,0,1,1.044-13.3,31.451,31.451,0,0,1,5.692-12.395A42.009,42.009,0,0,1,73.867,8.615C81.393,4.335,89.85,3.3,98.341,4.439a35.12,35.12,0,0,1,24.51,14.155c3.566,4.6,5.413,10.325,6.23,16.033a57.411,57.411,0,0,1-.447,18.455c-.472,2.516,3.382,3.594,3.857,1.063,2.1-11.185,1.69-24.272-4.074-34.379A39.158,39.158,0,0,0,103.127,1.25C93.741-.837,83.94-.457,75.106,3.507,65.25,7.929,56.311,16.8,52.94,27.18a48.168,48.168,0,0,0-1.861,8.57,40.215,40.215,0,0,0-.428,8.439c.424,5.343.987,11.136,3.472,15.97,1.177,2.291,4.629.269,3.453-2.018Z"/><path class="c" d="M132.473,50.923a20.228,20.228,0,0,0-3.4-9.964c-1.543-2.368-3.645-4.945-6.309-6.1a2.065,2.065,0,0,0-2.736.717,2.015,2.015,0,0,0,.717,2.737,7.636,7.636,0,0,1,1.331.749c.111.077.22.157.328.238-.228-.172-.075-.057.058.057.249.214.494.431.731.659a15.1,15.1,0,0,1,2.426,2.958,19.771,19.771,0,0,1,1.935,3.758,17.332,17.332,0,0,1,.634,2.128,9.153,9.153,0,0,1,.281,2.059,2.043,2.043,0,0,0,2,2,2.019,2.019,0,0,0,2-2Z"/><path class="c" d="M111.914,32.974A111.292,111.292,0,0,0,100.1,37.53c-1.734.743-3.461,1.508-5.2,2.231a3.3,3.3,0,0,0-.515.212c.019-.054,1.314.774.553.487.14.053-.164.624.083-.166a3.811,3.811,0,0,0,.1-.859,5.825,5.825,0,0,0-.6-3.141c-2.362-4-7.812.349-10.265,2.161a62.794,62.794,0,0,0-8.784,7.953,38.653,38.653,0,0,0-5.674,7.22c-1.241,2.257,2.212,4.277,3.453,2.019a30.968,30.968,0,0,1,4.291-5.576,61.9,61.9,0,0,1,8.133-7.711,33.982,33.982,0,0,1,4.546-3c.386-.209.777-.41,1.174-.6.078-.036.4-.131.439-.2.214-.367-.709-.177-.7-.189-.039.04-.175,1.972-.169,2.321a3.444,3.444,0,0,0,4.482,3.133,53.123,53.123,0,0,0,4.948-2.1,116.316,116.316,0,0,1,12.582-4.9c2.459-.738,1.412-4.6-1.064-3.857Z"/><path class="c" d="M153.257,174.576a64.19,64.19,0,0,1-.226,13.386,28.54,28.54,0,0,1-.83,4.4,8.312,8.312,0,0,1-2.3,3.413c-1.848,1.8.982,4.626,2.829,2.829a12.751,12.751,0,0,0,3.071-4.452,21.13,21.13,0,0,0,1.042-4.8,54.393,54.393,0,0,0,.685-7.149c.036-2.547-.115-5.091-.267-7.632-.153-2.558-4.155-2.575-4,0Z"/><path class="c" d="M101.485,219.014a6.213,6.213,0,0,1,2.919,2.493c.489.773.61,2.181-.489,2.575-1.136.407-2.424-1.028-3.229-1.618a7.924,7.924,0,0,0-4.085-1.49c-2.959-.318-5.878.078-8.808-.574-2.53-.564-5.446-1.249-6.712-3.751-1.163-2.3-4.615-.275-3.454,2.019,1.81,3.577,5.789,4.873,9.447,5.664a27.737,27.737,0,0,0,6.052.53c1.781-.006,3.726-.215,5.25.843,1.7,1.185,3.117,2.481,5.341,2.422a5.156,5.156,0,0,0,4.68-3.573c1.6-4.164-2.206-8.018-5.849-9.4a2.015,2.015,0,0,0-2.46,1.4,2.044,2.044,0,0,0,1.4,2.46Z"/><path class="c" d="M123.406,205.851c.215-5.736-4.513-10.852-9.084-13.693a22.09,22.09,0,0,0-13-3.211c-3.919.207-7.841.59-11.731,1.1-4.858.638-9.569,2.195-12.6,6.324a22.75,22.75,0,0,0-3.28,8.068c-.878,3.52-1.448,7.075-.7,10.672.522,2.519,4.379,1.453,3.857-1.063a18.091,18.091,0,0,1,.533-7.852,24.974,24.974,0,0,1,2.213-6.514c2.062-3.672,6.037-5.1,9.991-5.637,3.28-.446,6.724-.766,10.078-1,3.415-.235,6.49-.216,9.75,1.093,4.464,1.792,10.166,6.4,9.967,11.71-.1,2.574,3.9,2.57,4,0Z"/><path class="c" d="M104.326,203.03a23.854,23.854,0,0,1,4.028,1.006c.267.094.531.193.794.3.136.055.377.162.111.044q.2.09.405.183.764.356,1.491.782c.42.247.83.513,1.224.8.017.013.383.3.144.105s.079.068.127.108c.172.143.341.291.5.444a12.99,12.99,0,0,1,2.086,2.5,2,2,0,1,0,3.454-2.019,17.288,17.288,0,0,0-5.383-5.307,22.39,22.39,0,0,0-7.922-2.8,2.051,2.051,0,0,0-2.461,1.4,2.024,2.024,0,0,0,1.4,2.46Z"/><path class="c" d="M104.526,211.533c.082.006.163.014.244.021.349.026-.1-.039-.183-.027a1.657,1.657,0,0,1,.509.1,9.184,9.184,0,0,1,1.1.325c.089.032.176.067.265.1.328.12-.333-.15-.107-.048.178.08.355.159.529.246q.561.278,1.091.61c.17.107.337.217.5.332.082.057.164.116.245.175.256.188.029.063-.07-.058a11.012,11.012,0,0,0,.9.784c.294.285.558.591.824.9.155.18-.3-.418-.07-.09.053.077.109.152.161.229.114.167.22.339.321.514a2,2,0,0,0,3.454-2.019,12.534,12.534,0,0,0-4.248-4.222,11.948,11.948,0,0,0-5.467-1.871,2.011,2.011,0,0,0-2,2,2.048,2.048,0,0,0,2,2Z"/><path class="c" d="M97.014,60.9c.464-1.713-.009-5.6-3.23-5.822-4.243.17-4.309,4.891-2.805,7.058C92.21,63.914,95.675,64.551,97.014,60.9Z"/><path class="c" d="M122.235,60.837c.424-1.718-.009-5.618-2.96-5.842-3.885.17-3.944,4.906-2.566,7.081C117.836,63.857,121.009,64.5,122.235,60.837Z"/><path class="c" d="M105.958,66.643a28.987,28.987,0,0,1,1.656,3.076l-.2-.478a1.891,1.891,0,0,1,.132.448l-.071-.532a1.272,1.272,0,0,1,0,.185l.071-.532a.767.767,0,0,1-.044.171l.2-.477a.53.53,0,0,1-.061.1l.313-.405a2.065,2.065,0,0,1-.291.27l.405-.312a1.936,1.936,0,0,1-.349.2l.478-.2a1.9,1.9,0,0,1-.418.112l.531-.072c-.328.042-.652.071-.981.119a1.993,1.993,0,0,0-1.195.919,2,2,0,0,0,.717,2.737l.478.2a2,2,0,0,0,1.063,0l.042-.006-.532.072a8.94,8.94,0,0,0,1.143-.152,3.807,3.807,0,0,0,1.57-.9,2.6,2.6,0,0,0,.86-1.978,4.115,4.115,0,0,0-.524-1.76c-.466-.97-.993-1.912-1.542-2.836a2.071,2.071,0,0,0-1.2-.919,2,2,0,0,0-2.259,2.938Z"/><path class="c" d="M65.443,52.924A7.723,7.723,0,0,0,56.7,53.3c-2.028,1.571-2.7,4.1-2.733,6.572-.066,5.431,2.83,11.48,7.658,14.221a10.544,10.544,0,0,0,9.284.587,2.015,2.015,0,0,0,.717-2.736,2.047,2.047,0,0,0-2.736-.718,5.468,5.468,0,0,1-3.4.065,6.1,6.1,0,0,1-2.818-1.3,12.629,12.629,0,0,1-3.975-5.713c-.7-2.048-1.215-5.034-.261-6.945a4.174,4.174,0,0,1,.308-.509c-.245.353.088-.091.137-.138a2.733,2.733,0,0,1,1.062-.676,3.734,3.734,0,0,1,3.49.365,2,2,0,0,0,2.019-3.454Z"/><path class="c" d="M86.431,89.412a38.64,38.64,0,0,1-9.417-6.688A35.378,35.378,0,0,1,70.185,73.3a2.019,2.019,0,0,0-2.736-.718,2.041,2.041,0,0,0-.718,2.736,33.942,33.942,0,0,0,2.885,4.7,41.39,41.39,0,0,0,4.57,5.531,43.1,43.1,0,0,0,10.226,7.313c2.28,1.19,4.3-2.26,2.019-3.454Z"/><path class="c" d="M128.854,52.561c-.717,5.465-1.1,10.971-1.827,16.433a34.7,34.7,0,0,1-3.8,12.455c-4.271,7.582-13.044,11.911-21.6,11.779a37.947,37.947,0,0,1-15.2-3.816,2.059,2.059,0,0,0-2.736.718,2.016,2.016,0,0,0,.717,2.736c9.392,4.309,19.984,6.192,29.705,1.773a28.047,28.047,0,0,0,11.207-9.03A33.031,33.031,0,0,0,130.5,72.432c1.216-6.546,1.487-13.272,2.353-19.871a2.01,2.01,0,0,0-2-2,2.052,2.052,0,0,0-2,2Z"/><path class="c" d="M88.2,50.888l-2.089,1.924a1.5,1.5,0,0,0-.414.643,1.814,1.814,0,0,0,0,1.542,1.5,1.5,0,0,0,.414.643,2.012,2.012,0,0,0,1.414.586l.532-.071a1.992,1.992,0,0,0,.882-.515l2.089-1.923a1.934,1.934,0,0,0,.414-2.185,1.509,1.509,0,0,0-.414-.644,2.009,2.009,0,0,0-1.414-.585l-.531.071a2,2,0,0,0-.883.514Z"/><path class="c" d="M108.6,78.236a12.007,12.007,0,0,0-5.227-1.247,13.181,13.181,0,0,0-5.072.97,2,2,0,0,0,1.063,3.857,16.612,16.612,0,0,1,2.158-.7c.155-.035.311-.061.468-.089.275-.047-.087.024-.166.022a3.038,3.038,0,0,0,.313-.03,10.993,10.993,0,0,1,1.1-.033c.354.007.708.03,1.061.067.073.008.467.052.129.014-.313-.036,0,0,.06.013.17.029.341.061.51.1a9.754,9.754,0,0,1,1.022.276c.075.025.149.051.223.079s.4.16.082.026.171.09.253.133a2,2,0,1,0,2.019-3.454Z"/><path class="c" d="M106.9,107.455a49.33,49.33,0,0,1-1.574,5.928,5.462,5.462,0,0,0-.441,3.169c.286,1.3.571,2.6.819,3.913.754,3.99,1.567,7.978,2.054,12.012a2.063,2.063,0,0,0,2,2,2.012,2.012,0,0,0,2-2,148.621,148.621,0,0,0-3.129-17.452v1.063a51.94,51.94,0,0,0,2.128-7.57c.476-2.515-3.379-3.593-3.857-1.063Z"/><path class="c" d="M94.231,109.569A51.5,51.5,0,0,1,96.269,115a6.669,6.669,0,0,1,.568,2.458c-.122,1.631-.323,3.259-.505,4.885-.433,3.863-.761,7.617-1.459,11.309-.475,2.515,3.379,3.593,3.857,1.063.787-4.16,1.163-8.429,1.631-12.634.18-1.607.455-3.25.495-4.869a12.58,12.58,0,0,0-.942-3.944c-.635-1.947-1.408-3.843-2.23-5.719a2.013,2.013,0,0,0-2.736-.717,2.05,2.05,0,0,0-.717,2.736Z"/><path class="c" d="M106.035,113.988c-2.012.027-4.026.049-6.036.12a2,2,0,0,0,0,4c2.01-.071,4.024-.093,6.036-.12a2,2,0,0,0,0-4Z"/><path class="c" d="M112.027,107.68a82.78,82.78,0,0,0-6.989-6.053,2.058,2.058,0,0,0-2.423-.313c-3.207,2.337-6.512,4.534-9.6,7.032a2.012,2.012,0,0,0,0,2.828,2.046,2.046,0,0,0,2.828,0c2.821-2.281,5.861-4.271,8.791-6.406l-2.424-.313a83.106,83.106,0,0,1,6.988,6.053c1.842,1.8,4.673-1.024,2.829-2.828Z"/><path class="c" d="M65.278,104.993a24.21,24.21,0,0,0-2.564,5.669c-.477,1.562-.284,2.821,1.234,3.629,2.773,1.478,5.81,2.525,8.7,3.741l-.883-3.343c-1.483,1.774-2.98,3.539-4.413,5.354-1.281,1.623-2.583,3.309-1.953,5.5.424,1.476,1.755,2.789,2.637,4.019q1.546,2.154,3.066,4.325c4.958,7.051,9.889,14.12,15.088,21a2.065,2.065,0,0,0,2.737.717,2.013,2.013,0,0,0,.717-2.736c-4.8-6.353-9.383-12.866-13.956-19.385-1.8-2.573-3.609-5.148-5.464-7.686-.26-.356-.976-1.018-.991-1.484-.022-.639,1.039-1.558,1.387-1.993,1.3-1.623,2.641-3.208,3.974-4.8a2.037,2.037,0,0,0-.883-3.343c-1.552-.652-3.112-1.285-4.661-1.945-.776-.331-1.552-.664-2.317-1.019-.282-.131-.558-.276-.84-.408-.4-.186-.22-.157-.067.01l.515.883c.36.977-.1.928.1.483.077-.178.109-.39.168-.576.156-.5.339-.992.535-1.476a20.31,20.31,0,0,1,1.586-3.114c1.366-2.191-2.093-4.2-3.453-2.019Z"/><path class="c" d="M74.692,99.818a192.823,192.823,0,0,1,10.267,17.239c4.322,7.766,8.514,15.617,12.378,23.622a101.46,101.46,0,0,1,4.33,9.865,2.02,2.02,0,0,0,3.857,0c1.614-4.107,3.329-8.2,4.674-12.407,1.044-3.265,1.89-6.594,2.69-9.926,1.752-7.3,3.306-14.692,4.343-22.132.366-2.62.57-5.253.854-7.882a2.012,2.012,0,0,0-2-2,2.046,2.046,0,0,0-2,2c-.595,5.507-1.232,10.614-2.288,16.114a212.638,212.638,0,0,1-5.133,21.725c-1.39,4.572-3.251,9-5,13.445h3.857c-2.536-7.067-6.127-13.813-9.582-20.46-4.057-7.806-8.282-15.533-12.742-23.116-1.611-2.741-3.226-5.5-5.055-8.106-1.468-2.091-4.938-.094-3.453,2.019Z"/><path class="c" d="M124.426,108.322a18.306,18.306,0,0,1,2.084,2.775,14.206,14.206,0,0,0,.862,1.534l.19.382.352-1.291c-.013-.007-.06.041-.074.038-.25-.053-1.065.54-1.291.655-.524.266-1.066.511-1.577.8a3.149,3.149,0,0,0-1.253,4.412,12.093,12.093,0,0,0,2.32,2.395c.432.409.863.82,1.288,1.237.257.251,1.05.8,1.108,1.159v-1.063a24.263,24.263,0,0,1-2.107,4.47q-1.38,2.825-2.782,5.64c-.613,1.234-1.205,2.463-1.776,3.716l-4.931,10.836-1.446,3.177a2.06,2.06,0,0,0,.718,2.736,2.015,2.015,0,0,0,2.736-.717c3.686-8.1,7.415-16.146,11.313-24.144.863-1.769,2.937-4.556,1.874-6.537a13.14,13.14,0,0,0-2.68-2.876c-.43-.411-.863-.817-1.3-1.225a4.666,4.666,0,0,0-.636-.6c-.748-.436.163-.045-.17.41l-.717.717c1.253-.942,3.037-1.222,4.175-2.322,1.357-1.31.679-2.986-.084-4.409a23.625,23.625,0,0,0-3.371-4.734c-1.739-1.906-4.562.929-2.829,2.828Z"/><path class="g" d="M69.257,101.626a25.9,25.9,0,0,0,4.486-2.663,6.7,6.7,0,0,0,2.43-3.2,52.612,52.612,0,0,0,1.88-8.632"/><path class="g" d="M113.12,93.784a7.191,7.191,0,0,0,.985,2.741A9.347,9.347,0,0,0,119.2,99.77"/></svg>