<?xml version="1.0" encoding="iso-8859-1"?>
<!-- Uploaded to: SVG Repo, www.svgrepo.com, Generator: SVG Repo Mixer Tools -->
<svg version="1.1" id="Layer_1" xmlns="http://www.w3.org/2000/svg" xmlns:xlink="http://www.w3.org/1999/xlink" 
	 viewBox="0 0 511.997 511.997" xml:space="preserve">
<path style="fill:#64B9DC;" d="M473.614,221.425c-5.098,0-10.084-1.002-14.818-2.978c-13.536-5.651-46.295-11.355-88.976-11.355
	s-75.441,5.702-88.973,11.354c-4.736,1.977-9.721,2.979-14.82,2.979c-3.468,0-6.83-0.462-10.027-1.328
	c-3.197,0.867-6.56,1.328-10.027,1.328c-5.099,0-10.084-1.002-14.818-2.978c-13.535-5.651-46.295-11.355-88.975-11.355
	c-42.68,0-75.441,5.702-88.975,11.354c-4.735,1.977-9.72,2.979-14.819,2.979C17.22,221.425,0,204.2,0,183.029V91.625
	c0-8.292,3.094-23.874,23.818-35.076c8.1-4.379,18.423-7.968,31.557-10.97c23.51-5.374,54.338-8.335,86.805-8.335
	s63.293,2.961,86.803,8.336c10.797,2.468,19.693,5.332,27.016,8.705c7.324-3.373,16.221-6.238,27.016-8.705
	c23.51-5.376,54.337-8.336,86.803-8.336s63.294,2.961,86.803,8.336c13.134,3.003,23.458,6.592,31.557,10.97
	c20.724,11.202,23.818,26.785,23.818,35.076v91.404c0,10.486-4.137,20.269-11.651,27.549
	C493.133,217.574,483.637,221.425,473.614,221.425C473.614,221.425,473.615,221.425,473.614,221.425z"/>
<path style="fill:#E1EAFF;" d="M369.821,20.229C306.96,20.229,256,31.88,256,46.253c0-14.372-50.96-26.024-113.821-26.024
	c-62.861,0-113.821,11.651-113.821,26.023v136.777c0,7.177,7.297,12.013,13.919,9.248c19.328-8.071,56.82-13.543,99.902-13.543
	s80.573,5.473,99.902,13.543c6.622,2.766,13.919-2.071,13.919-9.248c0,7.177,7.297,12.013,13.919,9.248
	c19.329-8.071,56.82-13.543,99.902-13.543s80.573,5.473,99.902,13.543c6.622,2.766,13.919-2.071,13.919-9.248V46.252
	C483.642,31.88,432.682,20.229,369.821,20.229z"/>
<g>
	<path style="fill:#2A2A33;" d="M216.561,74.762c-0.547,0-1.101-0.053-1.658-0.163c-20.116-3.974-45.944-6.162-72.723-6.162
		c-25.014,0-49.52,1.939-69.004,5.46c-4.62,0.836-9.05-2.236-9.885-6.859c-0.836-4.624,2.236-9.05,6.859-9.885
		c20.747-3.749,45.654-5.731,72.029-5.731c27.853,0,54.851,2.303,76.022,6.485c4.609,0.911,7.608,5.386,6.697,9.995
		C224.097,71.954,220.541,74.762,216.561,74.762z"/>
	<path style="fill:#2A2A33;" d="M216.561,106.487c-0.547,0-1.101-0.053-1.658-0.163c-20.116-3.974-45.944-6.162-72.723-6.162
		c-25.014,0-49.52,1.939-69.004,5.46c-4.62,0.836-9.05-2.236-9.885-6.859c-0.836-4.624,2.236-9.05,6.859-9.885
		c20.747-3.749,45.654-5.731,72.029-5.731c27.853,0,54.851,2.303,76.022,6.485c4.609,0.911,7.608,5.386,6.697,9.995
		C224.097,103.678,220.541,106.487,216.561,106.487z"/>
	<path style="fill:#2A2A33;" d="M216.561,138.211c-0.547,0-1.101-0.053-1.657-0.163c-20.117-3.974-45.945-6.162-72.724-6.162
		c-25.014,0-49.519,1.939-69.004,5.46c-4.62,0.835-9.05-2.236-9.885-6.859c-0.836-4.624,2.236-9.05,6.859-9.885
		c20.748-3.749,45.654-5.731,72.029-5.731c27.852,0,54.851,2.303,76.02,6.485c4.61,0.911,7.609,5.385,6.698,9.995
		C224.097,135.402,220.541,138.211,216.561,138.211z"/>
	<path style="fill:#2A2A33;" d="M295.44,74.762c-3.98,0-7.536-2.807-8.337-6.86c-0.911-4.61,2.088-9.085,6.697-9.995
		c21.17-4.182,48.168-6.485,76.022-6.485c26.374,0,51.282,1.982,72.029,5.731c4.624,0.835,7.695,5.261,6.859,9.885
		c-0.835,4.624-5.264,7.693-9.885,6.859c-19.483-3.52-43.989-5.46-69.004-5.46c-26.779,0-52.607,2.188-72.723,6.162
		C296.541,74.71,295.986,74.762,295.44,74.762z"/>
	<path style="fill:#2A2A33;" d="M295.44,106.487c-3.98,0-7.536-2.807-8.337-6.86c-0.911-4.61,2.088-9.085,6.697-9.995
		c21.17-4.182,48.168-6.485,76.022-6.485c26.374,0,51.282,1.982,72.029,5.731c4.624,0.835,7.695,5.261,6.859,9.885
		c-0.835,4.624-5.264,7.693-9.885,6.859c-19.483-3.52-43.989-5.46-69.004-5.46c-26.779,0-52.607,2.188-72.723,6.162
		C296.541,106.434,295.986,106.487,295.44,106.487z"/>
	<path style="fill:#2A2A33;" d="M295.44,138.211c-3.98,0-7.536-2.807-8.337-6.86c-0.911-4.61,2.088-9.085,6.698-9.995
		c21.17-4.182,48.168-6.485,76.021-6.485c26.374,0,51.281,1.982,72.029,5.731c4.624,0.835,7.695,5.261,6.859,9.885
		c-0.835,4.624-5.264,7.694-9.885,6.859c-19.483-3.521-43.989-5.46-69.004-5.46c-26.779,0-52.606,2.188-72.724,6.162
		C296.541,138.157,295.986,138.211,295.44,138.211z"/>
</g>
<path style="fill:#D9A382;" d="M58.349,352.667h110.37v108.53c0,16.883-13.687,30.57-30.57,30.57l0,0L58.349,352.667z"/>
<path style="fill:#E6B393;" d="M78.732,355.461V250.558l0,0c-40.621,0-73.552,32.931-73.552,73.552v94.105
	c0,40.621,32.931,73.552,73.552,73.552l0,0h59.418v-62.143C138.149,388.665,119.691,355.461,78.732,355.461L78.732,355.461z"/>
<path style="fill:#D9A382;" d="M453.651,352.667h-110.37v108.53c0,16.883,13.687,30.57,30.57,30.57l0,0L453.651,352.667z"/>
<path style="fill:#E6B393;" d="M433.268,355.461V250.558l0,0c40.621,0,73.552,32.931,73.552,73.552v94.105
	c0,40.621-32.931,73.552-73.552,73.552l0,0H373.85v-62.143C373.851,388.665,392.309,355.461,433.268,355.461L433.268,355.461z"/>
<path style="fill:#2A2A33;" d="M419.864,152.882H92.137c-17.941,0-32.484,14.543-32.484,32.484v158.29
	c0,17.941,14.543,32.484,32.484,32.484h327.727c17.941,0,32.484-14.543,32.484-32.484v-158.29
	C452.348,167.426,437.804,152.882,419.864,152.882z"/>
<rect x="105.028" y="186.913" style="fill:#5B5D6E;" width="301.947" height="155.199"/>
<ellipse style="fill:#FFFFFF;" cx="255.995" cy="264.513" rx="68.479" ry="48.208"/>
<circle style="fill:#64B9DC;" cx="255.995" cy="264.513" r="24.589"/>
<path style="opacity:0.1;enable-background:new    ;" d="M111.986,266.654c-15.332,0-30.223,6.333-40.855,17.373l-11.477,11.917
	v47.712c0,17.941,14.543,32.484,32.484,32.484h47.765l12.93-13.426c10.51-10.912,16.14-25.263,15.856-40.41
	c-0.285-15.147-6.451-29.276-17.362-39.784C140.703,272.288,126.732,266.654,111.986,266.654z"/>
<path style="opacity:0.1;enable-background:new    ;" d="M400.014,266.654c15.332,0,30.223,6.333,40.855,17.373l11.478,11.917
	v47.712c0,17.941-14.543,32.484-32.484,32.484h-47.765l-12.93-13.426c-10.51-10.912-16.14-25.263-15.856-40.41
	c0.285-15.147,6.451-29.276,17.362-39.784C371.298,272.288,385.268,266.654,400.014,266.654z"/>
<g>
	<path style="fill:#E6B393;" d="M57.069,408.743c-7.079,0-14.167-2.633-19.668-7.932c-11.281-10.865-11.619-28.816-0.754-40.097
		l54.908-57.014c10.863-11.281,28.817-11.62,40.097-0.754c11.281,10.865,11.619,28.816,0.754,40.097l-54.908,57.014
		C71.934,405.834,64.505,408.743,57.069,408.743z"/>
	<path style="fill:#E6B393;" d="M454.931,408.743c7.079,0,14.167-2.633,19.668-7.932c11.281-10.865,11.619-28.816,0.754-40.097
		l-54.908-57.014c-10.863-11.281-28.816-11.62-40.097-0.754c-11.281,10.865-11.619,28.816-0.754,40.097l54.908,57.014
		C440.068,405.834,447.495,408.743,454.931,408.743z"/>
</g>
</svg>