<?xml version="1.0" ?>
<!-- Uploaded to: SVG Repo, www.svgrepo.com, Generator: SVG Repo Mixer Tools -->
<svg width="800px" height="800px" viewBox="0 0 32 32" xmlns="http://www.w3.org/2000/svg">
<defs>
<style>.cls-1{fill:#dbe9fa;}.cls-2{fill:#52acf9;}.cls-3{fill:#ffffff;}.cls-4{fill:#d9dce1;}</style>
</defs>
<g id="target">
<circle class="cls-1" cx="16" cy="16" r="16"/>
<circle class="cls-2" cx="16" cy="16" r="14"/>
<path class="cls-3" d="M16,26A10,10,0,1,1,26,16,10,10,0,0,1,16,26ZM16,8a8,8,0,1,0,8,8A8,8,0,0,0,16,8Z"/>
<path class="cls-3" d="M16,22a6,6,0,1,1,6-6A6,6,0,0,1,16,22Zm0-10a4,4,0,1,0,4,4A4,4,0,0,0,16,12Z"/>
<path class="cls-4" d="M16,18a2,2,0,1,1,2-2A2,2,0,0,1,16,18Zm0-2h0v0Z"/>
<path d="M16,2A14,14,0,1,0,30,16,14,14,0,0,0,16,2Zm0,26A12,12,0,1,1,28,16,12,12,0,0,1,16,28Z"/>
</g>
</svg>