<?xml version="1.0" encoding="iso-8859-1"?>
<!-- Uploaded to: SVG Repo, www.svgrepo.com, Generator: SVG Repo Mixer Tools -->
<svg version="1.1" id="Layer_1" xmlns="http://www.w3.org/2000/svg" xmlns:xlink="http://www.w3.org/1999/xlink" 
	 viewBox="0 0 512.001 512.001" xml:space="preserve">
<path style="fill:#2A2A33;" d="M203.622,42.353v427.295c0,23.391,18.961,42.353,42.352,42.353h206.38
	c23.391,0,42.352-18.963,42.352-42.353V42.353C494.708,18.963,475.746,0,452.355,0H245.974C222.583,0,203.622,18.963,203.622,42.353
	z"/>
<path style="opacity:0.1;enable-background:new    ;" d="M216.973,469.648V42.353C216.973,18.963,235.935,0,259.326,0h-13.352
	c-23.391,0-42.352,18.961-42.352,42.352v427.295c0,23.391,18.961,42.352,42.352,42.352h13.352
	C235.935,512,216.973,493.039,216.973,469.648z"/>
<path style="fill:#3F3F4D;" d="M481.356,469.648V42.353C481.356,18.963,462.395,0,439.003,0h13.352
	c23.391,0,42.352,18.961,42.352,42.352v427.295c0,23.391-18.961,42.352-42.352,42.352h-13.352
	C462.395,512,481.356,493.039,481.356,469.648z"/>
<g>
	<rect x="247.995" y="59.158" style="fill:#5B5D6E;" width="202.354" height="393.681"/>
	<circle style="fill:#5B5D6E;" cx="349.166" cy="482.78" r="11.526"/>
	<circle style="fill:#5B5D6E;" cx="349.166" cy="29.646" r="8.636"/>
</g>
<path style="fill:#74D6FF;" d="M349.165,312.457l-65.504-62.035c2.764-10.777,4.235-22.072,4.235-33.712
	c0-74.724-60.576-135.3-135.3-135.3s-135.301,60.576-135.301,135.3s60.576,135.3,135.3,135.3c42.204,0,79.891-19.326,104.704-49.609
	L349.165,312.457z"/>
<polygon style="fill:#FF6465;" points="152.595,155.819 120.382,216.711 152.595,283.719 230.287,249.364 230.287,155.819 "/>
<polygon style="fill:#E65A5B;" points="74.903,155.819 74.903,249.364 152.595,283.719 152.595,190.174 152.595,155.819 "/>
<polygon style="fill:#FF8080;" points="74.903,155.819 152.595,190.174 230.287,155.819 152.595,121.464 "/>
</svg>