<?xml version="1.0" encoding="iso-8859-1"?>
<!-- Uploaded to: SVG Repo, www.svgrepo.com, Generator: SVG Repo Mixer Tools -->
<svg version="1.1" id="Layer_1" xmlns="http://www.w3.org/2000/svg" xmlns:xlink="http://www.w3.org/1999/xlink" 
	 viewBox="0 0 512.001 512.001" xml:space="preserve">
<path style="fill:#2A2A33;" d="M405.701,0H106.298C91.043,0,78.679,12.366,78.679,27.62v456.761c0,15.254,12.366,27.62,27.62,27.62
	h299.403c15.254,0,27.62-12.366,27.62-27.62V27.62C433.321,12.366,420.956,0,405.701,0z"/>
<path style="opacity:0.1;enable-background:new    ;" d="M89.546,484.381V27.62C89.546,12.366,101.912,0,117.165,0h-10.867
	C91.044,0,78.679,12.366,78.679,27.62v456.761c0,15.254,12.366,27.62,27.62,27.62h10.867C101.912,512,89.546,499.634,89.546,484.381
	z"/>
<path style="fill:#3F3F4D;" d="M422.454,484.381V27.62c0-15.254-12.366-27.62-27.62-27.62h10.867c15.254,0,27.62,12.366,27.62,27.62
	v456.761c0,15.254-12.366,27.62-27.62,27.62h-10.867C410.088,512,422.454,499.634,422.454,484.381z"/>
<g>
	<rect x="111.28" y="59.977" style="fill:#5B5D6E;" width="289.439" height="388.962"/>
	<circle style="fill:#5B5D6E;" cx="256" cy="31.203" r="8.041"/>
	<circle style="fill:#5B5D6E;" cx="256" cy="481.247" r="13.963"/>
</g>
<polygon style="fill:#64B9DC;" points="368.54,256.001 256,330.503 143.458,256.001 256,181.497 "/>
<ellipse style="fill:#FFFFFF;" cx="256" cy="258.12" rx="49.48" ry="34.83"/>
<circle style="fill:#64B9DC;" cx="256" cy="258.12" r="16.431"/>
</svg>